<?xml version="1.0" encoding="utf-8"?>
<!-- Generator: Adobe Illustrator 22.0.1, SVG Export Plug-In . SVG Version: 6.00 Build 0)  -->
<svg version="1.1" id="Layer_1" xmlns="http://www.w3.org/2000/svg" xmlns:xlink="http://www.w3.org/1999/xlink" x="0px" y="0px"
	 viewBox="0 0 3600 2000" style="enable-background:new 0 0 3600 2000;" xml:space="preserve">
<style type="text/css">
	.st0{opacity:0.42;fill:url(#SVGID_1_);}
	.st1{opacity:0.42;fill:url(#SVGID_2_);}
	.st2{opacity:0.42;fill:url(#SVGID_3_);}
	.st3{fill:#79AEF2;}
	.st4{fill:#3B5CBF;}
	.st5{fill:url(#SVGID_4_);}
	.st6{fill:#96D9C9;}
	.st7{fill:url(#SVGID_5_);}
	.st8{fill:#EFAC7F;}
	.st9{fill:#DCE7FD;}
	.st10{fill:#FE875E;}
	.st11{fill:#150259;}
	.st12{fill:#D19369;}
	.st13{fill:#5E2E0D;}
	.st14{fill:#E75755;}
	.st15{fill:#F8A492;}
	.st16{fill:#FFFFFF;}
	.st17{fill:#060632;}
	.st18{fill:#0B0754;}
	.st19{fill:url(#SVGID_6_);}
	.st20{fill:url(#SVGID_7_);}
	.st21{fill:url(#SVGID_8_);}
	.st22{fill:#96A65F;}
	.st23{fill:url(#SVGID_9_);}
	.st24{fill:#9ED16F;}
	.st25{fill:#3797DB;}
	.st26{fill:url(#SVGID_10_);}
	.st27{fill:url(#SVGID_11_);}
	.st28{fill:url(#SVGID_12_);}
	.st29{fill:url(#SVGID_13_);}
	.st30{fill:#F25C5C;}
	.st31{fill:url(#SVGID_14_);}
	.st32{fill:url(#SVGID_15_);}
	.st33{fill:url(#SVGID_16_);}
	.st34{fill:url(#SVGID_17_);}
	.st35{fill:url(#SVGID_18_);}
	.st36{fill:url(#SVGID_19_);}
	.st37{fill:url(#SVGID_20_);}
	.st38{fill:url(#SVGID_21_);}
	.st39{fill:url(#SVGID_22_);}
	.st40{fill:url(#SVGID_23_);}
	.st41{fill:#9E332E;}
	.st42{fill:url(#SVGID_24_);}
	.st43{fill:#F48C7F;}
	.st44{fill:#EA8888;}
	.st45{fill:#F7A491;}
	.st46{fill:url(#SVGID_25_);}
	.st47{fill:url(#SVGID_26_);}
	.st48{fill:#282828;}
	.st49{fill:url(#SVGID_27_);}
	.st50{fill:url(#SVGID_28_);}
	.st51{fill:url(#SVGID_29_);}
	.st52{fill:url(#SVGID_30_);}
	.st53{fill:url(#SVGID_31_);}
	.st54{fill:#EFEFEF;}
	.st55{fill:#7772D6;}
	.st56{fill:url(#SVGID_32_);}
</style>
<g id="Layer_1_1_">
	<radialGradient id="SVGID_1_" cx="1117.5" cy="1768.8998" r="98.246" gradientUnits="userSpaceOnUse">
		<stop  offset="5.618000e-03" style="stop-color:#D7F0FC"/>
		<stop  offset="0.4494" style="stop-color:#ABE1FA"/>
		<stop  offset="1" style="stop-color:#96CFF1"/>
	</radialGradient>
	<path class="st0" d="M1251.2,1768.9c0,20.9-59.9,37.8-133.7,37.8c-73.9,0-133.7-16.9-133.7-37.8s59.9-37.8,133.7-37.8
		C1191.3,1731,1251.2,1748,1251.2,1768.9z"/>
	<radialGradient id="SVGID_2_" cx="674.5" cy="1705" r="220.3353" gradientUnits="userSpaceOnUse">
		<stop  offset="5.618000e-03" style="stop-color:#D7F0FC"/>
		<stop  offset="0.4494" style="stop-color:#ABE1FA"/>
		<stop  offset="1" style="stop-color:#96CFF1"/>
	</radialGradient>
	<path class="st1" d="M983.8,1705c0,20.9-138.5,37.8-309.3,37.8s-309.3-16.9-309.3-37.8s138.5-37.8,309.3-37.8
		S983.8,1684.1,983.8,1705z"/>
	<radialGradient id="SVGID_3_" cx="1474.5" cy="1705" r="116.3203" gradientUnits="userSpaceOnUse">
		<stop  offset="5.618000e-03" style="stop-color:#D7F0FC"/>
		<stop  offset="0.4494" style="stop-color:#ABE1FA"/>
		<stop  offset="1" style="stop-color:#96CFF1"/>
	</radialGradient>
	<path class="st2" d="M1634.6,1705c0,20.9-71.7,37.8-160.1,37.8s-160.1-16.9-160.1-37.8s71.7-37.8,160.1-37.8
		S1634.6,1684.1,1634.6,1705z"/>
	<g>
		<g>
			<path class="st3" d="M918.5,601.5c-0.3,0-0.5-0.1-0.7-0.4c-0.3-0.4-0.2-1,0.2-1.3c0.1-0.1,11.8-8.9,27.9-1.1
				c0.4,0.2,0.6,0.8,0.4,1.2c-0.2,0.4-0.8,0.6-1.2,0.4c-15.1-7.3-25.5,0.5-26,0.9C918.9,601.4,918.7,601.5,918.5,601.5z"/>
		</g>
		<path class="st4" d="M1173.2,1537c-331-173-443.9-352.2-479.8-474H906c-1.2,19.1-6.9,37.8-16.5,54.4c-4.7,7.8-7.2,16.8-7.2,26
			c0,27.8,22.6,50.4,50.4,50.4c27.8,0,50.4-22.6,50.4-50.4c0-9.2-2.5-18.2-7.3-26.1c-9.6-16.5-15.2-35.2-16.4-54.3h213.8v198.1
			l3.9-0.4c19-1.7,37.7-7.6,54.2-17.2c6.8-4.1,14.5-6.3,22.4-6.3c23.8,0,43.2,19.4,43.2,43.2c0,23.8-19.4,43.2-43.2,43.2
			c-7.9,0-15.6-2.2-22.4-6.2c-16.5-9.6-35.3-15.5-54.2-17.2l-3.9-0.3L1173.2,1537L1173.2,1537z"/>
		<g>
			<radialGradient id="SVGID_4_" cx="1420.3" cy="1230.4501" r="275.3055" gradientUnits="userSpaceOnUse">
				<stop  offset="5.618000e-03" style="stop-color:#D7F0FC"/>
				<stop  offset="0.4494" style="stop-color:#ABE1FA"/>
				<stop  offset="1" style="stop-color:#96CFF1"/>
			</radialGradient>
			<path class="st5" d="M1180.4,1307.9c16.7,2,32.6,7.3,47.3,15.8c7.8,4.7,16.8,7.2,26,7.2c27.8,0,50.4-22.6,50.4-50.4
				s-22.6-50.4-50.4-50.4c-9.2,0-18.2,2.5-26.1,7.3c-14.6,8.5-30.5,13.8-47.2,15.8v-190.1h251.8l0.1-3.5
				c0.8-24.6-5.3-48.9-17.6-70.2c-4.1-6.8-6.3-14.5-6.3-22.4c0-23.8,19.4-43.2,43.2-43.2c23.8,0,43.2,19.4,43.2,43.2
				c0,7.9-2.2,15.6-6.2,22.4c-12.4,21.4-18.5,45.6-17.7,70.2l0.1,3.5h189.2c-35.9,121.7-148.8,301-479.8,474L1180.4,1307.9
				L1180.4,1307.9z"/>
			<path class="st6" d="M1179.5,1538.5v-231.6l1,0.1c16.8,2,32.9,7.4,47.6,15.9c7.7,4.7,16.5,7.1,25.6,7.1
				c27.3,0,49.5-22.2,49.5-49.5s-22.2-49.5-49.5-49.5c-9.1,0-17.9,2.5-25.6,7.1c-14.7,8.5-30.7,13.9-47.6,15.9l-1,0.1v-192h251.8
				l0.1-2.6c0.8-24.4-5.2-48.5-17.5-69.7c-4.2-6.9-6.4-14.8-6.4-22.9c0-24.3,19.8-44.1,44.1-44.1c24.3,0,44.1,19.8,44.1,44.1
				c0,8.1-2.2,16-6.4,22.8c-12.3,21.2-18.3,45.3-17.5,69.7l0.1,2.6h189.5l-0.3,1.2c-35.6,120.6-147.8,300.8-480.3,474.5
				L1179.5,1538.5z M1181.3,1308.9v226.6c329.8-172.7,441.9-351.5,477.7-471.6h-188.8l-0.1-4.4c-0.8-24.8,5.3-49.2,17.8-70.7
				c4-6.6,6.1-14.2,6.1-21.9c0-23.3-19-42.3-42.3-42.3s-42.3,19-42.3,42.3c0,7.7,2.1,15.3,6.1,22c12.4,21.5,18.6,45.9,17.8,70.7
				l-0.1,4.4h-251.7v188.2c16.2-2.1,31.7-7.3,45.9-15.5c8-4.8,17.2-7.4,26.5-7.4c28.3,0,51.3,23,51.3,51.3s-23,51.3-51.3,51.3
				c-9.4,0-18.6-2.5-26.5-7.4C1212.9,1316.3,1197.5,1311,1181.3,1308.9z"/>
		</g>
		<linearGradient id="SVGID_5_" gradientUnits="userSpaceOnUse" x1="677.2" y1="925.2499" x2="1173.2" y2="925.2499">
			<stop  offset="0" style="stop-color:#D1E4A5"/>
			<stop  offset="0.5" style="stop-color:#ACD479"/>
			<stop  offset="1" style="stop-color:#76B83F"/>
		</linearGradient>
		<path class="st7" d="M932.7,1186.7c-23.8,0-43.2-19.4-43.2-43.2c0-7.9,2.2-15.6,6.2-22.4c10.9-18.7,17-40,17.7-61.6l0.1-3.7H691.3
			c-9.3-33.9-14.1-68-14.1-101.4c0-77.5,24.5-150.1,69.1-204.2c45.9-55.7,109.4-86.4,178.9-86.4c85.1,0,148.1,35.5,186,65.3
			c37.4,29.4,58.4,59.3,62,64.6v91.6c-15.2-2.4-29.7-7.5-43.1-15.2c-7.8-4.7-16.8-7.2-26-7.2c-27.8,0-50.4,22.6-50.4,50.4
			c0,27.8,22.6,50.4,50.4,50.4c9.2,0,18.2-2.5,26.1-7.3c13.3-7.7,27.8-12.8,43-15.2v114.6H951.9l0.1,3.7
			c0.7,21.6,6.8,42.8,17.6,61.5c4.1,6.8,6.3,14.5,6.3,22.4C975.9,1167.3,956.5,1186.7,932.7,1186.7z"/>
		<g>
			<g>
				<path class="st8" d="M926.4,644.7c-10.2,1.6-9.6,3.3-10.9,3.5c-1.5,0.2-19.9-9-19.9-9s-54.3-26.7-57.1-28.3l-39.2-49.1
					l-30.2,13.9c0,0,44.1,52.2,46.8,54.5c2.8,2.3,80.6,29.5,87.4,32.1c0,0,6.8,6.2,11.2,10s10.3,5.2,11.7,6.1
					c0.2,0.1,5.1,2.7,12,4.2c5.9,1.3,1-2.7,1-2.7s-10.5-4.4-10-5.2c0.4-0.6,6,2.1,12.5,3.6c1.7,0.4,3.3,0.8,4.9,1.1
					c4,0.9,5.8-1.4,1.7-3c-1.4-0.6-3.8-1.4-5.6-1.8c-1.9-0.4-3.6-1.4-5.2-2c-3.1-1.2-5.4-2-5.3-2.1c0.2-0.1-0.3-0.8,1.5-0.5
					c2.2,0.4,6.5,2.4,9.8,2.7c1.8,0.2,5.6,0.9,5.6,0.9s6.7,0.6,6.8-0.3c0.1-2.1-4-3.2-6.6-3.2c-1.6-0.8-5.6-1.4-5.6-1.4
					s-7.8-3.1-7.4-4.2c0.2-0.5,4.9,0.2,9.9,0.6c5.3,0.4,9.1,0.4,9.4-0.7c0.4-1.6-3.8-2.2-3.8-2.2s-3.7-0.5-4.9-0.8
					c-1.4-0.3-5.6-1.6-5.6-1.6s-14.4-5.3-13.8-6.3c0.5-1.1,2.9-3.3,3.9-3.3s2.8,1,3.8,1s3.2-0.2,3.3-1.5c0.2-1.3-5.5-3.9-5.5-3.9
					S929.3,644.2,926.4,644.7z"/>
				<path class="st9" d="M826.5,592.2c0,0-9.8,8.9-13.8,11.8c-3.4,2.4-19.8,10.3-19.8,10.3s-16.4-25-23.5-37.6
					c-8.7-15.2-14.7-37.8-12.7-38.5c5.8-1.7,13.7-2.8,21,0.6C803,550.5,826.5,592.2,826.5,592.2z"/>
				<path class="st10" d="M916.9,657.8c4.3,0.7,8.8-0.1,10.7-4.1C928,658.4,920.9,660.7,916.9,657.8z"/>
			</g>
			<path class="st8" d="M666.6,973.7l-1.1,19.2c-0.4,2.4-2,8.4-2,10.6c0,8.3,36.9-7,28.7-10.7c-0.7-0.3-4.7-2.9-4.9-5.7
				c-0.4-4.4-1.3-13.2-1.3-13.2L666.6,973.7z"/>
			<path class="st11" d="M692.1,992.7c0,0-8.7,2.5-13.1,3.2c-4.4,0.6-10.3-4.7-13.4-3.3c-3.5,1.6-3.3,15.9-3.3,15.9
				s46.5,4.1,59.6-0.1C727,1006.7,709.8,998.6,692.1,992.7z"/>
			<path class="st8" d="M607.2,972.5c0,0-1.1,19.1-1.1,19.2c-0.4,2.4-2,8.4-2,10.6c0,8.3,36.9-7,28.7-10.7c-0.7-0.3-5.8-4.7-6.1-7.6
				c-0.4-4.4-0.2-11.3-0.2-11.3L607.2,972.5z"/>
			<path class="st11" d="M632.7,991.5c0,0-8.7,2.5-13.1,3.2c-4.4,0.6-10.3-4.7-13.4-3.3c-3.5,1.6-3.6,15.9-3.6,15.9
				s46.2,1.9,59.9-0.1C667.8,1006.4,650.5,997.5,632.7,991.5z"/>
			<path class="st11" d="M615.6,670.5c0,0-6.3,32.3-3.7,56.8s2.8,111.5,2.8,111.5L604.9,978l23.1,0.5c0,0,27.4-139.2,26.9-135.6
				c-0.5,3.6,9.2-98,9.2-98l-32.7-77.6L615.6,670.5z"/>
			<path class="st11" d="M624.3,649.6c0,0-28.4,29.8-17.8,62.3c4.2,13.1,43.8,137.9,44.3,148.1c0.5,10.2,13.4,123,13.4,123l26.9-0.8
				l5.8-125.4l-7.7-169l-16.3-28.5L624.3,649.6z"/>
			<path class="st9" d="M796.6,553c-9.3-10.3-29.5-25.4-29.5-25.4s-12-10.3-17-11.9c-7.2-2.5-19.6-9.1-37.5,17.9
				c-12.8,19.4-93.6,119.6-106.9,123l86.7,41.3c2.4-19.7,45.2-57,51.4-64C757.5,618.4,805.3,562.8,796.6,553z"/>
			<g>
				<path class="st8" d="M792.5,510.6l-27,15.8c0,0-0.8,23,8.1,28.9c7.4,5,13-7,13-7s10-13.9,17.7-18.2
					C811.9,525.8,792.5,510.6,792.5,510.6z"/>
				<path class="st12" d="M788,520.7c1,4.8,3.4,11.7,7,17.4c3-3.2,6.3-6.4,9.3-8c3.5-2,1.3-6.3-2.2-10.4c-4.8-5-9.6-9.1-9.6-9.1
					l-5.2,3C787,515.6,787.6,519.2,788,520.7z"/>
				<path class="st8" d="M806.6,471.1c-0.5-0.6-22.6,27-19.9,39.9c2.7,12.9,16.2,24.7,25.5,21.5c10.3-3.6,29.5-36,22.6-51.8
					C827.9,465,806.6,471.1,806.6,471.1z"/>
				<path class="st13" d="M830.9,462.5c-9.7-5.4-25.5-6.9-37.2-0.8c-14.5,7.6-17.8,26.6-13.3,38.2s-0.7,18.2-0.7,18.2l7.7-4.5
					c0,0,4.5-7,5.1-12.6s8.7-4.6,12.7-7.1c3.1-1.9,7-8.3,11.9-11.5c0,0,12.5-1.5,18.6,1.9C846.2,490.2,844.7,470.1,830.9,462.5z"/>
			</g>
			<path class="st8" d="M873.7,685.3c-10.6-1.3-10.6-0.4-11.9-0.6c-1.6-0.2-18.1-14.4-18.1-14.4s-48.8-41.4-51.4-43.7l-26.8-59.2
				l-35.4,5.3c0,0,33,69.6,35.3,72.6s74.8,45.3,81,49.7c0,0,5.5,8,9.1,12.9s9.2,8,10.5,9.3c0.2,0.2,4.5,4.1,11.1,7.5
				c5.7,2.9,1.6-2.4,1.6-2.4s-9.6-7.3-8.9-7.9c0.5-0.5,5.5,3.8,11.8,7.1c1.6,0.9,3.2,1.7,4.7,2.4c3.9,2,6.1,0.2,2.4-2.4
				c-1.3-1-3.5-2.5-5.3-3.4c-1.9-0.9-3.3-2.4-4.8-3.4c-2.9-2-4.9-3.4-4.7-3.4c0.2-0.1-0.3-1,1.5-0.2c2.1,1,6.1,4.2,9.2,5.4
				c1.8,0.7,5.5,2.5,5.5,2.5s5.4,0.7,5.6,0.4c1.1-1.7-2.1-3-4.7-3.7c-1.4-1.2-5.4-3-5.4-3s-7.2-5.2-6.5-6.2c0.3-0.4,4.5,2.5,9.7,4.4
				c5.9,2.2,8.8,1,9.3,0.1c0.8-1.5-2.8-2.3-2.8-2.3s-5-1.2-6.1-1.8c-1.4-0.7-17.3-12.7-16.5-13.6c0.8-0.9,3.2-0.9,4.2-0.6
				c1,0.3,2.8,1,3.8,1.3s2.8-0.9,3.2-2.1c0.4-1.2-3.4-3.4-3.4-3.4S876.8,685.6,873.7,685.3z"/>
			<path class="st9" d="M735.7,601.4c0,0,10.2-3.2,16.7-6.2c4.4-2,23.4-11.5,23.4-11.5s-8.2-34.6-13.8-47
				c-20.4-45.6-43.6-14.2-46.7-6.8C708.3,546.3,735.7,601.4,735.7,601.4z"/>
		</g>
		<path class="st14" d="M1478,1055.9c-0.1-22.1,5.6-43.7,16.7-62.8c4.7-7.8,7.2-16.8,7.2-26c0-27.8-22.6-50.4-50.4-50.4
			s-50.4,22.6-50.4,50.4c0,9.2,2.5,18.2,7.3,26.1c11.1,19.1,16.8,40.7,16.7,62.8h-244.7V933l-4,0.5c-17.7,2.2-34.5,7.8-49.9,16.7
			c-6.8,4.1-14.5,6.3-22.4,6.3c-23.8,0-43.2-19.4-43.2-43.2s19.4-43.2,43.2-43.2c7.9,0,15.6,2.2,22.4,6.2
			c15.5,9,32.3,14.6,49.9,16.8l4,0.5v-99.8c3.6-5.4,24.6-35.2,62-64.6c37.8-29.8,100.8-65.3,186-65.3c69.4,0,133,30.7,178.9,86.4
			c44.6,54.1,69.1,126.6,69.1,204.2c0,33.4-4.7,67.5-14.1,101.4H1478z"/>
		<g>
			<path class="st4" d="M1663.8,1215.7h-73.3c-3.6,0-6.6-2.9-6.6-6.6l0,0c0-3.6,2.9-6.6,6.6-6.6h73.3c3.6,0,6.6,2.9,6.6,6.6l0,0
				C1670.4,1212.8,1667.4,1215.7,1663.8,1215.7z"/>
			<path class="st4" d="M1671,1226.1h-87.7c-3.6,0-6.6-2.9-6.6-6.6l0,0c0-3.6,2.9-6.6,6.6-6.6h87.7c3.6,0,6.6,2.9,6.6,6.6l0,0
				C1677.6,1223.1,1674.6,1226.1,1671,1226.1z"/>
			<g>
				<path class="st8" d="M1413.7,1663.8c0,0-6.8,6.7-6.9,9.1c-0.2,2.5-0.6,28.7,2.2,31.2c2.8,2.5,10.9,4.2,8.3,6.9
					c-2,2.1-17.1,1.6-27.1,1.1c-2.9-0.2-6.6-23.9-7.8-27.3c-1.7-5.1-7.8-16.1-6.2-19.6c0.7-1.7,6.3-5.6,11.3-8.9
					c5.3-3.5,10.4-11.2,10.4-11.2L1413.7,1663.8z"/>
				<path class="st8" d="M1504.1,1680.2c0,0-6,17.3-6.1,17.4c-0.4,2.7-2.2,9.5-2.2,12c0,9.4,41.7-7.9,32.3-12.1
					c-0.8-0.4-3.5-3.4-3.8-6.6c-0.4-4.9,3.5-11.1,3.5-11.1L1504.1,1680.2z"/>
				<g>
					<path class="st11" d="M1561.6,1351.6l15.1,39.1c0,0,9.8,93.2,4.1,149c-2.4,23.3-54.3,148.3-54.3,148.3l-25.8-3.7l34.5-148
						l-12.7-56.6l-18-111.8L1561.6,1351.6z"/>
					<path class="st11" d="M1490.5,1353.6l-12.9,43.5l-19.7,131.3l-66.6,122.8c0,0,10,15.4,20.8,17.8l94.5-124.1l51.2-155.4
						l-1.8-34.5L1490.5,1353.6z"/>
				</g>
				<path class="st15" d="M1689.2,1281.2c-7.7,3.5-7,5-8,5.4c-1.2,0.5-17.5-4.7-17.5-4.7s-48.2-14.9-50.7-15.8l-40.5-39.1l-21.3,19
					c0,0,44.9,41.1,47.6,42.7s69.6,12.5,75.4,13.7c0,0,6.6,4.6,10.8,7.3c4.2,2.7,9.2,3,10.5,3.5c0.2,0.1,4.5,1.6,10.3,1.7
					c5,0.1,0.3-2.8,0.3-2.8s-9.2-2.2-8.9-3c0.2-0.7,5.1,0.9,10.6,1c1.4,0,2.8,0.1,4.1,0.1c3.4,0,4.3-2.5,0.8-3.2
					c-1.2-0.3-3.3-0.6-4.8-0.6c-1.6,0-3.1-0.7-4.5-0.9c-2.7-0.5-4.7-0.9-4.6-1c0.1-0.2-0.4-0.7,1.1-0.7c1.8,0,5.6,1,8.3,0.7
					c1.5-0.2,4.6-0.2,4.6-0.2s5.1-0.8,5.1-1.2c0.2-2-3.6-2.7-5.6-2.1c-1.4-0.5-4.7-0.3-4.7-0.3s-6.8-1.4-6.6-2.6
					c0.1-1,16.9-1.4,16.9-3.4c0-1.6-5-1.8-5-1.8s-3.1,0.2-4.1,0.2c-1.2,0-4.8-0.5-4.8-0.5s-12.4-2.2-12.2-3.3
					c0.2-1.1,1.7-3.7,2.5-3.8c0.8-0.2,2.4,0.4,3.2,0.2c0.8-0.2,1.7-1.3,1.6-2.5s-4.3-2.2-4.3-2.2S1691.4,1280.2,1689.2,1281.2z"/>
				<path class="st16" d="M1587.1,1236.9l-20.3,27.5c0,0-17.9-21.5-26-32.2c-9.8-13.1-20.5-31.2-18.9-32.1c4.5-2.8,10-5.7,16.5-4
					C1561.1,1202,1587.1,1236.9,1587.1,1236.9z"/>
				<path class="st17" d="M1387.7,1656.1c0,0,14.2,43.6,20.3,45.7c1.6,0.6,10.7,2.9,12.2,6.4c0,0.1,0.1,0.2,0.1,0.3
					c0.5,2.2-1.4,4.2-3.6,4.2h-28.9c0,0-4.1-19.6-5.7-28.2c0,0-8.6-21-7.6-22.9C1375.4,1659.7,1387.7,1656.1,1387.7,1656.1z"/>
				<path class="st17" d="M1493.4,1712.7l4.6-15.3c0,0,10.1,4.3,15.2,3.6c5-0.7,14.8-3.6,14.8-3.6c20,6.7,36.4,9.9,33.4,15.3l0,0
					H1493.4z"/>
				<path class="st10" d="M1683,1294.5c3.7-0.1,6.7-1.7,8.8-5.3C1691,1294.2,1686.3,1296.3,1683,1294.5z"/>
				<path class="st16" d="M1495.7,1195.3c0,0-24.2,2.6-32.3,5.4c-6.8,2.4-15.9,24.4-15.9,24.4s36.6,105.9,35.2,124.8s-5.5,47-5.5,47
					s72.1,4.6,99.5-6.2c0,0-8.6-42.9-8.6-54.2c0-11.3-4.8-123.9-8.3-129.8s-10.4-9.3-23.6-12.1
					C1523,1191.7,1495.7,1195.3,1495.7,1195.3z"/>
				<path class="st8" d="M1500.5,1163.8l-4.8,31.5c0,0,14.5,16.7,25,13.4c8.8-2.7,6.5-15.1,6.5-15.1s-4.8-17.8-3.4-26.8
					C1525.2,1157.9,1500.5,1163.8,1500.5,1163.8z"/>
				<path class="st12" d="M1523.8,1166.9c1.4-8.9-23.3-3.1-23.3-3.1l-0.4,2.6c0.7,1.7,1.6,3.2,2.7,4.4c5.5,5.9,14.2,9.4,21.6,9.7
					C1523.6,1175.7,1523.2,1170.5,1523.8,1166.9z"/>
				<g>
					<path class="st8" d="M1496.4,1119.2c-0.7-0.3-5.6,35.9,3.7,45.8c9.3,9.9,27.4,13.2,33.9,5.4c7.2-8.7,6.8-47.5-7.6-57.7
						C1512,1102.4,1496.4,1119.2,1496.4,1119.2z"/>
					<path class="st18" d="M1520.9,1093.3c-11.2,2.3-18.4,9.1-21.1,11.9c-5.1,0.6-12,3.4-19.1,15.1c-8.8,14.4-2.3,30.4,7.9,38.2
						s10.1,16.9,10.1,16.9l1.6-4.7c1.2-3.5,1.7-7.3,1.3-11c-0.2-2.2-0.7-4.6-1.6-6.6c-2.5-5.2,5.3-8.7,7.4-13.1
						c1.7-3.4,1.7-11,4.4-16.6l3.1-4.2c0,0,7.2-5.6,14.3-4C1536.3,1116.8,1535.3,1090.4,1520.9,1093.3z"/>
					<path class="st8" d="M1506.9,1146.5c0.1,4.4-1.9,8-4.5,8.1c-2.6,0-4.7-3.5-4.8-7.9s1.9-8,4.5-8.1S1506.8,1142.1,1506.9,1146.5z
						"/>
				</g>
				<linearGradient id="SVGID_6_" gradientUnits="userSpaceOnUse" x1="1539.6091" y1="1285.1179" x2="1685.2091" y2="1285.1179">
					<stop  offset="0" style="stop-color:#D1E4A5"/>
					<stop  offset="0.5" style="stop-color:#ACD479"/>
					<stop  offset="1" style="stop-color:#76B83F"/>
				</linearGradient>
				<rect x="1539.6" y="1222" class="st19" width="145.6" height="126.3"/>
				<linearGradient id="SVGID_7_" gradientUnits="userSpaceOnUse" x1="1630.2241" y1="1285.1179" x2="1756.5242" y2="1285.1179">
					<stop  offset="0" style="stop-color:#D1E4A5"/>
					<stop  offset="0.5" style="stop-color:#ACD479"/>
					<stop  offset="1" style="stop-color:#76B83F"/>
				</linearGradient>
				<rect x="1630.2" y="1222" class="st20" width="126.3" height="126.3"/>
				<path class="st8" d="M1627.7,1345.6c-7.4-2.2-92.6-24-95.8-26.1c-3.2-2.1-55.8-51.2-55.8-51.2l30.1-15.9l47.1,46.4
					c3.2,1.3,63.5,24.3,63.5,24.3s18.4,7.5,20,7.2c1.4-0.3,2.5-1.5,13-3.8c3-0.7,7.3,0.6,7.3,0.6s5.3,1.6,5.3,2.9s-1.3,2.2-2.4,2.3
					c-1.1,0.1-3.1-0.8-4.2-0.8c-1.1,0.1-3.3,2.4-3.7,3.5c-0.3,0.7,14.7,11.6,15.4,13c0.3,0.3,18.2-0.9,17.5,0.3
					c0,1.8-2.1,1.3-2.1,1.6c-0.3,4.9-25.6,8.5-27.3,8C1652.8,1357,1627.7,1345.6,1627.7,1345.6z"/>
				<path class="st16" d="M1492.4,1290.9l34.5-22.6c0,0-40-60.6-53.6-66.9c-9.4-4.3-21.1,2.2-25.7,18.1
					C1442.6,1236.8,1492.4,1290.9,1492.4,1290.9z"/>
			</g>
			<linearGradient id="SVGID_8_" gradientUnits="userSpaceOnUse" x1="1646.5001" y1="1258.8125" x2="1761.3002" y2="1258.8125">
				<stop  offset="0" style="stop-color:#D1E4A5"/>
				<stop  offset="0.5" style="stop-color:#ACD479"/>
				<stop  offset="1" style="stop-color:#76B83F"/>
			</linearGradient>
			<path class="st21" d="M1743.9,1250.5l-5.9,5.6v-32.8c0-3.4-2.8-6.2-6.2-6.2h-51.2c-3.4,0-6.2,2.8-6.2,6.2v38.1l-6.3-10.9
				l-21.6,6.3c0,0,17.3,33,27.9,38.4c14.1,7.2,49.3,7,63.5,0c8.7-4.3,23.4-30.7,23.4-30.7L1743.9,1250.5z"/>
			<path class="st11" d="M1724.4,1299.1c-1-11.3-8.6-20.2-17.9-20.2s-16.9,8.9-17.9,20.3C1699.7,1301,1713.4,1300.9,1724.4,1299.1z"
				/>
		</g>
		<g>
			<path class="st13" d="M1419.6,378.7c-5.2,8.9-14.5,8.5-24.5,11c-6.7,1.7-10.8,12.7-10.2,21.1c1.6,21.2-14.9,17.6-28.3,26.3
				c-31.9,21-11.3,75.7,23.6,79.2c7,0.7,15-0.4,21.2-3.9c5-2.8,8.5-6.4,14.1-8.4c11.8-4.2,24.9-5.6,34.3-14.7
				c13.5-12.9,2.3-19.3,5.8-28.7c3.5-9.4,18.4-4.7,21.3-24.2c3.1-21.1-0.3-39.3-8.1-49.8c-12.9-17.4-35.5-18.5-43.8-13.3
				C1422.5,375,1420.8,376.8,1419.6,378.7z"/>
			<path class="st8" d="M1566.3,418.4c-1.2-2.6-12.3,5.1-14.7,3.7c-2.4-1.5,9.9-13.9,8.6-16.1c-2.3-4-14.4,12.8-15.5,11
				c-1.2-1.8,10.4-19.7,6.3-20.7s-10.1,19.9-12.2,18.5c-2.1-1.3,7.3-18.9,3.3-22.5c-2.1-1.9-12.2,32-15.9,33.4
				c-3.7,1.4-7.8-13.4-11.2-12.8c-3.4,0.6,11.3,27.3,10.6,29.3c-0.7,2.1-14.2,45.6-22.2,58.8c-4.8-2.3-9.5-4.6-13.9-6.8
				c-1.8,10.1-2,20.7-4.3,30.6c15.4,6.8,29.2,11.7,33.7,10.1c13.7-5,20.4-71.3,22.6-83.7c2.2-12.4,8-14.8,11.4-21.3
				C1556,423.4,1567.5,421,1566.3,418.4z"/>
			<path class="st9" d="M1452.1,474.2l-22.8,23c0,0,30.2,16.4,55.8,27.6c2.3-9.9,2.5-20.5,4.3-30.6
				C1468.3,483.5,1452.1,474.2,1452.1,474.2z"/>
			<path class="st8" d="M1594.7,730.1c10,11.8,17.3,24.1,18.1,25.7c0.4,0.7,0.5,4.9,0.9,5.7c15.6,10.3,32.1,7.4,45.7,3.2
				c-8.9-3.9-21.4-8.3-22.5-10.2c-1.9-3-10.4-13.8-19.1-33.2C1610.7,728.2,1604.1,727.4,1594.7,730.1z"/>
			<path class="st11" d="M1612.9,756.3c-1.4,6.2-0.8,18.9,0.4,19.1c1.5,0.3,53.8,8.1,60.5,1.3c4-4-3.6-7.2-14.5-12.2
				C1645.8,768.9,1613.4,760.6,1612.9,756.3z"/>
			<path class="st8" d="M1599.1,777.3c10,11.8,17.3,24.1,18.1,25.7c0.4,0.7,0.5,4.9,0.9,5.7c15.6,10.3,32.1,7.4,45.7,3.2
				c-8.9-3.9-21.4-8.3-22.5-10.2c-1.9-3-10.4-13.8-19.1-33.2C1615.1,775.5,1608.5,774.7,1599.1,777.3z"/>
			<path class="st11" d="M1617.4,803.6c-1.4,6.2-0.8,18.9,0.4,19.1c1.5,0.3,53.8,8.1,60.5,1.3c4-4-3.6-7.2-14.5-12.1
				C1650.2,816.1,1617.9,807.8,1617.4,803.6z"/>
			<path class="st22" d="M1624.7,729.6l-27.2,9.4l-146.6-121.6c0,0,35.8-0.5,99.9,6.1C1569.9,625.4,1624.7,729.6,1624.7,729.6z"/>
			<linearGradient id="SVGID_9_" gradientUnits="userSpaceOnUse" x1="1391.3213" y1="696.6" x2="1632.4" y2="696.6">
				<stop  offset="0" style="stop-color:#D1E4A5"/>
				<stop  offset="0.5" style="stop-color:#ACD479"/>
				<stop  offset="1" style="stop-color:#76B83F"/>
			</linearGradient>
			<path class="st23" d="M1395.9,607.3c0,0-3.9,10.3-4.4,15.9c-1.6,18.1,7.8,41.2,17.9,44.7c10.4,3.6,74,21.4,112.3,16l83,110.7
				l27.7-12.2l-64.9-113.9c0,0-12.5-19.6-22.8-24.2c-10.3-4.6-93.8-26.9-93.8-26.9l-12.9-18.8L1395.9,607.3z"/>
			<path class="st9" d="M1463.4,492.5c-4.6-8.5-9.3-15.2-9.3-15.2c-4.8-8.5-17.1-12.8-17.1-12.8s-4.1,0.1-8.8,0.3
				c-0.3,0.8-0.6,1.3-0.9,1.6c-1.8,1.3-12-0.4-18.5,4.1c-22,18.9-15.9,110.8-14.2,139.8l53.5,2c0,0,5.1-63.7,18.7-79.8
				C1476.3,521.3,1470.2,505.1,1463.4,492.5z"/>
			<path class="st8" d="M1433.2,433.4c0,0-3.7,26.4-6.3,32.9c-2.6,6.4,14.2,20.2,28.1,24.3c13.9,4.2-4.3-14.2-3.7-21.1
				c0.6-6.9,3.1-39.4,3.1-39.4L1433.2,433.4z"/>
			<path class="st12" d="M1453.7,439.5c0.4-5.4,0.7-9.3,0.7-9.3l-21.3,3.2c0,0-0.5,3.1-1.1,7.5
				C1440.7,446,1448.4,444.4,1453.7,439.5z"/>
			<path class="st8" d="M1439.8,385.2c0,0-8.4,1.9-13.6,9.8s-8.7,31.2,8.3,42.1s30.3-4.5,30.5-19.5
				C1465.3,402.6,1462.1,382.5,1439.8,385.2z"/>
			<path class="st8" d="M1469,412.9c-1.5,3.6-4.3,5.9-6.4,5s-2.6-4.5-1.2-8.1c1.5-3.6,4.3-5.9,6.4-5
				C1469.9,405.6,1470.5,409.3,1469,412.9z"/>
			<path class="st8" d="M1426,415.9c1.2,3.9,0.1,7.7-2.5,8.6c-2.6,0.8-5.8-1.6-7-5.6c-1.2-3.9-0.1-7.7,2.5-8.6
				C1421.6,409.5,1424.8,412,1426,415.9z"/>
			<g>
				<path class="st11" d="M1496.6,502.6c0,0,5.7,0.2,7.4,0c9.4-0.9,5.5,13,5.5,13s-4.6-4.5-6.4-4.5s-4.4,0.5-4.4,0.5L1496.6,502.6z"
					/>
				<path class="st3" d="M1528.4,595.3c0,0,3.9,6,8.2,3.3c4.3-2.7,11.8-7.9,13.2-4c1.4,3.9,1.1,7.2-0.4,8s-12.7,6.9-18.8,7.3
					c-6.1,0.4-11.1-5.3-11.1-5.3L1528.4,595.3z"/>
				<path class="st3" d="M1537.5,608.9c-0.2-4.8-1.1-10-3.7-14.5c-6.6-11.5-34.7-42.5-38.9-44.9c-4.2-2.4-1.2-11.7-1.2-11.7l-16.6-9
					l-8.7-4.7c0,0-19.6,30-21.1,32.8s1.2,12.1-0.8,17.8s0.1,36.7-2.7,40.1c-2.2,2.2-4.3,2.5-4.9,3.8c-0.3,0.6-0.7,1.6,0.1,2.6
					c2.3,2.9,13.8,0.5,13.8,0.5c0.1-0.2,4.8-6.8,4.1-10.8c-0.7-3.8,1.6-26.9,3.2-26.9c1.4,0,8,10.3,10.7,12.2l0,0
					c0.3,0.2,0.5,0.3,0.7,0.3c1.9,0,14.2,2.7,16.9,5.4c0.7,0.7,1,2.7,1,5.1c0,1.6-0.1,3.5-0.2,5.3c-0.3,3.4-0.7,7-1.1,9.3
					c2.9,0,5.9,0,8.8,0c2.4-4.3,7.5-7.3,13.4-7.3c5.5,0,10.4,2.7,12.9,6.6c4.9-0.3,6.8,2.1,11,1.7
					C1534.2,621.2,1537.6,610.8,1537.5,608.9z"/>
				<path class="st3" d="M1498.3,503.9c-1.8-1.8-4.4-2.5-7-2.1c-1.4,0.2-3.4,0.3-6.1,0.1c-6.1-0.6-12.4-0.1-16.3,3.9
					c-3.9,3.9-4.4,18,0,24.6s17,8.3,18.1,11.3s12,4.4,13.5,0.8c0,0,1.2,0.8,2.9,0.3c4.1-1.2,5.6-5.2,4.1-9.5
					c-1.4-4.3-7.5-13.2-6.4-21.2C1501.6,508.3,1500.1,505.6,1498.3,503.9z"/>
				<path class="st11" d="M1495.7,531c-0.7,0.7-0.7,1.9-0.1,2.7c1.3,1.5,3.5,3.9,5.1,4.9c2.4,1.4,4.7-4.5,4.7-7.1
					C1505.5,528.9,1500,526.6,1495.7,531z"/>
				<path class="st3" d="M1493.2,573.1c-0.1-1.3-1.1-2.3-2.4-2.2l0,0c-6.5,0.4-10.9,6.3-10.1,12.7c0,0.3,0,0.7,0,0.9
					c-0.2,1.1-2.2,4.9-4.2,8.8c3.9,1,7.8,1.9,11.6,2.9c2.8-4.9,5.7-9.5,5.7-9.5L1493.2,573.1z"/>
				<path class="st3" d="M1471.1,603.2c0,0-4.4,13.2-5.7,18.2c3.6,2,5.7-2,13.8,0.3c0.2-1.6,3.1-11.4,3.1-13.8
					c0-1.2,3.6-6.7,6.4-11.5c0.2-0.4,0-0.8-0.4-0.9c-3.5-1-8-2.8-11.5-3.8c-0.4-0.1-0.9,0.1-1.1,0.5
					C1473.3,597,1471.1,603.2,1471.1,603.2z"/>
				<path class="st3" d="M1462.2,620.2c0.9-1.9,3.4-4.1,7.2-4.1c3.8,0,9.8,5.6,9.8,5.6s-1.8,1.7-6.7,1.7
					C1467.6,623.5,1460.5,623.9,1462.2,620.2z"/>
				<path class="st3" d="M1484.4,619.4c0.9-1.9,3.4-4.1,7.2-4.1c1.4,0,3.2,0.8,4.8,1.8c2.6,1.6,1.5,5.6-1.5,5.6h-0.1
					C1489.8,622.7,1482.7,623.1,1484.4,619.4z"/>
				<path class="st3" d="M1519.9,619.4c1.1-1.9,4.1-4.1,8.7-4.1c1.7,0,3.8,0.8,5.7,1.8c3.1,1.6,1.8,5.6-1.8,5.6c-0.1,0-0.1,0-0.2,0
					C1526.4,622.7,1517.8,623.1,1519.9,619.4z"/>
				<path class="st11" d="M1481.9,506.8c-1.8-1.8-0.7-3.9,0.3-5.1c-5.1-0.1-10,0.8-13.3,4.1c-3.9,3.9-4.4,18,0,24.6
					c4,5.9,14.5,7.9,17.4,10.4c3-5.1-1.6-9.4-2.7-11.9c-1.1-2.4,5.4-8.5,6.2-13.3C1490.5,510.7,1484.6,509.5,1481.9,506.8z"/>
				<path class="st4" d="M1473.3,502.9c0,0-3.9,1.4-8.9-0.4c-4.9-1.8-9.9,7.1-9.9,7.1s4.6,9.9,8.2,12.3
					C1466.5,524.4,1473.3,502.9,1473.3,502.9z"/>
			</g>
			<path class="st8" d="M1536.1,587.2c0-2.2-6.7-8.5-10-7.5c-3.1,1-15.9,9-15.9,9l-56.3-13.2c0,0-14.2-32.4-15.6-60.3
				c-11.8,1.6-19.8,4.5-30,10.2c4.9,26.6,16.9,69.8,30.1,77.9c5.6,3.4,72.1-4.1,72.1-4.1s13.8,1.9,17.3,1
				C1541.9,596.3,1536.1,591.7,1536.1,587.2z"/>
			<path class="st11" d="M1438.7,485.4c-1.7-8.4-3.8-16.8-12.9-19.5c-5.6-1.7-12-0.1-16.5,3.6c-5.4,4.4-6.9,11.4-6.8,18.1
				c0.1,15.1,1.1,30.8,3.8,45.7c10.2-5.7,25.1-5,36.8-6.6C1444.3,513.3,1440.9,496.4,1438.7,485.4z"/>
		</g>
		<path class="st9" d="M982,438.1c-6,31.7-25,98.2-56,97.2c-1.5-43.4-3.6-80.7-6.6-92.5c-0.7-2.4-1.5-4.8-2.5-7.1
			c19.3,1.7,30.9-27.8,35.4-48.5c-4,13.2-12.9,34.3-24.7,41.3c-6.7,4-11.6,2-13.4,1.4C903,409,881.8,395,871.6,382.6
			c-8.1-10-2.9-49.8-0.9-62.4c-2.8,14.6-5.9,36.1-4.6,51.1c1.6,16.9,10.3,17.9,30.2,40.6c16,17.9,21.5,27.5,22.1,96
			c-1.2,0.3-2.8,0.5-4.4,0.6c-16.4,0.3-31.4-15.6-39.7-29.5c6.6,12.6,18.2,26.9,31.9,31.3c2.5,0.8,5.1,1.2,7.8,1.3
			c1.4,0,3-0.1,4.4-0.3c0.4,6,2.2,123.7,0.6,199.7c4.8,0.1,3.9-2.2,8.7-1.8c-0.2-20.6,0.9-97.6-1.3-165.2
			C962.5,542.6,977.7,475.6,982,438.1z"/>
		<g>
			<path class="st22" d="M849.3,334.2c7.4,5.9,18.4,4.5,18.4,4.5L841,317.2C841,317.2,841.9,328.3,849.3,334.2z"/>
			<path class="st24" d="M841,317.2l26.7,21.4c0,0-1-11-8.3-17C851.9,315.8,841,317.2,841,317.2z"/>
		</g>
		<g>
			<path class="st22" d="M973.4,530.3c9.5-0.4,16.8-8.7,16.8-8.7l-34.2,1.3C956,522.9,964,530.6,973.4,530.3z"/>
			<path class="st24" d="M956,522.9l34.2-1.3c0,0-8-7.7-17.4-7.4C963.4,514.6,956,522.9,956,522.9z"/>
		</g>
		<g>
			<path class="st22" d="M983.3,495.8c6.5-4.2,8.2-13,8.2-13l-23.4,15.1C968.1,497.9,976.9,500,983.3,495.8z"/>
			<path class="st24" d="M968.1,497.9l23.4-15.1c0,0-8.8-2.1-15.2,2.1C969.8,489.1,968.1,497.9,968.1,497.9z"/>
		</g>
		<g>
			<path class="st22" d="M949.9,494.5c2.7,7.2,10.9,10.8,10.9,10.8l-9.6-26.1C951.2,479.2,947.2,487.3,949.9,494.5z"/>
			<path class="st24" d="M951.2,479.2l9.6,26.1c0,0,4-8.1,1.3-15.3C959.5,482.8,951.2,479.2,951.2,479.2z"/>
		</g>
		<g>
			<path class="st22" d="M874.1,354.1c-5.8,4-7.1,12.2-7.1,12.2l20.9-14.6C887.9,351.7,879.8,350,874.1,354.1z"/>
			<path class="st24" d="M887.9,351.7L867,366.3c0,0,8.1,1.6,13.9-2.4C886.7,359.8,887.9,351.7,887.9,351.7z"/>
		</g>
		<g>
			<path class="st22" d="M954,412.5c-7-0.5-13.2,5-13.2,5l25.4,2C966.2,419.4,961,413,954,412.5z"/>
			<path class="st24" d="M966.2,419.4l-25.4-2c0,0,5.2,6.4,12.2,6.9C960.1,424.9,966.2,419.4,966.2,419.4z"/>
		</g>
		<g>
			<path class="st22" d="M878.9,492.5c-7-0.5-13.2,5-13.2,5l25.4,2C891.1,499.4,885.9,493,878.9,492.5z"/>
			<path class="st24" d="M891.1,499.4l-25.4-2c0,0,5.2,6.4,12.2,6.9C885,504.9,891.1,499.4,891.1,499.4z"/>
		</g>
		<g>
			<path class="st22" d="M892.1,485.4c-2.6-6.6-10.2-9.7-10.2-9.7l9.3,23.8C891.2,499.4,894.6,491.9,892.1,485.4z"/>
			<path class="st24" d="M891.2,499.4l-9.3-23.8c0,0-3.5,7.5-0.9,14C883.5,496.3,891.2,499.4,891.2,499.4z"/>
		</g>
		<g>
			<path class="st22" d="M942.3,403.5c-1.6-4.2-6.4-6.3-6.4-6.3l5.7,15.3C941.5,412.4,943.8,407.7,942.3,403.5z"/>
			<path class="st24" d="M941.5,412.4l-5.7-15.3c0,0-2.3,4.7-0.7,9C936.7,410.3,941.5,412.4,941.5,412.4z"/>
		</g>
		<g>
			<path class="st22" d="M857.9,369.4c-6.6-2.5-14,1-14,1l23.8,9.1C867.7,379.5,864.5,371.9,857.9,369.4z"/>
			<path class="st24" d="M867.7,379.5l-23.8-9.1c0,0,3.2,7.6,9.8,10.1C860.2,383.1,867.7,379.5,867.7,379.5z"/>
		</g>
		<path class="st22" d="M941.7,709.5h3.7V563.7c0-1-0.8-1.9-1.9-1.9l0,0c-1,0-1.9,0.8-1.9,1.9v145.8H941.7z"/>
		<path class="st3" d="M898.5,714.7c0,0,17.1-20.6,30.9-14.7c13.8,5.9,16-4.7,23.2-1.2s16.2,12.3,16.2,12.3L898.5,714.7z"/>
		<g>
			<path class="st3" d="M931.5,604.9c-3.9,0-8.5-0.9-13.4-3.5c-0.4-0.2-0.6-0.8-0.4-1.2c0.2-0.4,0.8-0.6,1.2-0.4
				c14.8,7.8,25.5-0.5,25.9-0.9c0.4-0.3,1-0.2,1.3,0.1c0.3,0.4,0.2,1-0.1,1.3C945.9,600.4,940.2,604.9,931.5,604.9z"/>
		</g>
		<g>
			<path class="st3" d="M919.1,601.6l-1.6-0.9c-1.2-0.7-11.8-7.1-12.2-12c-0.1-1.2,0.4-2.2,1.4-3c1.8-1.4,3.5-1.8,5.1-1.2
				c5.1,2,6.9,13.9,7.1,15.3L919.1,601.6z M910.3,586c-0.7,0-1.5,0.4-2.4,1.1c-0.5,0.4-0.7,0.9-0.7,1.5c0.2,2.9,6,7.2,9.6,9.5
				c-0.8-4.1-2.7-10.7-5.6-11.9C910.9,586,910.6,586,910.3,586z"/>
		</g>
		<g>
			<path class="st3" d="M907.8,612.5c-0.6,0-1.5-0.2-2.2-1.4c-0.6-0.9-0.7-1.9-0.3-2.9c1.4-3.9,9.9-6.9,10.9-7.2l2.2-0.7l-1.1,2
				C916.3,604,911.4,612.4,907.8,612.5L907.8,612.5z M914.4,603.6c-2.8,1.2-6.6,3.2-7.4,5.2c-0.2,0.5-0.1,0.9,0.1,1.4
				c0.3,0.5,0.5,0.5,0.7,0.5C909.4,610.7,912.2,607,914.4,603.6z"/>
		</g>
		<path class="st25" d="M919.9,600.2c0,0.9-0.7,1.5-1.5,1.5c-0.9,0-1.5-0.7-1.5-1.5c0-0.9,0.7-1.5,1.5-1.5S919.9,599.4,919.9,600.2z
			"/>
		<linearGradient id="SVGID_10_" gradientUnits="userSpaceOnUse" x1="305.7" y1="1226.0499" x2="355.8" y2="1226.0499">
			<stop  offset="0" style="stop-color:#D1E4A5"/>
			<stop  offset="0.5" style="stop-color:#ACD479"/>
			<stop  offset="1" style="stop-color:#76B83F"/>
		</linearGradient>
		<polygon class="st26" points="311.6,1220 317.1,1224.6 323.7,1221.6 329.4,1227.2 335.5,1221.8 342.2,1227.9 348.4,1223.6 
			355.8,1228.3 354,1231.2 348.5,1227.6 342,1232.1 335.5,1226.3 329.3,1231.8 323,1225.6 316.5,1228.6 311.5,1224.3 307.7,1227.1 
			305.7,1224.4 		"/>
		<linearGradient id="SVGID_11_" gradientUnits="userSpaceOnUse" x1="1018.2" y1="374.05" x2="1096.8" y2="374.05">
			<stop  offset="0" style="stop-color:#D1E4A5"/>
			<stop  offset="0.5" style="stop-color:#ACD479"/>
			<stop  offset="1" style="stop-color:#76B83F"/>
		</linearGradient>
		<polygon class="st27" points="1092.9,362.7 1070.9,357.6 1065,373.3 1043.1,369 1035.2,383.3 1018.3,382.2 1018.2,389 
			1040.8,390.5 1048.3,376.9 1071.1,381.3 1076.9,365.9 1096.8,370.5 		"/>
		<linearGradient id="SVGID_12_" gradientUnits="userSpaceOnUse" x1="1718.3939" y1="706.3663" x2="1768.9047" y2="706.3663">
			<stop  offset="0" style="stop-color:#F37F7B"/>
			<stop  offset="0.5" style="stop-color:#ED3D57"/>
			<stop  offset="1" style="stop-color:#DD1E47"/>
		</linearGradient>
		<path class="st28" d="M1718.7,718.7l8-13.4l-6.6-14.2c-0.7-1.6,0.7-3.4,2.4-3l15.2,3.4l11.4-10.6c1.3-1.2,3.4-0.4,3.6,1.4
			l1.5,15.5l13.6,7.6c1.6,0.9,1.4,3.1-0.2,3.8l-14.3,6.2l-3,15.3c-0.3,1.7-2.5,2.3-3.7,1l-10.3-11.7l-15.5,1.9
			C1719,722.1,1717.8,720.2,1718.7,718.7z"/>
		<g>
			<linearGradient id="SVGID_13_" gradientUnits="userSpaceOnUse" x1="385.2249" y1="1102.9602" x2="436.1367" y2="1102.9602">
				<stop  offset="0" style="stop-color:#F37F7B"/>
				<stop  offset="0.5" style="stop-color:#ED3D57"/>
				<stop  offset="1" style="stop-color:#DD1E47"/>
			</linearGradient>
			<path class="st29" d="M408.6,1091.8c0,0,2.5-7,10.7-9.4c7.4-2.2,14.2,2.1,16.2,8.9c2.4,7.9-1.7,19.3-17.2,32.8
				c-20.4-2.7-30.1-10-32.5-17.8c-2-6.8,1.3-14.2,8.6-16.4C402.7,1087.4,408.6,1091.8,408.6,1091.8z"/>
			<g>
				<path class="st30" d="M348.7,1113.2c7.5-1,13.5-2.2,19.3-3.6c1.9-0.5,5.4-0.7,6.3-2.7c0.5-1,0.3-2.1-0.7-2.8
					c-1.8-1.2-4.5,0.1-6.5,0.6c-5.9,1.4-12.6,2.8-19.5,3.8c-1.3,0.2-2.1,1.7-1.8,2.9C346.1,1112.7,347.4,1113.4,348.7,1113.2
					L348.7,1113.2z"/>
			</g>
			<g>
				<path class="st30" d="M450.8,1104.2c2.8-0.6,5.6-1.3,8.5-2c2.7-0.7,6-1,8.3-2.5c1.7-1.1,1.3-3.7-0.9-3.9
					c-2.8-0.3-5.8,0.9-8.5,1.6c-2.8,0.7-5.6,1.4-8.4,2.1C446.8,1100.3,447.8,1104.9,450.8,1104.2L450.8,1104.2z"/>
			</g>
			<g>
				<path class="st30" d="M383.7,1143.8c2.1-6.8,6-9.7,8.7-12.8c1.5-1.6-0.1-4-2.2-3.1c-5.7,2.4-9.4,8.9-11.1,14.5
					C378.2,1145.4,382.8,1146.8,383.7,1143.8L383.7,1143.8z"/>
			</g>
			<g>
				<path class="st30" d="M419.9,1150.8c-0.8-2.9-1.1-5.8-0.7-8.8c0.3-1.8,2.5-7.3-1-7.3c-3.3-0.1-3.8,5.5-4,7.8
					c-0.3,3.1,0,6.4,0.9,9.4C416,1154.8,420.7,1153.8,419.9,1150.8L419.9,1150.8z"/>
			</g>
			<g>
				<path class="st30" d="M439.5,1127.2c1.8,0.8,3.7,1.5,5.5,2.3s3.7,2,5.7,1.1c1.1-0.5,1.3-1.8,0.9-2.8c-0.7-1.8-3.5-2.4-5.2-3.1
					c-1.8-0.7-3.7-1.5-5.5-2.2c-1.2-0.5-2.7,0.5-3.1,1.6C437.4,1125.5,438.3,1126.7,439.5,1127.2L439.5,1127.2z"/>
			</g>
			<g>
				<path class="st30" d="M385,1079.2c-9.5-13-9.4-13.1-10.9-14s-3.6,0.5-3.2,2.3s0.4,1.5,10.4,15.1c0.8,1.1,2.6,1,3.5,0.1
					C385.9,1081.7,385.8,1080.3,385,1079.2L385,1079.2z"/>
			</g>
			<g>
				<path class="st30" d="M410.7,1072.8c0.4-2.6,0.4-5.3,0.2-7.9c-0.2-2.5-0.2-6.2-2.7-7.4c-0.6-0.2-1.4,0-1.8,0.4
					c-1.7,1.8-0.5,5-0.3,7.2c0.2,2.5,0.1,5-0.1,7.4c-0.1,1.3,1.1,2.4,2.3,2.5C409.6,1075.2,410.5,1074.1,410.7,1072.8L410.7,1072.8z
					"/>
			</g>
			<g>
				<path class="st30" d="M447.6,1066.4c0.2-1.2-1-2-2-2.2c-2.1-0.3-4.2,2.2-5.6,3.6c-1.6,1.6-3.1,3.3-4.4,5.1
					c-0.8,1.1-0.3,2.7,0.8,3.3c1.2,0.8,2.5,0.2,3.3-0.8C445,1068.8,447.2,1069.3,447.6,1066.4z"/>
			</g>
		</g>
		<path class="st9" d="M1907.4,898.8c-2.4,18.5,16.9,33.2,34.1,32.1c19-1.3,35.1-16.8,37.8-35.5c3-20.2-9.1-36.3-27.9-37.8
			c-18.3-1.4-29.9,14.8-24.7,31.2c3.8,11.8,14.5,16.1,19.9,12.9c4.2-2.5,4-8.9-1.1-10c-2-0.5-4.2,0.7-5.2,2.3
			c-4.5-1.8-8.7-9.9-5.8-18.7c3.7-11.2,17.9-11.9,26.7-6.6c11.2,6.7,13,21,8.9,32.4c-4.3,12-16.1,21.4-28.9,22.4
			c-14.5,1-27.3-10.1-28.5-24.6C1912.4,895.4,1907.8,895.5,1907.4,898.8z"/>
		<linearGradient id="SVGID_14_" gradientUnits="userSpaceOnUse" x1="419.1007" y1="1295.5961" x2="456.3233" y2="1295.5961">
			<stop  offset="0" style="stop-color:#D1E4A5"/>
			<stop  offset="0.5" style="stop-color:#ACD479"/>
			<stop  offset="1" style="stop-color:#76B83F"/>
		</linearGradient>
		<path class="st31" d="M419.2,1298c-1.2,9.5,8.7,17,17.5,16.4c9.7-0.7,18-8.6,19.4-18.2c1.5-10.3-4.7-18.6-14.3-19.4
			c-9.4-0.7-15.3,7.6-12.6,16c1.9,6,7.4,8.3,10.2,6.6c2.2-1.3,2-4.6-0.6-5.1c-1-0.2-2.1,0.4-2.7,1.2c-2.3-0.9-4.5-5.1-3-9.6
			c1.9-5.7,9.1-6.1,13.7-3.4c5.7,3.4,6.6,10.8,4.5,16.6c-2.2,6.1-8.2,11-14.8,11.4c-7.4,0.5-14-5.2-14.6-12.6
			C421.8,1296.3,419.5,1296.3,419.2,1298z"/>
		<path class="st3" d="M464.7,886.9l-0.1-17.8l-14.7-10c-1.7-1.1-1.3-3.7,0.6-4.3l16.9-5.6l4.9-17.1c0.6-1.9,3.1-2.4,4.3-0.8
			l10.6,14.3L505,845c2-0.1,3.2,2.2,2.1,3.9l-10.3,14.5l6.1,16.7c0.7,1.9-1.1,3.8-3,3.2l-16.9-5.4l-14,10.9
			C467,890.1,464.7,888.9,464.7,886.9z"/>
		<g>
			<linearGradient id="SVGID_15_" gradientUnits="userSpaceOnUse" x1="1752.5598" y1="1105.4" x2="1782.2402" y2="1105.4">
				<stop  offset="5.618000e-03" style="stop-color:#D7F0FC"/>
				<stop  offset="0.4494" style="stop-color:#ABE1FA"/>
				<stop  offset="1" style="stop-color:#96CFF1"/>
			</linearGradient>
			<path class="st32" d="M1752.6,1106.4c-0.6-8.2,5.6-15.3,13.8-15.8c8.2-0.6,15.3,5.6,15.8,13.8c0.6,8.2-5.6,15.3-13.8,15.8
				C1760.2,1120.8,1753.1,1114.6,1752.6,1106.4z"/>
			<g>
				<linearGradient id="SVGID_16_" gradientUnits="userSpaceOnUse" x1="1768.1946" y1="1143.0281" x2="1777.8264" y2="1143.0281">
					<stop  offset="5.618000e-03" style="stop-color:#D7F0FC"/>
					<stop  offset="0.4494" style="stop-color:#ABE1FA"/>
					<stop  offset="1" style="stop-color:#96CFF1"/>
				</linearGradient>
				<path class="st33" d="M1777.7,1148.3c-0.9-4.3-1.4-8.9-2.9-13.1c-1.3-3.6-6.8-2.5-6.6,1.4c0.3,4.7,1.8,9.5,2.8,14.1
					c0.4,1.9,2.9,2.7,4.5,2.2C1777.6,1152.1,1778.1,1150.2,1777.7,1148.3L1777.7,1148.3z"/>
			</g>
			<g>
				<linearGradient id="SVGID_17_" gradientUnits="userSpaceOnUse" x1="1783.887" y1="1127.9922" x2="1805.1383" y2="1127.9922">
					<stop  offset="5.618000e-03" style="stop-color:#D7F0FC"/>
					<stop  offset="0.4494" style="stop-color:#ABE1FA"/>
					<stop  offset="1" style="stop-color:#96CFF1"/>
				</linearGradient>
				<path class="st34" d="M1803.2,1129.9c-4.9-2.9-9.2-6.5-13.8-9.9c-3.5-2.7-7.4,1.9-4.5,5.1c4.2,4.6,9.7,8.1,15,11.3
					c1.7,1,4,0,4.8-1.6C1805.7,1132.9,1804.9,1130.9,1803.2,1129.9L1803.2,1129.9z"/>
			</g>
			<g>
				<linearGradient id="SVGID_18_" gradientUnits="userSpaceOnUse" x1="1792.8917" y1="1105.2106" x2="1813.7345" y2="1105.2106">
					<stop  offset="5.618000e-03" style="stop-color:#D7F0FC"/>
					<stop  offset="0.4494" style="stop-color:#ABE1FA"/>
					<stop  offset="1" style="stop-color:#96CFF1"/>
				</linearGradient>
				<path class="st35" d="M1793.9,1103.4c-1.1,0.9-1.3,2.2-0.6,3.4c1.7,3,5.9,2.9,8.9,2.8c3.1-0.1,6.3-0.7,9.2-1.8
					c4.4-1.5,2-8.3-2.4-6.8C1800.4,1104,1797.1,1100.8,1793.9,1103.4z"/>
			</g>
			<g>
				<linearGradient id="SVGID_19_" gradientUnits="userSpaceOnUse" x1="1781.7343" y1="1081.1855" x2="1795.3156" y2="1081.1855">
					<stop  offset="5.618000e-03" style="stop-color:#D7F0FC"/>
					<stop  offset="0.4494" style="stop-color:#ABE1FA"/>
					<stop  offset="1" style="stop-color:#96CFF1"/>
				</linearGradient>
				<path class="st36" d="M1789.1,1074.5c-4.3,6.3-7.9,8.5-7.3,11.9c0.3,2,1.9,3,3.9,2.6c2.3-0.5,3.6-3,5-4.7
					c1.3-1.7,2.6-3.3,3.8-5.1c1.1-1.6,1.2-3.7-0.4-5.1C1792.9,1073,1790.2,1072.9,1789.1,1074.5L1789.1,1074.5z"/>
			</g>
			<g>
				<linearGradient id="SVGID_20_" gradientUnits="userSpaceOnUse" x1="1763.625" y1="1071.9186" x2="1772.5131" y2="1071.9186">
					<stop  offset="5.618000e-03" style="stop-color:#D7F0FC"/>
					<stop  offset="0.4494" style="stop-color:#ABE1FA"/>
					<stop  offset="1" style="stop-color:#96CFF1"/>
				</linearGradient>
				<path class="st37" d="M1772.3,1073.4c-1.4-3.8-1.7-5.2-3.5-7c-1.6-1.5-4.8-0.6-5.1,1.7c-0.3,2.7,0.3,3.6,1.8,7.7
					c0.7,1.8,2.7,2.8,4.6,2.2C1771.9,1077.3,1773,1075.2,1772.3,1073.4L1772.3,1073.4z"/>
			</g>
			<g>
				<linearGradient id="SVGID_21_" gradientUnits="userSpaceOnUse" x1="1741.4634" y1="1082.8438" x2="1755.3212" y2="1082.8438">
					<stop  offset="5.618000e-03" style="stop-color:#D7F0FC"/>
					<stop  offset="0.4494" style="stop-color:#ABE1FA"/>
					<stop  offset="1" style="stop-color:#96CFF1"/>
				</linearGradient>
				<path class="st38" d="M1754.1,1082.7c-6.2-4.7-7.5-6.1-9.9-5.8c-1.4,0.2-3,1.5-2.7,3.1c0.6,3,2.3,3.8,8,8c1.5,1.1,3.6,1.2,5-0.3
					C1755.7,1086.3,1755.6,1083.8,1754.1,1082.7L1754.1,1082.7z"/>
			</g>
			<g>
				<linearGradient id="SVGID_22_" gradientUnits="userSpaceOnUse" x1="1727.6647" y1="1105.6168" x2="1749.517" y2="1105.6168">
					<stop  offset="5.618000e-03" style="stop-color:#D7F0FC"/>
					<stop  offset="0.4494" style="stop-color:#ABE1FA"/>
					<stop  offset="1" style="stop-color:#96CFF1"/>
				</linearGradient>
				<path class="st39" d="M1729.1,1104.4c-2.5,1.3-1.5,5.5,1.2,5.9c2.5,0.3,3.5-0.1,15.9-2.3c1.9-0.3,3.5-1.7,3.3-3.8
					c-0.1-1.8-1.9-3.7-3.8-3.3C1732.9,1103.1,1731.6,1103.1,1729.1,1104.4z"/>
			</g>
			<g>
				<linearGradient id="SVGID_23_" gradientUnits="userSpaceOnUse" x1="1737.7386" y1="1130.9121" x2="1754.8711" y2="1130.9121">
					<stop  offset="5.618000e-03" style="stop-color:#D7F0FC"/>
					<stop  offset="0.4494" style="stop-color:#ABE1FA"/>
					<stop  offset="1" style="stop-color:#96CFF1"/>
				</linearGradient>
				<path class="st40" d="M1748.5,1124.6c-6.8,6.6-7.8,5.4-10.4,9.4c-1.2,1.8,0.8,4.8,2.9,4.4c2.7-0.5,3.5-1,7-3.8
					c2.1-1.6,4.1-3.4,6-5.2c1.4-1.4,1-3.9-0.4-5.1C1752,1122.9,1749.9,1123.2,1748.5,1124.6L1748.5,1124.6z"/>
			</g>
		</g>
		<path class="st41" d="M588.1,1701.7h14.5V930.6c0-4-3.3-7.3-7.3-7.3l0,0c-4,0-7.3,3.3-7.3,7.3L588.1,1701.7L588.1,1701.7z"/>
		<path class="st41" d="M686.2,1701.7h14.5V917.5c0-4-3.2-7.3-7.3-7.3l0,0c-4,0-7.3,3.3-7.3,7.3L686.2,1701.7L686.2,1701.7z"/>
		<rect x="598.4" y="1006.9" class="st41" width="99.9" height="8.7"/>
		<rect x="598.4" y="1123.5" class="st41" width="99.9" height="8.7"/>
		<rect x="598.4" y="1240.1" class="st41" width="99.9" height="8.7"/>
		<rect x="598.4" y="1356.7" class="st41" width="99.9" height="8.7"/>
		<g>
			<path class="st11" d="M626.3,1430.7h-63.1c-5.2,0-9.4,4.2-9.4,9.4v35.4h10.5V1442h61.9L626.3,1430.7L626.3,1430.7z"/>
			<path class="st8" d="M638.3,1406.8l-19.5-20.6c0,0-20.9,11.5-45.3,22.5c-6.7-11.7-17.6-50.1-18.2-51.9
				c-0.6-1.8,12.8-24.9,9.8-25.5s-6.9,12.3-10.1,11c-3.2-1.3-11.3-31.2-13.2-29.6c-3.6,3.1,4.3,18.6,2.4,19.7
				c-1.9,1.1-6.7-17.2-10.3-16.4c-3.6,0.8,6.1,16.7,5.1,18.2c-1.1,1.5-11.3-13.4-13.4-10c-1.1,1.9,9.4,13,7.2,14.3
				c-2.2,1.2-11.7-5.8-12.8-3.5s8.9,4.6,11.7,10.4s7.8,8,9.5,18.9s6.3,69,18.1,73.7C569.6,1442.1,638.3,1406.8,638.3,1406.8z"/>
			<g>
				<path class="st8" d="M818.6,1674.8c1.5-11,1.4-31.2,0.6-52.6c9.6-0.5,17.7-1.1,27.2-1.7c-4,27.3-6.7,55.4-6.7,55.4l0.7,5.4
					l0.4,16l-54.1,0.4c0,0,11.4-5.1,27.4-15.1C815.2,1681.9,817.9,1679.5,818.6,1674.8z"/>
				<path class="st17" d="M842.2,1700.7l-57.1,0.7c-2.1-0.2-2.6-1.9-1.9-2.9c1.5-2.1,8-3.7,15.3-7.1c12.9,1.3,39.7-7.4,41.8-10.4
					C841.6,1686.9,843.4,1700.4,842.2,1700.7z"/>
			</g>
			<g>
				<path class="st8" d="M915.6,1663.5c-4.5-10.1-15.2-27.3-27.2-45c7.9-5.5,15.7-11,23.5-16.6c11,25.3,22.3,51.3,22.3,51.3l3.4,4.2
					l8.7,13.4l-45.8,28.9c0,0,7-10.3,15.3-27.2C916.4,1671.3,917.5,1667.9,915.6,1663.5z"/>
				<path class="st17" d="M948.6,1674.2l-47.5,29.5c-1.9,0.9-3.2-0.2-3.1-1.5c0.1-2.6,4.9-7.3,9.3-14.1c11.6-5.6,29.7-27.4,29.9-31
					C941.4,1661.6,949.5,1673.4,948.6,1674.2z"/>
			</g>
			<path class="st41" d="M893.3,1217.7c4.2-20.6-9-41.1-27.7-48.8c0.1-11.7-3.7-26.6-11.7-34.7c-15.8-15.9-46-21.4-57.6-1.2
				c-15.4,8.7-27.5,27.5-22.9,44.7c-14.9,15.4-9.2,43.3,12.5,56.5c-0.3,17.3,8.8,34.5,23.9,41.9c3.6,1.8,9.3,4.3,10,5
				c-0.9-0.9,11.2,33,49,17.5C907.4,1282.8,918.4,1238.3,893.3,1217.7z"/>
			<path class="st22" d="M817.6,1659.3c4.7-26-11.6-90.5-21.5-118.8c-10.3-29.5-16.9-154.2-16.9-154.2l11.7-13.7l47.8-2.9
				c0,0-20.3,62.5-20.3,83.9s9.9,76.9,21.5,105.7c10.7,26.6,6.3,82.4,3,100.7C834.2,1661.5,826,1661,817.6,1659.3z"/>
			<linearGradient id="SVGID_24_" gradientUnits="userSpaceOnUse" x1="779" y1="1511.6499" x2="931.4" y2="1511.6499">
				<stop  offset="0" style="stop-color:#D1E4A5"/>
				<stop  offset="0.5" style="stop-color:#ACD479"/>
				<stop  offset="1" style="stop-color:#76B83F"/>
			</linearGradient>
			<path class="st42" d="M850.7,1375.6c2.2,2.2,15,17.4,15,28s-24.2,106.3-18.4,112.1c5.8,5.8,27.3,20.3,41,40.5
				c11.6,17,38.1,66.3,43.1,78c-10,6.9-18.7,10.1-28.7,13.5c-1.6-8.7-79.9-95-88.8-113c-8.9-18-13.8-100.5-18.3-111.5
				s-16.6-38.8-16.6-38.8L850.7,1375.6z"/>
			<path class="st8" d="M781,1305c0,0-29.5,33.7-62.2,46.3c-5.1,2-9.5,5.9-9.5,5.9c0,3.4,6.1,0.9,6.1,0.9s-2.1,3.3-1,7.4
				s8.2,1.4,12.1,1.4c1.8,0,10.9-10.2,23.2-16.2c14.5-7.1,31.7-14,33.8-16.1C787.4,1330.8,782.2,1303.8,781,1305z"/>
			<path class="st11" d="M841,1210.3c0,0-29.7-3-45.2,6.9s-25.4,45.1-25.4,60.1s11.2,94.1,6.9,109.1c0,0,49.1-2.1,65.9-2.1
				c16.8,0,20.2-6.4,20.2-6.4s-34.9-34.4-34.9-49.4C828.6,1313.4,841,1210.3,841,1210.3z"/>
			<g>
				<path class="st11" d="M435.6,1615.3v51.5h5.6V1620H478v16.1c-14.3,1.5-25.4,14.7-25.4,30.8c0,17.1,12.6,30.9,28.2,30.9
					s28.2-13.8,28.2-30.9c0-16-11.2-29.2-25.4-30.8V1620h7.7v-6.1h-7.7v-18.5h7.7v-6.1h-7.7v-20.6h101v-9.2h-55.8V1507
					c0-14,12.9-29.7,30.1-29.7h48v-9.2h-48c-20.5,0-38.5,18.1-38.5,38.8v52.4h-36.8V1530H478v59.2h-18.7
					C446.2,1589.2,435.6,1600.9,435.6,1615.3z M478,1613.9h-36.9c0.7-10.3,8.6-18.5,18.2-18.5H478V1613.9z"/>
				<path class="st43" d="M457.4,1623.4l1.1,19.9c0.4,2.5,2,8.7,2,11c0,8.6-38.3-7.3-29.7-11.1c0.8-0.3,5.2-5.1,6.3-7.8
					c2-4.9,2.8-14.4,2.8-14.4L457.4,1623.4z"/>
				<path class="st11" d="M431,1643.1c0,0,9,2.6,13.6,3.3c4.6,0.7,10.7-4.9,13.9-3.4c3.6,1.6,3.8,16.8,3.8,16.8s-48.2,1.6-62.1-0.5
					C394.6,1658.5,412.6,1649.2,431,1643.1z"/>
				<g>
					<path class="st11" d="M649.2,1580.9h10.6v-201.6c0-6.8,6.7-12.3,14.8-12.3h95.2c2.5,0,4.6-2,4.6-4.4l0,0c0-2.4-2.1-4.4-4.6-4.4
						h-95.2c-14,0-25.4,9.5-25.4,21.1L649.2,1580.9L649.2,1580.9z"/>
				</g>
				<g>
					<path class="st11" d="M599.6,1538.6c35.3,0,63.9,28.9,63.9,64.4s-28.6,64.4-63.9,64.4c-35.3,0-63.9-28.9-63.9-64.4
						S564.3,1538.6,599.6,1538.6z"/>
					<path class="st11" d="M521.8,1603.1c0,43.3,34.8,78.5,77.8,78.5c42.9,0,77.8-35.1,77.8-78.5s-34.8-78.5-77.8-78.5
						C556.7,1524.6,521.8,1559.8,521.8,1603.1z M529.2,1603.1c0-39.2,31.5-71,70.4-71s70.4,31.8,70.4,71s-31.5,71-70.4,71
						S529.2,1642.3,529.2,1603.1z"/>
				</g>
				<rect x="650.7" y="1392.6" class="st11" width="31.2" height="121.1"/>
				<g>
					<path class="st11" d="M548.2,1589.2h-26.4c-14.2,0-25.8,11.7-25.8,26.1v51.5h6v-51.5c0-11,8.9-20,19.8-20h26.4V1589.2z"/>
				</g>
				<rect x="455" y="1521.4" class="st11" width="82.2" height="14.1"/>
				<g>
					<rect x="498.9" y="1613.9" class="st11" width="48.8" height="6.1"/>
				</g>
				<g>
					<rect x="545" y="1559.4" class="st11" width="112.7" height="9.2"/>
				</g>
				<rect x="535.2" y="1521.2" class="st11" width="146.7" height="14.3"/>
				<g>
					<path class="st11" d="M677.4,1591.7h9.1v-201.6c0-6.8,5.7-12.3,12.7-12.3h85.6v-8.8h-85.6c-12,0-21.8,9.5-21.8,21.1V1591.7z"/>
				</g>
				<path class="st4" d="M511,1666.8c0,17.1,15.2,30.9,34.1,30.9c18.8,0,34.1-13.8,34.1-30.9s-15.2-30.9-34.1-30.9
					S511,1649.7,511,1666.8z"/>
				<path class="st11" d="M524.3,1666.8c0,10.4,9.3,18.8,20.7,18.8c11.5,0,20.7-8.4,20.7-18.8s-9.3-18.8-20.7-18.8
					S524.3,1656.4,524.3,1666.8z"/>
				<path class="st44" d="M462,1468.2c9.8-9.8,147.1-5.1,147.1-5.1s-116.3,28.4-123.1,32.1c-6.8,3.7-32.1,128.6-32.1,130.2
					c-7-1.7-11.3-0.4-18.4-1.9C436.7,1601.8,446.1,1484,462,1468.2z"/>
				<path class="st45" d="M475.4,1624l1.1,19.9c0.4,2.5,2,8.7,2,11c0,8.6-38.3-7.3-29.7-11.1c0.8-0.3,6.1-4.9,6.3-7.8
					c0.4-4.5,0.2-11.7,0.2-11.7L475.4,1624z"/>
				<path class="st17" d="M448.9,1643.7c0,0,9,2.6,13.6,3.3c4.6,0.7,10.7-4.9,13.9-3.4c3.6,1.6,3.8,16.8,3.8,16.8
					s-48.2,1.6-62.1-0.4C412.5,1659.1,430.5,1649.8,448.9,1643.7z"/>
				<path class="st30" d="M630.5,1491.2c0,0-1.2,31.2-11.6,31.5c-10.4,0.4-76.9,1.9-114.4-1.5l-25.2,111.4l-29.6-2.9
					c0,0,8.9-74.4,12.1-102.7c3.1-27.9,12.1-51.2,27.9-51.8c15.7-0.6,119.3-16.6,119.3-16.6L630.5,1491.2z"/>
				<linearGradient id="SVGID_25_" gradientUnits="userSpaceOnUse" x1="563.5" y1="1432.34" x2="673.1163" y2="1432.34">
					<stop  offset="0" style="stop-color:#D1E4A5"/>
					<stop  offset="0.5" style="stop-color:#ACD479"/>
					<stop  offset="1" style="stop-color:#76B83F"/>
				</linearGradient>
				<path class="st46" d="M658.4,1345.8c0,0,16.8,4.3,14.5,37.1c-2.3,32.8-20.4,132.1-54,139.9s-55.4-62.9-55.4-62.9s21.2-7,30-39.8
					c6.1-22.8,22.5-74.1,26.6-76.6C630.3,1337.4,658.4,1345.8,658.4,1345.8z"/>
				<linearGradient id="SVGID_26_" gradientUnits="userSpaceOnUse" x1="588.1" y1="1517.3" x2="681.9999" y2="1517.3">
					<stop  offset="5.618000e-03" style="stop-color:#D7F0FC"/>
					<stop  offset="0.4494" style="stop-color:#ABE1FA"/>
					<stop  offset="1" style="stop-color:#96CFF1"/>
				</linearGradient>
				<path class="st47" d="M588.1,1566.5h9.1V1507c0-14,14-29.7,32.7-29.7H682v-9.2h-52.1c-22.2,0-41.8,18.1-41.8,38.8V1566.5z"/>
				<ellipse class="st4" cx="681.9" cy="1611.6" rx="73.3" ry="74"/>
				<path class="st11" d="M592.6,1611.6c0,49.8,40,90.1,89.3,90.1s89.3-40.3,89.3-90.1c0-49.8-40-90.1-89.3-90.1
					S592.6,1561.8,592.6,1611.6z M601.1,1611.6c0-45.1,36.2-81.6,80.9-81.6s80.9,36.5,80.9,81.6s-36.2,81.6-80.9,81.6
					S601.1,1656.6,601.1,1611.6z"/>
				<path class="st11" d="M621.4,1611.6c0,33.7,27.1,61,60.5,61s60.5-27.3,60.5-61s-27.1-61-60.5-61S621.4,1577.9,621.4,1611.6z"/>
				<path class="st9" d="M668.3,1611.6c0,7.6,6.1,13.7,13.6,13.7s13.6-6.1,13.6-13.7s-6.1-13.7-13.6-13.7
					C674.4,1597.9,668.3,1604,668.3,1611.6z"/>
				<rect x="412.1" y="1660.1" class="st4" width="92.4" height="16"/>
				<rect x="452.1" y="1660.1" class="st4" width="52.4" height="16"/>
				<g>
					<rect x="542" y="1535.4" class="st9" width="6.1" height="140.8"/>
				</g>
				<path class="st11" d="M541.5,1668.6c0,2.1,1.7,3.8,3.7,3.8c2.1,0,3.7-1.7,3.7-3.8c0-2.1-1.7-3.8-3.7-3.8
					C543.1,1664.8,541.5,1666.5,541.5,1668.6z"/>
				<g>
					<path class="st48" d="M648.2,1258c0,0,11.8-8,16.7,6c0-0.1,4.2-0.1,4.7,0.1c2.4,0.8,4.8,3.3,6.9,4.7
						c7.7,4.9,11.2,14.5,11.6,23.3c0.5,10.7-3.9,18.4-10.9,26.1c-2.1,2.3-4.3,4.5-7,5.9c-3.3,1.7-5.8,0.4-8.9,1.1
						c-2.6,0.6-3.5,3.4-6.5,2.4c-4.3-1.4-8.7-6.7-14-5.9c-5.3,0.8-17.5-4-17.5-4c-15.7-6.1-5.1-36.4-2.1-47.2
						C624.2,1260.3,638.6,1254.3,648.2,1258z"/>
					<path class="st8" d="M634.1,1326.9L630,1338l-2.2,6.2c0,0-0.2,11.1,2.4,14c4.5,5,22.8-13.4,22.8-13.4l5.8-34.9L634.1,1326.9z"
						/>
					<path class="st12" d="M657,1321.2c-7,10.8-19,15.8-27,16.9l4.1-11.2l24.8-17L657,1321.2z"/>
					<path class="st8" d="M654.1,1274c-9.3-5.7-21.6-1.4-25.4,8.7c-1.7,4.4-3.5,9.9-5,16.1c-3.6,14.9,1,31.2,7.8,32.7
						s27.7-4,33.1-25.2C667.8,1293.3,663.9,1279.9,654.1,1274z"/>
					<path class="st8" d="M659.1,1306.9c-0.7,3.3,0.9,6.5,3.6,7.1c2.7,0.6,5.5-1.6,6.2-4.9s-0.9-6.5-3.6-7.1
						C662.6,1301.4,659.9,1303.6,659.1,1306.9z"/>
					<path class="st48" d="M638.1,1313.1c0,0,9,2.9,9.7,6.2c0.7,3.3-0.4,8-4.8,11.7c-4.4,3.7-13.8,1.4-16.3-0.6
						c-2.6-2-4.5-10.5-2-15.3C627.3,1310.4,638.1,1313.1,638.1,1313.1z"/>
					<path class="st8" d="M641.1,1320c0,0-0.1,3.7-1.3,4.3c-1.2,0.6-2.7,1.2-4.1,1.3c-2.3,0.2-4.3-0.7-5.5-2.5
						c-0.1-0.2-0.2-0.3-0.3-0.5c-0.9-1.8-1.1-5.1-1.1-5.1s3.8-0.9,6-0.5C637,1317.4,641.1,1320,641.1,1320z"/>
				</g>
			</g>
			<path class="st8" d="M738,1362.8c3.5-3.5,20-9,32.5-18c5.5-4,16.1-9.2,26.5-15c7.5,4.2,14.4,9.4,19.5,15.7
				c-18.7,8.6-39,17.2-42,20.3c-5.8,5.8-15.9,18.9-18.3,18.9c-2.4,0-20.3-5.3-23-7.9C730.3,1374.1,734.4,1366.3,738,1362.8z"/>
			<path class="st30" d="M796.9,1329.8c13-7.2,25.6-15.1,26.9-22.2c2.4-12.7-8.4-67.4-2.4-78s19.6-19.3,19.6-19.3
				c2.2,0,9.9,4.7,12,14.2c2.2,9.5-1.7,94.5-3.9,102.2c-1,3.6-15.7,18.1-32.3,25.7C811.8,1346.1,804.5,1334,796.9,1329.8z"/>
			<path class="st8" d="M662.8,1444.5l-51.9,13.6c0,0-15.3,11-22.1,13.2c-6.9,2.2-15.3,9.7-13.6,12.1c1.6,2.3,10.3-5.6,11.7-5.3
				c1.4,0.2-5.1,9.6-6.1,15.7c-1.1,6.1-3.2,12.1,0.4,11.6c3.5-0.5,6.1-14.3,6.1-14.3s5.4-10.4,6.3-9.2c0.9,1.2-3.6,8.4-3.6,8.4
				s-1.1,7.7-1.5,10.5c-0.3,2,1.5,8.1,3.1,5.9c0.9-1.3,0.5-6.3,1.6-9.2c2.2-5.9,5.9-10.6,5.9-10.6s-3.9,17.6-1.5,18
				c2.5,0.4,5-14.2,5-14.2s6-12.2,8.6-13.2c2.6-1.1,9.8-5.7,15.4-7.6c5.6-1.9,28.5,4.4,38.8,4.6c10.3,0.1,26.9-6.2,28.3-14.3
				c0.4-2.5-1.1-5.2-3.4-7.8C683.1,1444.8,672.6,1441.9,662.8,1444.5z"/>
			<path class="st22" d="M658.4,1345.8c0,0,15.7-2.8,29.9,22.8c14.2,25.6,5,91.5,5,91.5l-30.6-15.6L658.4,1345.8z"/>
			<path class="st8" d="M728.3,1367.9c-1.8,0-11.5,0.6-13-0.9s5-5.4,5.7-4.7c0.7,0.7,3.4-0.8,4.3,0.1c0.9,0.9,3.7-0.1,4.5,0.7
				C730.6,1363.8,730.2,1367.9,728.3,1367.9z"/>
			<path class="st8" d="M825.6,1183.8c0,0-3.3,18.2-2.6,25.3c0.7,7.2-2.5,30.3-16.8,30.4s-4.6-24-3.2-31c1.3-7,3.5-34.2,3.5-34.2
				L825.6,1183.8z"/>
			<path class="st12" d="M805.6,1184.6c0.2-5.9,1.3-10.7,1.3-10.7l18.7,9.9c0,0-0.7,3.7-1.4,8.5
				C815.9,1194,809.2,1190.1,805.6,1184.6z"/>
			<path class="st8" d="M826,1131c0,0,8,2.9,12.4,11.6s5.8,33.2-11.8,42.6c-17.7,9.4-29.3-7.9-28.2-23.5
				C799.5,1146.2,804.4,1125.8,826,1131z"/>
			<path class="st8" d="M793.2,1157.4c-0.5,4,1,7.5,3.2,7.7s4.4-2.9,4.9-6.9s-1-7.5-3.2-7.7C795.8,1150.3,793.6,1153.4,793.2,1157.4
				z"/>
			<path class="st8" d="M836.9,1164.2c-1.6,3.9-0.8,8,1.7,9.1c2.5,1.2,5.8-1.1,7.3-5c1.6-3.9,0.8-8-1.7-9.1
				C841.7,1158,838.4,1160.3,836.9,1164.2z"/>
		</g>
		<g>
			<linearGradient id="SVGID_27_" gradientUnits="userSpaceOnUse" x1="1704.5" y1="488.0999" x2="1761.8" y2="488.0999">
				<stop  offset="5.618000e-03" style="stop-color:#D7F0FC"/>
				<stop  offset="0.4494" style="stop-color:#ABE1FA"/>
				<stop  offset="1" style="stop-color:#96CFF1"/>
			</linearGradient>
			<polygon class="st49" points="1704.5,464.5 1739,511.7 1761.8,486.8 			"/>
			<polygon class="st11" points="1764.9,473.7 1761.8,486.8 1704.5,464.5 			"/>
			<polygon class="st11" points="1761.8,491.8 1704.5,464.5 1757.7,511.7 			"/>
			<linearGradient id="SVGID_28_" gradientUnits="userSpaceOnUse" x1="1755.7001" y1="531.1054" x2="1798.1096" y2="531.1054">
				<stop  offset="5.618000e-03" style="stop-color:#D7F0FC"/>
				<stop  offset="0.4494" style="stop-color:#ABE1FA"/>
				<stop  offset="1" style="stop-color:#96CFF1"/>
			</linearGradient>
			<path class="st50" d="M1796.5,548.4c-0.4,0-10.5-1.1-23.2-9c-12.8-8-17.6-21.9-17.6-24.1c0-0.9,0.7-1.5,1.5-1.5s1.5,0.7,1.5,1.5
				c0.1,1.5,4.2,14.1,16.1,21.5c12.1,7.5,21.8,8.6,21.9,8.6c0.8,0.1,1.5,0.8,1.4,1.7C1798.1,547.9,1797.4,548.5,1796.5,548.4z
				 M1758.8,515.3L1758.8,515.3L1758.8,515.3z"/>
			<linearGradient id="SVGID_29_" gradientUnits="userSpaceOnUse" x1="1770.6235" y1="538.8641" x2="1884.0999" y2="538.8641">
				<stop  offset="5.618000e-03" style="stop-color:#D7F0FC"/>
				<stop  offset="0.4494" style="stop-color:#ABE1FA"/>
				<stop  offset="1" style="stop-color:#96CFF1"/>
			</linearGradient>
			<path class="st51" d="M1859.1,562.4c-17.9-3.6-34.9-10.2-50.8-19.6c-13-7.8-23.5-19.6-36.8-26.1c-0.8-0.4-1.1-1.3-0.7-2.1
				s1.3-1.1,2.1-0.7c13.8,6.8,24.2,18.6,37.1,26.3c15.5,9.2,32.3,15.7,49.8,19.2c6.4,1.3,14.1,1.8,22.7,1.4c0.9,0,1.6,0.6,1.6,1.5
				s-0.6,1.6-1.5,1.6C1874.9,564.2,1866.7,563.9,1859.1,562.4z"/>
		</g>
		<g>
			<g>
				<g>
					<path class="st8" d="M1103.4,1104.4c0,0-37.9-67.6-47.1-82c-9.2-14.4-33.2-71.5-34.1-73.8c-0.9-2.3,16.5-29.3,12.7-30.2
						c-3.9-0.9-8.2,14.3-12.3,12.4c-4.1-1.8-16.2-38.4-18.6-36.5c-4.4,3.4,6.5,22.7,4.2,23.9c-2.4,1.2-9.5-21.2-14.1-20.5
						s8.8,20.6,7.5,22.3c-1.3,1.8-15.2-17-17.7-13c-1.4,2.2,12.8,16.4,10.1,17.7s-15.3-7.8-16.7-5.2c-1.3,2.6,11.7,6.3,15.6,13.4
						c3.9,7.1,10.5,10.2,13.3,23.4s6.9,60.9,20.9,84.7c14.1,23.8,45.1,76.5,45.1,76.5L1103.4,1104.4z"/>
					<g>
						<path class="st8" d="M1271.4,1430.8c0,0-3.1-3.8-4-5.2c-1.1-1.6-4-6.6-4-6.6s-9.2-18-7.8-18.5c1.4-0.6,4.7,1.6,5.6,2.5
							c1,0.9,2.2,1.9,3.1,2.8c1,0.9,2.4,0.9,3.6-0.2s-1.8-5.6-3.2-6.9c-4.2-4.1-17.7-13-19.1-13.9c-1.6-1.2-11.9-35.3-16.4-46.7l0,0
							c-6.7-18.9-12.7-38.6-13.4-40.6l-4.2-85.8l-32-10.7c0,0,3.4,95.2,4.1,100c0.3,2.3,19.3,44.8,19.3,44.8
							c10.7,20.4,20.1,38.3,21.8,41.8c0,0,2.3,11.8,3.4,19.5c1,7.6,5.1,14.2,5.7,16.3c0.1,0.3,1.8,7.6,7.1,15.2
							c4.6,6.5,3.2-1.8,3.2-1.8s-6.3-13.7-5.1-14c0.9-0.2,3.9,7.4,8.8,14.7c1.3,1.9,2.5,3.7,3.7,5.4c3.1,4.4,6.7,3.8,4.2-1.4
							c-0.9-1.8-2.4-4.8-3.8-6.8c-1.5-2.1-2.2-4.6-3.2-6.6c-2-4-3.5-6.8-3.3-6.8c0.3,0,0.4-1.1,1.8,0.9c1.7,2.3,4.2,8.1,7,11.4
							c1.6,1.8,4.6,5.9,4.6,5.9s5.7,6,6.1,5.8c2.3-1.3-0.5-6.8-3-9c-0.8-2.2-4.2-6.4-4.2-6.4s-4.8-10-3.4-10.7
							c1.2-0.6,17.4,21,19.6,19.5C1275.9,1437.5,1271.4,1430.8,1271.4,1430.8z"/>
					</g>
					<path class="st48" d="M1214.1,1096.6c0.8-18.7-2-37.2-10.3-54.6c-7.2-15-25-23.5-41.3-23.5c-51.6-0.1-58.2,68.1-91,94.4
						c-10,8-21.3,14.6-30.7,23.2c-35.1,32-19.3,91.2,12.9,119.3c22.3,19.5,57.5,30.5,85,15.3c14.4-7.9,25.3-21.1,33.1-35.6
						c11-20.5,18.1-44.2,26-66.1C1206,1145.8,1213,1121.5,1214.1,1096.6z"/>
					<path class="st8" d="M1052.8,1698.9c0,0-3.6,25.2-9.9,33.3c-2.1,2.7-5.9,6.2-8.5,11.1c-3.9,7.7-1.8,19.1,1.1,25.4
						c1.5,3.2-0.1,3.2,3.3,4.3c10,3.1,20.6-2.1,24.9-11.7c2.4-5.3,4.5-12.5,4.9-21.4c1.1-22.8,8.2-34.5,8.2-34.5L1052.8,1698.9z"/>
					<path class="st8" d="M1162.2,1710.4c0,0,2.2,28.4,0.4,37.6c-1,4.9-6.4,15.1-3.9,19.8c2.5,4.6,5.3,5.8,5.3,5.8l64.6,1
						c3.5,0.1,1.2-2.2-1.6-4.3c-4.6-3.4-8.4-5.7-23.2-12.8c-1-0.5-4.5-2.7-5.8-3.5c-3.2-2-6.5-5.1-9.2-8.1c-4.6-5.2-5-30.1-5-30.1
						L1162.2,1710.4z"/>
					<path class="st11" d="M1212.7,1333.2c0,0,8.1,46.1,2.8,76.3c-5.3,30.2-31,310.2-31,310.2l-28.5,1.6c0,0-6-116.9-4.9-133.2
						c1.1-16.3,9.5-43.5,9.5-43.5l-2.8-94.4l35.9-124L1212.7,1333.2z"/>
					<path class="st11" d="M1128.9,1323.6c0,0-22.4,33.7-27.8,61.6c-5.3,27.9,3.9,113.6-6.4,150.1c-5.6,19.8-26.6,50.3-29.8,75.9
						c-3.2,25.6-15.8,92.5-15.8,92.5l28.5,5.6l66.2-167.2l51.9-151.1l13.3-77.8L1128.9,1323.6z"/>
					<linearGradient id="SVGID_30_" gradientUnits="userSpaceOnUse" x1="1103.458" y1="1235.3333" x2="1213.6332" y2="1235.3333">
						<stop  offset="0" style="stop-color:#D1E4A5"/>
						<stop  offset="0.5" style="stop-color:#ACD479"/>
						<stop  offset="1" style="stop-color:#76B83F"/>
					</linearGradient>
					<path class="st52" d="M1147.1,1131.9c0,0-29.7-1.9-41.4,10.9c-11.7,12.8,26.1,113.9,28.2,130.1c2.1,16.3-10.9,59.5-10.9,59.5
						s69.8,14,89.7,0.8c0,0,2.1-116.9,0-128.6c-2.1-11.6-19.9-58.9-24.2-63.5C1184.2,1136.5,1147.1,1131.9,1147.1,1131.9z"/>
					<path class="st8" d="M1157,1092.3c0,0-0.2,0.9-0.4,2.4c-1.3,7.1-6.4,30.8-9.9,37.3c-4.2,7.9,14.2,32.9,32,29.8
						c5.3-0.9-4.5-23-4-25.4c0.9-4.5,2.1-10.6,3.4-16.9c0.7-3.5,1.4-7.1,2.1-10.5c1.9-9.6,3.4-17.4,3.4-17.4L1157,1092.3z"/>
					<path class="st12" d="M1156.6,1094.6c0.3-1.5,0.4-2.4,0.4-2.4l26.6-0.7c0,0-1.5,7.8-3.4,17.4c-0.7,3.4-1.4,6.9-2.1,10.4
						c-4.1-0.6-8.4-2.6-12.7-6.3c-4.7-4.1-7.8-9-9.6-14.3C1156.1,1097.2,1156.3,1095.8,1156.6,1094.6z"/>
					<path class="st8" d="M1174.9,1032.1c0,0-12.5-1.4-20.4,8.7c-7.8,10.1-16.3,41.4,3.2,58.5c19.5,17,38.7-2.2,41.6-22.7
						C1202.1,1056.1,1203.2,1031.3,1174.9,1032.1z"/>
					<path class="st8" d="M1205,1076.2c-2.3,4.5-6.2,7-8.7,5.6s-2.6-6.2-0.3-10.8c2.3-4.5,6.2-7,8.7-5.6
						C1207.2,1066.9,1207.4,1071.7,1205,1076.2z"/>
					<path class="st48" d="M1176.3,1028.7c0,0-16.7,29.8-28.7,31.2c-12,1.4-13.5,17.2-13.5,17.2s4.3-36.5,16.1-43.5
						C1162,1026.5,1176.3,1028.7,1176.3,1028.7z"/>
					<path class="st17" d="M1065.7,1756.2c-15.5,2.8-25.8-6.2-31.2-13c-3.9,7.7-5.9,19.1-3,25.5c2.6,5.6,10,5.4,15.9,5.6
						c6.2,0.2,11-3.2,14.1-8.6C1063,1763.1,1064.4,1760,1065.7,1756.2z"/>
					<path class="st17" d="M1198,1754c-17.1,4.4-29.7,1.4-36.8-1.4c-1.8,5.2-4.2,11.6-3,15.3c1.6,4.6,3.8,5.6,5.8,5.6
						c15.6,0.4,57.1,1,69,1.1c1.7,0,2.6-1.9,1.5-3.2C1231.6,1768,1199.2,1754.8,1198,1754z"/>
					<path class="st8" d="M1150.7,1067.3c1,5.3-1,10.1-4.4,10.8c-3.4,0.7-6.9-3-7.9-8.3s1-10.1,4.4-10.8
						C1146.2,1058.3,1149.7,1062.1,1150.7,1067.3z"/>
					<linearGradient id="SVGID_31_" gradientUnits="userSpaceOnUse" x1="1063.1" y1="1136.5555" x2="1142.6302" y2="1136.5555">
						<stop  offset="0" style="stop-color:#D1E4A5"/>
						<stop  offset="0.5" style="stop-color:#ACD479"/>
						<stop  offset="1" style="stop-color:#76B83F"/>
					</linearGradient>
					<path class="st53" d="M1092.9,1082.4c0,0,41.9,45,48.1,63.1s-6.1,44.1-23.1,45.2s-54.8-79.8-54.8-79.8L1092.9,1082.4z"/>
				</g>
			</g>
		</g>
		<g>
			<path class="st30" d="M1140.5,513.7l-47.3,10.3c-11.4,2.5-22.6-4.7-25-16.1l-4.4-20.3c-2.5-11.4,4.7-22.6,16.1-25l47.3-10.3
				c11.4-2.5,22.6,4.7,25,16.1l4.4,20.3C1159.1,500.1,1151.9,511.3,1140.5,513.7z"/>
			<polygon class="st30" points="1068.6,496.9 1048.3,529.7 1079.4,516.3 			"/>
			<g>
				<path class="st16" d="M1091.5,487.8l7.9-1.9c0,0,8.3-9.7,8-12.4c-0.3-2.7-3.2-7.9-1.8-9c1.4-1,4.5-2.3,7.4,0.7
					c2.1,2.2,2.9,11.7,4,12.1c0.7,0.3,5.2-0.7,8.6-1.5c2.2-0.5,4.5,0.2,5.9,1.9l0,0c1,1.2,1,2.8,0.1,4l-1.4,1.9l1.8,1.5
					c1.3,1.1,1.5,3.2,0.4,4.5l-1.2,1.4l1.2,0.9c1.5,1.1,1.8,3.3,0.5,4.8l-1,1.1l0.3,0.3c1.1,1.3,1.1,3.1-0.1,4.3l-1.1,1.1l-21,5.1
					c-2,0.5-4,0.6-6,0.2l-7.7,0.6c-0.8,0.1-1.6-0.5-1.8-1.3l-4.2-18.5C1090,488.9,1090.6,488,1091.5,487.8z"/>
			</g>
		</g>
		<g>
			<path class="st9" d="M1288.7,273.8c42.4,7.9,72.8,35.4,68,61.5c-2.4,13-13.2,23.2-28.7,29.2l10.1,41.6l-30.7-36.6
				c-11.2,1.4-23.5,1.1-36.3-1.3c-42.4-7.9-72.8-35.4-68-61.5C1208,280.6,1246.3,265.9,1288.7,273.8z"/>
			<g>
				<path class="st3" d="M1308.1,331c-6.5,13.6-22.8,19.3-36.3,12.8s-19.3-22.8-12.7-36.3c6.5-13.6,22.8-19.3,36.3-12.8
					S1314.6,317.5,1308.1,331z"/>
				<path class="st54" d="M1268.6,316.8c-3.5,7.2-0.4,15.9,6.8,19.4c7.2,3.5,15.9,0.4,19.4-6.8L1268.6,316.8z"/>
			</g>
		</g>
		<polygon class="st55" points="1908.6,1056.6 1899.2,1057.5 1896,1042.6 1882.1,1042.3 1877.9,1031.5 1872.5,1033.6 1878.1,1048.1 
			1891.3,1048.3 1894.6,1063.9 1908.7,1062.4 		"/>
		<g>
			<linearGradient id="SVGID_32_" gradientUnits="userSpaceOnUse" x1="1820.3" y1="803.6" x2="1890.6" y2="803.6">
				<stop  offset="0" style="stop-color:#D1E4A5"/>
				<stop  offset="0.5" style="stop-color:#ACD479"/>
				<stop  offset="1" style="stop-color:#76B83F"/>
			</linearGradient>
			<polygon class="st56" points="1854.5,819.6 1832.6,810 1827.6,825.2 1820.3,822.8 1828,799.6 1849.8,809.2 1855.3,791.3 
				1875.4,799.6 1883.7,782 1890.6,785.2 1879.2,809.5 1860.1,801.5 			"/>
		</g>
	</g>
</g>
</svg>
