<?xml version="1.0" encoding="utf-8"?>
<!-- Generator: Adobe Illustrator 22.0.1, SVG Export Plug-In . SVG Version: 6.00 Build 0)  -->
<svg version="1.1" id="Слой_1" xmlns="http://www.w3.org/2000/svg" xmlns:xlink="http://www.w3.org/1999/xlink" x="0px" y="0px"
	 viewBox="0 0 3000 2000" style="enable-background:new 0 0 3000 2000;" xml:space="preserve">
<style type="text/css">
	.st0{fill:#DDE8FD;}
	.st1{fill:#FFFFFF;}
	.st2{fill:url(#SVGID_1_);}
	.st3{fill:url(#SVGID_2_);}
	.st4{fill:url(#SVGID_3_);}
	.st5{fill:#BED2FA;}
	.st6{fill:#93B3F4;}
	.st7{fill:#FA7269;}
	.st8{fill:#EFAC7F;}
	.st9{fill:#282828;}
	.st10{fill:#0B0754;}
	.st11{fill:#060632;}
	.st12{fill:#E75755;}
	.st13{fill:#3662C1;}
	.st14{fill:#3A49CD;}
	.st15{fill:#77A4E5;}
	.st16{fill:url(#SVGID_4_);}
	.st17{fill:#6D89CF;}
	.st18{fill:url(#SVGID_5_);}
	.st19{fill:#010117;}
	.st20{opacity:0.5;fill:#FFFFFF;}
	.st21{fill:#9E332E;}
	.st22{fill:#DFEBFD;}
	.st23{fill:#ED6966;}
	.st24{fill:url(#SVGID_6_);}
	.st25{fill:url(#SVGID_7_);}
	.st26{fill:url(#SVGID_8_);}
	.st27{fill:url(#SVGID_9_);}
	.st28{fill:#EA8888;}
	.st29{fill:#A2C5F9;}
	.st30{fill:#C7DCF9;}
	.st31{fill:#D2E4F9;}
	.st32{fill:url(#SVGID_10_);}
	.st33{fill:#B5453C;}
</style>
<g>
	<path class="st0" d="M2721.4,1706l-731.4,0.2l-160.1,0l-52.9,0l-159.8,0l-599.4,2.8c-0.4-1.3-0.8-2.5-1.1-3.7
		c-64.9-215.7,132.1-213,186.5-280.1c19.4-23.9,20.7-56.6-14.3-111.1c-0.2-0.3-0.3-0.5-0.5-0.8c-20.9-32.7-36.1-64.7-46.1-96.1
		c-21.1-65.6-19.6-128-0.6-185.6c14.4-43.7,38.8-84.6,71-122.2c12.6-14.6,26.3-28.8,41.1-42.4c297.6-273,1023.5-324.8,1124,152.3
		c57,270.5,147,114,332.3,306.1c61.2,63.4,81.8,128,82.5,185.5C2793.8,1621.6,2721.4,1706,2721.4,1706z"/>
	<path class="st1" d="M1833.4,968.4c-2,14.8-5.6,30.4-10.8,47c-9.7,30.7-25.1,64.5-47,101.6c-4.6,7.8-8.5,15.2-11.8,22.2
		l-621.5,78.3c-21.1-65.6-19.6-128-0.6-185.6l669.3-180.2c11.2,17.2,19,36.8,22.5,59C1836.2,928.3,1836.3,947.5,1833.4,968.4z"/>
	<path class="st0" d="M2721.4,1706l-731.4,0.2l-160.1,0l-52.9,0l-159.8,0l-599.4,2.8c-0.4-1.3-0.8-2.5-1.1-3.7
		c-64.9-215.7,132.1-213,186.5-280.1c19.4-23.9,20.7-56.6-14.3-111.1c-0.2-0.3-0.3-0.5-0.5-0.8c191-78.7,190.3-70.2,394-36.2
		c251.3,42,458.2,90.9,560.7,37.8c102.4-53,323.3-14.7,384,61.6c60.7,76.3,47.2,152,110.2,145.7c44.9-4.5,101.3-26.5,155.2-11.3
		C2793.8,1621.6,2721.4,1706,2721.4,1706z"/>
	<linearGradient id="SVGID_1_" gradientUnits="userSpaceOnUse" x1="1106.9332" y1="1522.4053" x2="1600.5781" y2="1522.4053">
		<stop  offset="0" style="stop-color:#D1E4A5"/>
		<stop  offset="0.5" style="stop-color:#ACD479"/>
		<stop  offset="1" style="stop-color:#76B83F"/>
	</linearGradient>
	<path class="st2" d="M1541.3,1337.4c0,0-86.8-14.3-145.7,34.1c-58.9,48.4-24.1,131.1-72.8,141.8c-70.1,15.4-231.5,37.6-214.6,189.2
		c1.7,15.3,492.4,0,492.4,0l-21-326.7L1541.3,1337.4z"/>
	<linearGradient id="SVGID_2_" gradientUnits="userSpaceOnUse" x1="2235.3965" y1="1575.6421" x2="2585.5127" y2="1575.6421">
		<stop  offset="0" style="stop-color:#D1E4A5"/>
		<stop  offset="0.5" style="stop-color:#ACD479"/>
		<stop  offset="1" style="stop-color:#76B83F"/>
	</linearGradient>
	<path class="st3" d="M2249.6,1447.3c0,0,103.7-18.9,175.6,40c72,58.9,39.2,107.3,77.7,120c38.6,12.6,93.1,37.3,80.8,99.7h-348.4
		L2249.6,1447.3z"/>
	<linearGradient id="SVGID_3_" gradientUnits="userSpaceOnUse" x1="2629.8157" y1="1676.0261" x2="2679.7305" y2="1676.0261">
		<stop  offset="0" style="stop-color:#D1E4A5"/>
		<stop  offset="0.5" style="stop-color:#ACD479"/>
		<stop  offset="1" style="stop-color:#76B83F"/>
	</linearGradient>
	<path class="st4" d="M2677.4,1702h-46.8c-2.5-2.1,1.7-7,6.2-7.3c1.9-0.1,4.4,0.3,7.1,0.8c0.6-8.6,4.3-47,18.2-45.5
		c15.6,1.7,0,16.9-4.4,26c-3.3,6.7-6.7,16.2-8.3,20.8c1.3,0.3,2.6,0.5,3.9,0.8c2.1-6.3,9.8-27.7,19.5-26.5c11.5,1.5,6.9,10-1.3,15.1
		c-6,3.7-13.3,9-16.8,11.6c3,0.5,6,0.8,9.2,0.7C2672,1698.4,2675.9,1700.7,2677.4,1702z"/>
	<rect x="1541.3" y="523.6" class="st5" width="825.6" height="1137"/>
	<rect x="1530.4" y="1040" class="st6" width="847.4" height="36.5"/>
	<g>
		<g>
			<g>
				<rect x="2030.3" y="1203.5" class="st7" width="225.5" height="299.8"/>
			</g>
		</g>
		<g>
			<path class="st1" d="M2147.4,1208.9c0,0,0.5,88.6-89.3,163.5c0,0,18.7,97.6,16,125.3h-43.2v-288.8H2147.4z"/>
		</g>
		<g>
			<path class="st8" d="M2155.2,1359.8c0,0-9.3,1-14.8,10.3c-5.5,9.3-16.1,49.3-23.9,57.5c-7.8,8.2-35.1,24.5-35.1,24.5l6.9,4.5
				c0,0,41.7-12.7,47.8-20c6.1-7.4,14.8-46.8,14.8-46.8L2155.2,1359.8z"/>
		</g>
		<g>
			<path class="st9" d="M2164.5,1303.4c0,0,0.5-13.2,19.5-14c19-0.8,32.7,15.2,33.3,23.9c0.6,8.7-3.3,22.3,9.2,31.4
				c12.5,9,6.3,51-23.1,51c-29.4,0-46.9-1.7-47-16.9c-0.1-15.2-0.6-28.9,11.1-33.2C2179.1,1341.5,2164.5,1303.4,2164.5,1303.4z"/>
		</g>
		<g>
			<g>
				<path class="st10" d="M2196.6,1472.3c0,0,0,0.1-0.1,0.4c0,0.1-0.1,0.2-0.1,0.3c-0.1,0.3-0.2,0.6-0.3,1c0,0.1-0.1,0.2-0.1,0.3
					c-0.1,0.3-0.2,0.7-0.3,1.1c-0.1,0.2-0.2,0.5-0.2,0.8c-0.7,2.2-1.6,5.2-2.7,8.9c-0.3,0.9-0.6,1.9-0.9,3c-0.1,0.5-0.3,1-0.5,1.6
					c-0.1,0.2-0.1,0.4-0.2,0.5c-0.1,0.4-0.2,0.7-0.3,1.1c-0.1,0.4-0.2,0.8-0.4,1.3c-0.3,1-0.6,2-0.9,3.1c-0.7,2.4-1.4,5-2.1,7.6
					h-44.4c0.1-2.8,0.2-5.4,0.4-7.9c0-0.6,0.1-1.1,0.1-1.7c0.2-2.8,0.4-5.3,0.6-7.7c0.1-0.6,0.1-1.2,0.2-1.8
					c0.1-1.2,0.2-2.3,0.4-3.3c0-0.2,0-0.4,0.1-0.6c0-0.2,0-0.4,0.1-0.6c0.1-1.1,0.3-2.1,0.4-3c0-0.3,0.1-0.6,0.1-0.9
					c0-0.3,0.1-0.6,0.1-0.8c0-0.3,0.1-0.5,0.1-0.8c0-0.2,0.1-0.5,0.1-0.7c0-0.1,0-0.2,0.1-0.3c0.1-0.3,0.1-0.6,0.1-0.9
					c0-0.2,0.1-0.4,0.1-0.5c0-0.2,0.1-0.3,0.1-0.5c0.1-0.6,0.3-1.1,0.5-1.6c0.1-0.1,0.1-0.2,0.2-0.4c0.1-0.1,0.1-0.2,0.2-0.3
					c0.2-0.2,0.3-0.4,0.5-0.7c0.1-0.1,0.2-0.2,0.3-0.3c0.1-0.1,0.2-0.2,0.3-0.3c0.1-0.1,0.2-0.1,0.2-0.2c0.1-0.1,0.3-0.2,0.4-0.3
					c0.1-0.1,0.2-0.1,0.3-0.2c0.2-0.1,0.5-0.3,0.7-0.4c0.1-0.1,0.3-0.1,0.4-0.2c0.1-0.1,0.3-0.1,0.5-0.2c0.1-0.1,0.3-0.1,0.4-0.2
					c0.1-0.1,0.3-0.1,0.4-0.1c0.5-0.2,1-0.3,1.6-0.4c0.1,0,0.3-0.1,0.4-0.1c0.2,0,0.4-0.1,0.6-0.1c0.3,0,0.6-0.1,0.9-0.1
					c0.2,0,0.4,0,0.6-0.1c0.2,0,0.3,0,0.5,0c0.3,0,0.5,0,0.8-0.1c0.3,0,0.7,0,1,0c1.5-0.1,3.2,0,4.9,0.1c0.4,0,0.8,0.1,1.2,0.1
					c0.7,0.1,1.3,0.1,2,0.2c1,0.1,1.9,0.2,2.9,0.4h0c0.1,0,0.2,0,0.3,0c0.5,0.1,0.9,0.1,1.4,0.2c1.4,0.2,2.7,0.4,4.1,0.7
					c0.5,0.1,1.1,0.2,1.6,0.3l1.5,0.3c1.4,0.3,2.7,0.6,4,0.9c0.5,0.1,1,0.2,1.4,0.3c0.1,0,0.2,0.1,0.4,0.1c0.2,0.1,0.5,0.1,0.7,0.2
					c0.3,0.1,0.7,0.2,1,0.3c0.6,0.1,1.1,0.3,1.6,0.4c0.2,0.1,0.4,0.1,0.6,0.2c0.3,0.1,0.7,0.2,1,0.3c0.9,0.2,1.7,0.5,2.4,0.7
					c0.3,0.1,0.7,0.2,1,0.3c0.3,0.1,0.5,0.2,0.8,0.2c0,0,0.1,0,0.1,0c0.2,0.1,0.4,0.1,0.6,0.2c0.2,0.1,0.4,0.1,0.6,0.2
					c0.2,0.1,0.4,0.1,0.6,0.2c0.1,0,0.3,0.1,0.4,0.1c0.1,0,0.3,0.1,0.4,0.1C2196.2,1472.2,2196.6,1472.3,2196.6,1472.3z"/>
			</g>
		</g>
		<g>
			<path class="st11" d="M2196.6,1472.3c0,0,0,0.1-0.1,0.4c0,0.1-0.1,0.2-0.1,0.3c-0.1,0.3-0.2,0.6-0.3,1c0,0.1-0.1,0.2-0.1,0.3
				c-0.1,0.3-0.2,0.7-0.3,1.1c-0.1,0.2-0.2,0.5-0.2,0.8c-0.7,2.2-1.6,5.2-2.7,8.9c-0.3,0.9-0.6,1.9-0.9,3c-0.1,0.5-0.3,1-0.5,1.6
				c-0.1,0.2-0.1,0.4-0.2,0.5c-0.1,0.4-0.2,0.7-0.3,1.1c-0.1,0.4-0.2,0.8-0.4,1.3c-0.3,1-0.6,2-0.9,3.1c-0.7,2.4-1.4,5-2.1,7.6
				h-44.4c0.1-2.8,0.2-5.4,0.4-7.9c0-0.6,0.1-1.1,0.1-1.7c0.2-2.8,0.4-5.3,0.6-7.7c0.1-0.6,0.1-1.2,0.2-1.8c0.1-1.2,0.2-2.3,0.4-3.3
				c0-0.2,0-0.4,0.1-0.6c0-0.2,0-0.4,0.1-0.6c0.1-1.1,0.3-2.1,0.4-3c0-0.3,0.1-0.6,0.1-0.9c0-0.3,0.1-0.6,0.1-0.8
				c0-0.3,0.1-0.5,0.1-0.8c0-0.2,0.1-0.5,0.1-0.7c0-0.1,0-0.2,0.1-0.3c0.1-0.3,0.1-0.6,0.1-0.9c0-0.2,0.1-0.4,0.1-0.5
				c0-0.2,0.1-0.3,0.1-0.5c0.1-0.6,0.3-1.1,0.5-1.6c0.1-0.1,0.1-0.2,0.2-0.4c0.1-0.1,0.1-0.2,0.2-0.3c0.2-0.2,0.3-0.4,0.5-0.7
				c0.1-0.1,0.2-0.2,0.3-0.3c0.1-0.1,0.2-0.2,0.3-0.3c0.1-0.1,0.2-0.1,0.2-0.2c0.1-0.1,0.3-0.2,0.4-0.3c0.1-0.1,0.2-0.1,0.3-0.2
				c0.2-0.1,0.5-0.3,0.7-0.4c0.1-0.1,0.3-0.1,0.4-0.2c0.1-0.1,0.3-0.1,0.5-0.2c0.1-0.1,0.3-0.1,0.4-0.2c0.1-0.1,0.3-0.1,0.4-0.1
				c0.5-0.2,1-0.3,1.6-0.4c0.1,0,0.3-0.1,0.4-0.1c0.2,0,0.4-0.1,0.6-0.1c0.3,0,0.6-0.1,0.9-0.1c0.2,0,0.4,0,0.6-0.1
				c0.2,0,0.3,0,0.5,0c0.3,0,0.5,0,0.8-0.1c0.3,0,0.7,0,1,0c1.5-0.1,3.2,0,4.9,0.1c0.4,0,0.8,0.1,1.2,0.1c0.7,0.1,1.3,0.1,2,0.2
				c1,0.1,1.9,0.2,2.9,0.4h0c0.1,0,0.2,0,0.3,0c0.5,0.1,0.9,0.1,1.4,0.2c1.4,0.2,2.7,0.4,4.1,0.7c0.5,0.1,1.1,0.2,1.6,0.3l1.5,0.3
				c1.4,0.3,2.7,0.6,4,0.9c0.5,0.1,1,0.2,1.4,0.3c0.1,0,0.2,0.1,0.4,0.1c0.2,0.1,0.5,0.1,0.7,0.2c0.3,0.1,0.7,0.2,1,0.3
				c0.6,0.1,1.1,0.3,1.6,0.4c0.2,0.1,0.4,0.1,0.6,0.2c0.3,0.1,0.7,0.2,1,0.3c0.9,0.2,1.7,0.5,2.4,0.7c0.3,0.1,0.7,0.2,1,0.3
				c0.3,0.1,0.5,0.2,0.8,0.2c0,0,0.1,0,0.1,0c0.2,0.1,0.4,0.1,0.6,0.2c0.2,0.1,0.4,0.1,0.6,0.2c0.2,0.1,0.4,0.1,0.6,0.2
				c0.1,0,0.3,0.1,0.4,0.1c0.1,0,0.3,0.1,0.4,0.1C2196.2,1472.2,2196.6,1472.3,2196.6,1472.3z"/>
		</g>
		<g>
			<path class="st10" d="M2218.5,1503.3h-43.9c-1.1-6.2-2.1-11.9-3-16.8c-1.6-8.5-2.8-14.8-3.4-17.6c-0.2-1.1-0.3-1.7-0.3-1.7
				s0.4-0.5,1.1-1.3h0c4.6-5.1,21.8-23.3,30-15c1.3,1.4,2.8,2.8,4.2,4.4c4.9,5.4,10.1,12.2,13.1,21.7
				C2218.5,1484.1,2219.6,1492.6,2218.5,1503.3z"/>
		</g>
		<g>
			<path class="st8" d="M2164.5,1366l7.4,11.1l15-0.7l6.9-17.9c0,0-2.1-0.4-3.1-22.7l-18.7,5.7c0,0,1,5.8-0.3,12.1
				C2170.7,1358.1,2168.7,1362.8,2164.5,1366z"/>
		</g>
		<g>
			<path class="st8" d="M2162.4,1358.1c1,0,18.6-5.9,43.7,4.3c0,0-11.9,68.3-6.8,81.3c5.1,13,7.1,24.6,7.1,24.6l-55.6,0.7
				c0,0,0.8-44.7-1.8-60.5C2146.4,1392.7,2162.4,1358.1,2162.4,1358.1z"/>
		</g>
		<g>
			<path class="st12" d="M2217.3,1475.5c-0.9,2-3,3.5-5.6,4.7c-3.3,1.6-7.4,2.7-10.7,3.4c-2.5,0.6-6.4,1.2-10.9,1.7
				c-2.4,0.3-4.9,0.5-7.5,0.6c-0.4,0-0.7,0-1.1,0.1c-16.8,0.8-35.5,0.4-38-7.5c-0.2-0.8-0.2-2.3-0.1-4.3c0.3-4.1,1.3-10.3,2.2-16
				c0.9-5.5,1.8-10.6,2-13.3c1.3-14.1-1.4-34.4-1.8-47.5c-0.3-10.9,9.4-37.7,9.4-37.7s1.9-1.1,9.1-2.1c0,0,1,13.1,7.8,14.2
				c11.7,1.9,21.1-8.8,23.8-13.1c0,0,13.4,3.4,17.3,7.9c2.8,3.2,2.5,10.9,1.6,15.8c-0.3,1.5-0.6,2.8-0.8,3.5
				c-0.8,2.2-4,18.3-5.4,24.7c0,0.2-0.1,0.3-0.1,0.5c-0.1,0.4-0.2,0.8-0.3,1.1c0,0,0,0,0,0c-0.1,0.3-0.2,0.6-0.2,0.8
				c0,0.1-0.1,0.2-0.1,0.3c0,0,0,0,0,0c-2.1,6.6-3.3,13.3-2.6,21.5c0.1,1,0.3,2.1,0.6,3.4C2207.9,1448,2215.6,1466.9,2217.3,1475.5z
				"/>
		</g>
		<g>
			<path class="st8" d="M2171.6,1353.7c7.7-0.6,19-17.8,19-17.8l-18.7,5.7C2172,1341.5,2172.9,1347.3,2171.6,1353.7z"/>
		</g>
		<g>
			<path class="st12" d="M2164.3,1357.7c0,0-17.9,1.9-23.9,10.3c-6,8.4-9.8,21.1-9.8,21.1s4.3,12.8,16.8,11.2
				C2159.9,1398.7,2164.3,1357.7,2164.3,1357.7z"/>
		</g>
		<g>
			<path class="st8" d="M2168.8,1346.6c0,0,22.8-0.7,22.2-14.9c-0.6-14.2,1.9-23.8-12.7-24c-14.6-0.2-17.2,5.4-18.1,10.2
				S2162.9,1346.4,2168.8,1346.6z"/>
		</g>
		<g>
			<path class="st9" d="M2170.6,1305.9c0,0,0.7,4.7,9.7,10.9c9,6.2,10.5,20.5,10.5,20.5s6.8-25.5-1.3-31.3
				C2181.3,1300.3,2170.6,1305.9,2170.6,1305.9z"/>
		</g>
		<g>
			<path class="st9" d="M2177.9,1297.8c0,0-11.7-1.1-20,12c-3.6,5.6-0.8,14.4,2.9,19.1c0,0,1.2-12,7.6-16.1
				C2174.8,1308.8,2177.9,1297.8,2177.9,1297.8z"/>
		</g>
		<g>
			<path class="st1" d="M2174.1,1338.3c0,0-0.2,1.8-4.5,2c0,0-3.6,0.2-3.7-1.7C2165.9,1338.6,2169.2,1336.9,2174.1,1338.3z"/>
		</g>
		<g>
			<path class="st13" d="M2100,1432.9c0,0-6-7-0.4-11.5c0,0,4.1-2.5,7.5-2.3c0,0-4.8,8-3.2,8.8c1.5,0.8,4.7-9.3,4.7-9.3
				s9.4-0.9,12.4,0.5c0,0-8,6.6-6.3,7c1.7,0.4,10.4-6.1,10.4-6.1s8.7,1.5,8.3,6.8c-0.5,5.3-3.5,7-4.8,6.8s-9.1-3.1-9.2-2
				c-0.2,1.1,4.5,4.6,7.7,4.8c0,0-6.2,6.8-10.2,4.8c-4.1-2-4.4-5.1-7-6.2c-2.5-1.2-4.7-1.2-3.7,0c1.1,1.2,5.7,2.3,7.1,4.9
				c1.5,2.6,2.8,4.3-1.5,3.7c-4.2-0.6-11.1-3.7-11.4-7.3C2100,1432.9,2100,1432.9,2100,1432.9z"/>
		</g>
		<g>
			<g>
				<path class="st14" d="M2128.9,1427c0,0-23.7-0.9-29,5.9c0,0-1.2,3.5-4.7,6.6l-0.6,1.5c0,0,4.1-4.3,5.6-4.6
					C2100.3,1436.4,2098,1428,2128.9,1427z"/>
			</g>
			<g>
				<path class="st14" d="M2095.2,1439.5c0,0-5.1,3.8-5.4,10.5l0.9,0.1c0,0,1.6-7,4.6-9.7
					C2098.2,1437.7,2095.2,1439.5,2095.2,1439.5z"/>
			</g>
		</g>
		<g>
			<path class="st15" d="M2078.9,1424c0,0,9.6-5.4,5.1-12.6c0,0-3.6-4.5-7.4-5.6c0,0,2,10.8,0,11.1c-2,0.3-1.4-12.2-1.4-12.2
				s-10.1-4.8-14-4.5c0,0,6.3,10.6,4.2,10.3s-9.1-11-9.1-11s-10.3-1.9-12,4.2c-1.7,6.1,1,9.2,2.6,9.6c1.5,0.4,11.4,0.3,11.1,1.5
				s-6.9,3.3-10.6,2.2c0,0,4.1,10.1,9.4,9.6s7-3.8,10.3-4.1s5.7,0.6,4.1,1.5c-1.7,0.9-7.3,0.3-9.9,2.6s-4.8,3.7,0.1,4.7
				c5,1,13.9,0.4,15.7-3.4C2078.9,1424,2078.9,1424,2078.9,1424z"/>
		</g>
		<g>
			<g>
				<path class="st13" d="M2049.1,1405.7c0,0,26.8,8.7,29.8,18.4c0,0-0.1,4.3,2.6,9.3v1.9c0,0-2.8-6.5-4.3-7.4
					C2077.2,1427.9,2083.1,1419.4,2049.1,1405.7z"/>
			</g>
			<g>
				<path class="st13" d="M2081.5,1433.4c0,0,4.1,6.3,1.8,13.9l-1.1-0.3c0,0,1-8.4-1.1-12.6
					C2078.9,1430.1,2081.5,1433.4,2081.5,1433.4z"/>
			</g>
		</g>
		<g>
			<linearGradient id="SVGID_4_" gradientUnits="userSpaceOnUse" x1="2085.8689" y1="1405.3994" x2="2140.4189" y2="1405.3994">
				<stop  offset="0" style="stop-color:#D1E4A5"/>
				<stop  offset="0.5" style="stop-color:#ACD479"/>
				<stop  offset="1" style="stop-color:#76B83F"/>
			</linearGradient>
			<path class="st16" d="M2094.2,1416.7c0,0-12.6-7.1-6.7-16.6c0,0,4.7-5.9,9.8-7.4c0,0-2.7,14.3,0,14.6c2.7,0.3,1.9-16.1,1.9-16.1
				s13.3-6.4,18.5-5.9c0,0-8.2,14-5.5,13.6c2.7-0.3,11.9-14.5,11.9-14.5s13.6-2.5,15.8,5.5c2.2,8.1-1.3,12.1-3.4,12.6
				c-2,0.5-15,0.3-14.6,2c0.3,1.7,9.1,4.4,14,2.9c0,0-5.4,13.3-12.4,12.6c-7.1-0.7-9.2-5-13.6-5.4c-4.4-0.3-7.6,0.8-5.4,2
				c2.2,1.2,9.6,0.4,13.1,3.4s6.4,4.9-0.2,6.2c-6.6,1.3-18.3,0.5-20.7-4.5C2094.2,1416.7,2094.2,1416.7,2094.2,1416.7z"/>
		</g>
		<g>
			<g>
				<path class="st13" d="M2133.5,1392.4c0,0-35.3,11.4-39.3,24.2c0,0,0.2,5.7-3.4,12.3v2.5c0,0,3.7-8.6,5.7-9.8
					C2096.5,1421.7,2088.6,1410.6,2133.5,1392.4z"/>
			</g>
			<g>
				<path class="st13" d="M2090.8,1428.9c0,0-5.4,8.3-2.3,18.3l1.4-0.4c0,0-1.4-11.1,1.5-16.7
					C2094.2,1424.6,2090.8,1428.9,2090.8,1428.9z"/>
			</g>
		</g>
		<g>
			<path class="st10" d="M2118.4,1444.4c0,13.6-11.1,24.7-24.7,24.7c-2.8,0-5.6-0.5-8.1-1.4c-9.7-3.4-16.6-12.5-16.6-23.3H2118.4z"
				/>
		</g>
		<g>
			<path class="st13" d="M2093.7,1469.1c-1,0.1,4.1,0,3,0c-13.6,0-24.7-11.1-24.7-24.7h6.1C2078.2,1457,2081.5,1467.6,2093.7,1469.1
				z"/>
		</g>
		<g>
			<path class="st11" d="M2118.8,1470.3h-50.1c0-0.8,0.3-1.6,0.9-2.2c0.6-0.6,1.3-0.9,2.2-0.9h44
				C2117.4,1467.3,2118.8,1468.7,2118.8,1470.3z"/>
		</g>
		<g>
			<rect x="2068.2" y="1444.4" class="st11" width="50.8" height="0.8"/>
		</g>
		<g>
			<path class="st8" d="M2120,1453.6c-0.6-1.3-5.9-2.6-8.1-3.5c0,0-1.4,1,0.5,2.6c0.5,0.4,1.4,1.1,2.3,1.7c-0.3-0.1-0.5-0.1-0.8-0.2
				c-1.9-0.5-14.3,3.7-15.7,6.4c-1.5,2.7,7.1,9.6,13.5,7.4c3.3-1.1,14-3,14-3l-1.8-8.7C2123.8,1456.3,2120.5,1454.9,2120,1453.6z"/>
		</g>
		<g>
			<path class="st8" d="M2215.3,1372.3c0,0,2.5,17.6-15.8,43.8c-18.4,26.1-17.3,27.8-27.9,34.7c-10.5,6.9-46,14.2-46,14.2l-1.8-8.7
				c0,0,34.4-22.1,37.6-26.5c3.3-4.4,25.4-53.4,25.4-53.4L2215.3,1372.3z"/>
		</g>
		<g>
			<path class="st12" d="M2197.7,1365.8c0,0-14.7,11.5-18.6,17.1c-3.9,5.6-7.5,18.2-7.5,18.2s15.4,9.6,41.8,2.7c0,0,7-32.7-0.2-37
				c-7.2-4.3-13.9-1-13.9-1H2197.7z"/>
		</g>
		<g>
			<path class="st1" d="M2153.3,1208.9c0,0,16.4,72.5,92.2,98.2c0,0-0.7,111.8-9.3,141.2c-8.6,29.4-10.7,49.4-10.7,49.4h20v-288.8
				H2153.3z"/>
		</g>
	</g>
	<path class="st17" d="M2261.3,1497.7h-4.8v-223.4v-12.4v-64h-236.5v64v12.4v223.4h-4.8c-12.1,0-21.8,9.8-21.8,21.8v0.8h289.9v-0.8
		C2283.1,1507.4,2273.4,1497.7,2261.3,1497.7z M2030.9,1208.9h214.5v53h-214.5V1208.9z M2030.9,1274.3h214.5v223.4h-214.5V1274.3z"
		/>
	<rect x="1530.4" y="1590.2" class="st15" width="847.4" height="116"/>
	<linearGradient id="SVGID_5_" gradientUnits="userSpaceOnUse" x1="1172.1104" y1="1638.9855" x2="1731.6895" y2="1638.9855">
		<stop  offset="0" style="stop-color:#D1E4A5"/>
		<stop  offset="0.5" style="stop-color:#ACD479"/>
		<stop  offset="1" style="stop-color:#76B83F"/>
	</linearGradient>
	<path class="st18" d="M1731.7,1706.9c0,0-15.7-56.4-80.9-75.4c-65.2-18.9-61-9.5-119.9-43.1c-58.9-33.7-151.5-12.6-170.4,14.7
		c-18.9,27.4-63.1,42.1-124.2,41c-61-1.1-64.1,58.4-64.1,58.4L1731.7,1706.9z"/>
	<path class="st19" d="M2825,1704.6v0.8"/>
	<g>
		<rect x="1666.3" y="1203.5" class="st20" width="225.5" height="299.8"/>
		<rect x="1671.8" y="1209" class="st7" width="214.5" height="288.8"/>
		<path class="st10" d="M1759.2,1463.3c0,0-12.4,16.9-12.4,34.5h84c0,0-4.5-27.4-23.6-34.5S1759.2,1463.3,1759.2,1463.3z"/>
		<path class="st8" d="M1862,1372.3c0,0-13.2,33.6-14.7,34.8c-4,3.2-28.4-34.1-32.1-40.6c-3.7-6.5-26.9-0.9-28.9-13
			c-0.6-3.7-1.8-7.8-1.8-10.4c0-0.3,0-0.6,0-0.9c0-2.4,0.2-4.9,0.5-7.6l-1.2,0.1l-19.4,1.5c0,0,2,4.7,1.3,10.3
			c-0.2,1.8-0.3,5.3-0.5,8.7c-0.3,3.8-2.8,7-6.5,8.1c-8.3,2.4-18.6,6.1-20.4,10.7c-3.5,9-11.4,49.7-12.9,63.5
			c-1.5,13.8-15.5,54.2-15.5,54.2h7c0,0,26.2-44.1,28.5-51c0.7-2.1,3.2-10.6,6.3-21.2c2.9,11.6,7.1,23.2,8,27.9
			c1.6,8.2-13.6,34.9-12.1,42.2c1.5,7.4,81.7,11.4,80.6,0s-12.4-30.6-14.7-39.6c-1.7-6.8,2.2-29.4,3.5-42.9
			c12.3,14,28.9,27.1,34,24.4c13.1-6.9,17.2-57.6,17.2-57.6L1862,1372.3z"/>
		<path class="st10" d="M1770.7,1324.1c0,0-10.5,8.3-1.6,20.3c0,0-10.2-0.4-12.8-3.1c0,0,0.4,1.2,0.9,1.8c0,0-9.5-0.8-13-4.2
			c-3.5-3.4,4.7-51.3,30.2-42.8c0,0,22.4,1,17.2,26.4c-5.1,25.4,3.2,26.4,3.2,26.4s-2.5,0.9-3.6,0.7c0,0-1.6-0.8-1.8-1.8
			c0,0,0.2,1.5,0.5,2c0,0-9.1-0.2-13.2-4.2C1772.6,1341.7,1768.7,1329.3,1770.7,1324.1z"/>
		<path class="st10" d="M1761.4,1334.6c0,0-4.5-9.5-5-17.1c-0.3-5.5,4.8-25.1,24.5-19.8c0,0,5.7,1.3,10.8,5.6
			c4,3.5,9.5,10.5,0.4,27.1l-2.5,5.7L1761.4,1334.6z"/>
		<path class="st8" d="M1786.3,1353.5c-14-2-21.9-16.8-21.9-16.8c5.7-0.6,13.7,2.3,20.1,5.5c0,0.3,0,0.6,0,0.9
			C1784.4,1345.7,1785.3,1349.9,1786.3,1353.5z"/>
		<path class="st8" d="M1786.5,1347.9c0,0-25.2-2.6-23.3-18.2c1.9-15.7-0.2-26.5,16-25.6c16.2,1,18.6,7.3,19.2,12.7
			C1799,1322.2,1793.1,1348.2,1786.5,1347.9z"/>
		<path class="st10" d="M1790.6,1305.1c0,0-9.1,17.5-20,19c-10.9,1.5-15.1-1.9-15.1-1.9s8.9-5.5,11.9-16.5
			C1767.4,1305.7,1786.5,1295.7,1790.6,1305.1z"/>
		<path class="st10" d="M1788.7,1306.4c0,0,4.7,4.7,5.4,8.9c0.8,4.1,0.4,12.4,2.8,12.4c0,0,6.7-11.9,1.7-19.6
			C1793.4,1299.8,1788.7,1306.4,1788.7,1306.4z"/>
		<path class="st10" d="M1789.6,1307.1c0,0-7.2,18.7-21.3,23.2c0,0,14.7-10.2,17.4-22.8C1788.4,1295,1789.6,1307.1,1789.6,1307.1z"
			/>
		<path class="st1" d="M1781.3,1338.8c0,0,0.6,2.3,2.2,2.6c1.5,0.3,5.6,0.8,5.9,0.5s1.6-2.3,1.6-2.3S1784.5,1338.1,1781.3,1338.8z"
			/>
		<path class="st8" d="M1861.7,1374.2c0,0-0.5-12,0.8-16.1s4-10.7,4.7-10.4c0.6,0.3,1.9,9.2,1.3,11.2c-0.5,2,0.5,6.8,1.3,5.8
			c0.8-1,2-7.3,3.1-6.9c1,0.4,0.1,4.2,0.6,5.2c0.5,1,0.5,3.6-1.6,6.9c-2,3.3-4,7.1-4,7.1L1861.7,1374.2z"/>
		<path class="st8" d="M1711.4,1491.7c0,0-10.1-2.4-13.5-1.3c-3.3,1.2-9.4,7.1-7.8,7.2c1.6,0.1,8.5-1.8,9.5-1.5s3.8,0.6,3.8,0.6
			s-4.1,0.3-3.9,1c0.2,0.7,10.7,0.9,11.9,0c1.2-0.9,5.5-6,5.5-6H1711.4z"/>
		<path class="st1" d="M1747.9,1367c0,0,12.7,10.9,28.9,10c16.2-0.8,28.9-14.1,28.9-14.1s7.4,0.1,11.2,4.2
			c3.9,4.1,18.6,22.6,18.6,22.6s1.3,13.9-15.3,23.6l-1.7-3c0,0-2.8,34.5-1,37.8c1.8,3.2,15.5,37.2,13.2,42.5
			c-2.2,5.2-77.5,18-83.2-0.8c-5.7-18.9,8.5-35.2,7.9-42c-0.6-6.7-3.8-28.2-3.8-28.2s-21.7-3.3-22.5-16.3
			C1729.2,1403.2,1733.1,1366.8,1747.9,1367z"/>
		<path class="st17" d="M1902.3,1497.7h-4.8v-223.4v-12.4v-64h-236.5v64v12.4v223.4h-4.8c-12.1,0-21.8,9.8-21.8,21.8v0.8h289.9v-0.8
			C1924.1,1507.4,1914.3,1497.7,1902.3,1497.7z M1671.9,1208.9h214.5v53h-214.5V1208.9z M1671.9,1274.3h214.5v223.4h-214.5V1274.3z"
			/>
		<g>
			<g>
				<rect x="1675.8" y="1213.6" class="st1" width="207.4" height="10.4"/>
				<rect x="1675.8" y="1230" class="st1" width="207.4" height="10.4"/>
				<rect x="1675.8" y="1246.4" class="st1" width="207.4" height="10.4"/>
				<rect x="1675.8" y="1261.7" class="st1" width="207.4" height="10.4"/>
				<rect x="1675.8" y="1279" class="st1" width="207.4" height="10.4"/>
			</g>
			<rect x="1685.4" y="1208.7" class="st1" width="2" height="89.2"/>
			<rect x="1872.8" y="1208.7" class="st1" width="2" height="89.2"/>
		</g>
		<path class="st0" d="M1828.4,1489.3h-30.2v-10.8h30.3c2.6,0,4.6,2.1,4.6,4.6v1.4C1833.2,1487.2,1831,1489.3,1828.4,1489.3z"/>
		<path class="st17" d="M1859.2,1483v1.6c0,0.9-0.2,1.7-0.6,2.4c-0.8,1.4-2.3,2.3-4.1,2.3h-57.2c-0.4,0-0.7-0.3-0.7-0.7v-0.2
			c0-0.4,0.3-0.7,0.7-0.7h34.9c0.2-0.2,0.4-0.5,0.5-0.7c0.3-0.6,0.5-1.3,0.5-2.1v-2.1c0-0.4,0-0.7-0.1-1.1c-0.2-0.6-0.4-1.1-0.8-1.6
			h-34.9c-0.4,0-0.7-0.3-0.7-0.7v-0.2c0-0.4,0.3-0.7,0.7-0.7h57.5c2,0,3.7,1.4,4.3,3.2C1859.2,1482.1,1859.2,1482.5,1859.2,1483z"/>
		<path class="st13" d="M1859,1481.7h-26c-0.2-0.6-0.4-1.1-0.8-1.6h-34.9c-0.4,0-0.7-0.3-0.7-0.7v-0.2c0-0.4,0.3-0.7,0.7-0.7h57.5
			C1856.8,1478.5,1858.5,1479.9,1859,1481.7z"/>
		<polygon class="st5" points="1798.2,1483.9 1802.5,1484.1 1798.2,1484.2 		"/>
		<polygon class="st5" points="1798.2,1485.6 1808.3,1485.8 1798.2,1485.9 		"/>
		<path class="st21" d="M1804.7,1497.7h32.5v-8.4h-32.8c-2.2,0-4.1,1.8-4.1,4.1l0,0C1800.4,1495.7,1802.4,1497.7,1804.7,1497.7z"/>
		<path class="st0" d="M1834.8,1497.7h37.5v-8.4h-37.6c-2,0-3.6,1.6-3.6,3.6v1.1C1831.2,1496,1832.8,1497.7,1834.8,1497.7z"/>
		<path class="st21" d="M1828.7,1497.7h45c0.3,0,0.6-0.3,0.6-0.6l0,0c0-0.3-0.3-0.6-0.6-0.6h-45c-0.3,0-0.6,0.3-0.6,0.6l0,0
			C1828.1,1497.4,1828.3,1497.7,1828.7,1497.7z"/>
		<path class="st21" d="M1828.7,1490.5h45c0.3,0,0.6-0.3,0.6-0.6l0,0c0-0.3-0.3-0.6-0.6-0.6h-45c-0.3,0-0.6,0.3-0.6,0.6l0,0
			C1828.1,1490.2,1828.3,1490.5,1828.7,1490.5z"/>
		<polygon class="st5" points="1872.4,1493.5 1867.4,1493.6 1872.4,1493.7 		"/>
		<polygon class="st5" points="1872.4,1491.5 1860.5,1491.7 1872.4,1491.8 		"/>
		<g>
			<path class="st17" d="M1860.6,1491.6c0,0,0.5,0.4,0.7,1c0,0.1,0,0.2,0.1,0.3c0,0.8,0,2.6,0,2.6l1.5-0.9l1.5,0.9v-2.4
				c0-0.5-0.1-0.9-0.4-1.2c-0.1-0.1-0.3-0.2-0.4-0.2H1860.6z"/>
			<path class="st13" d="M1860.6,1491.6c0,0,0.5,0.4,0.7,1l3,0c0,0-0.1-0.8-0.7-1H1860.6z"/>
		</g>
	</g>
	<g>
		<rect x="1661.6" y="682.2" class="st22" width="225.5" height="299.8"/>
	</g>
	<g>
		<g>
			<path class="st1" d="M1770,687.6c0,0-0.5,88.6,89.3,163.5c0,0-18.7,97.6-16,125.3h43.2V687.6H1770z"/>
		</g>
		<g>
			<g>
				<path class="st12" d="M1689.5,855.7c0,0-18.8,2.7-23.6,6.9c-8.2,7.2-2.2,116.2-2.2,116.2s28.3,2.3,28.3,0
					C1692,976.5,1689.5,855.7,1689.5,855.7z"/>
			</g>
			<g>
				<path class="st12" d="M1763.2,979l-40.4,3l-28.2,2.1l-5.9,0.4l-0.4-2.5l-0.3-2.2l-0.1-0.5l-1.4-9.9l0,0l-0.6-3.9l-1.7-12
					l-8.9-61.3l-2.5-17.1c0,0-1.9-16.1,13.1-18.7c1.1-0.2,2.3-0.4,3.4-0.6c0,0,0,0,0.1,0c5.1-0.9,10.9-2,16.6-2.7
					c4.7-0.6,9.4-1,13.5-0.9c1.8,0,3.4,0.2,5,0.4c2,0.3,3.8,0.8,5.2,1.4c0.2,0.1,0.3,0.2,0.5,0.2c0.6,0.3,1.1,0.6,1.6,1
					c0.2,0.2,0.4,0.3,0.6,0.5c0.5,0.5,1.1,1.6,1.8,3.2c0.7,1.7,1.5,4,2.4,6.8c1.2,3.8,2.6,8.6,4,13.9c4,15,8.6,34.7,12.6,52.6
					c0.1,0.5,0.2,1.1,0.4,1.6c0.5,2.3,1,4.6,1.5,6.8c0,0.1,0.1,0.2,0.1,0.3c0.1,0.4,0.2,0.8,0.3,1.2c0.2,1.1,0.5,2.2,0.7,3.3
					c0.5,2.2,0.9,4.2,1.4,6.3c2.9,13.6,5.1,23.9,5.6,26.6C1763.2,978.8,1763.2,979,1763.2,979z"/>
			</g>
		</g>
		<g>
			<path class="st8" d="M1737.7,865.3c0,0,6.4,9.5,10,29.3c3.2,17.4,6,23.8,10.6,27.4c4.6,3.6,30.3,14.1,30.3,14.1l-1.9,4.5
				c0,0-37.6-5.1-41.9-11.4c-4.2-6.3-20.3-43.5-19.1-52S1737.7,865.3,1737.7,865.3z"/>
		</g>
		<g>
			<path class="st12" d="M1823.9,982h-31.1c-0.8-3.1-1.9-5.1-4.1-5.2c-2-0.1-12.7,1-25.6,1.5c-20.5,0.7-46.7-0.3-52.6-10.7
				c-1.4-2.5-2.4-5-3.2-7.4v0c-0.1-0.4-0.2-0.7-0.3-1.1c-1.2-4.5-1.4-8.7-1.2-12.4c0.1-2.2,0.5-4.1,0.8-5.8c0.9-4.3,2.2-7,2.2-7
				l10.1,7.4c0,0,0,0,0,0l1.1,0.8c0,0,8.7-0.7,20.7-1.2c2.7-0.1,5.5-0.2,8.4-0.3c1.5,0,2.9-0.1,4.4-0.1c0.5,0,1,0,1.4,0
				c3.6-0.1,7.3-0.1,11-0.1c0.4,0,0.7,0,1.1,0c0.9,0,1.7,0,2.6,0c14.3,0.1,27.9,1.1,34.8,3.7c1,0.4,1.8,0.8,2.5,1.2c0,0,0,0,0.1,0
				C1812.2,948.7,1818.2,963.9,1823.9,982z"/>
		</g>
		<g>
			<path class="st23" d="M1795.4,982h-72.6l-28.2,2.1c-1.4-0.6-2.6-1.3-3.7-2.1c-1-0.7-1.9-1.4-2.6-2.3c-0.1-0.2-0.3-0.3-0.4-0.5
				c-0.5-0.6-0.8-1.1-1.2-1.8c-1.4-2.7-1.9-5.4-1.7-7.9v0c0.1-1.4,0.4-2.8,0.9-4.1c1.1-3.1,3.2-6,5.6-8.5
				c6.1-6.3,14.2-10.2,14.2-10.2s0,0,0.1,0c0.8,0,9.3,0.5,20.5,1.4h0c1.1,0.1,2.2,0.2,3.3,0.3c0,0,0,0,0,0
				c8.7,0.8,18.7,1.9,27.9,3.3c11.8,1.8,22.2,4.2,26.8,7.4C1787.8,961.5,1791.6,970.3,1795.4,982z"/>
		</g>
		<g>
			<path class="st21" d="M1736.2,830.9c0,0,0-0.1,0-0.1c0,0,0,0,0,0c0-1.2-0.1-2.5-0.2-3.7c-0.3-3.7-0.7-7.3-1.4-10.5
				c-0.4-1.8-0.8-3.5-1.3-5.1c-0.1-0.2-0.2-0.5-0.2-0.7v0c-1.2-3.5-2.6-6.1-4.2-7.2c-2.9-1.9-6.5-2.3-9-2.4c0.7-0.6,2-0.8,2-0.8
				c-1.5-0.3-5.1,1-5.1,1c-21.1-9.8-26.7,21.9-26.7,29.4c0,7.5-0.6,16-11.8,21.9c-4.3,2.3-7.2,5-9,8c-7.4,12.2,3.2,27.8,3.2,27.8
				c0,0,1.2,1.6,2.9,3.7c4.3,5.7,11.9,15.7,11.9,15.7s0,0,0,0c0-1.4,1.1-4,3.1-7.4c1.5-2.5,3.4-5.4,5.6-8.5c1.1-1.5,2.2-3,3.3-4.5
				c1.6-2,3.2-4.1,4.9-6.1c0.7-0.8,1.3-1.6,2-2.3c3-3.5,6.2-6.8,9.3-9.7c0.7-0.7,1.4-1.3,2.1-2h0c0.9-0.8,1.8-1.5,2.6-2.2
				c1.7-1.3,3.3-2.5,4.8-3.4c0.1,0,0.1-0.1,0.2-0.1h0c0.2-0.1,0.4-0.3,0.6-0.4c0.7-0.8,1.2-1.8,1.8-2.8c0.2-0.4,0.4-0.8,0.6-1.2
				c0.6-1.2,1-2.3,1.5-3.5c1.3-3.5,1.9-6.7,2-7.2c-0.5,3-1,5.5-1.6,7.5c-0.4,1.3-0.8,2.4-1.1,3.4c-0.3,0.7-0.5,1.3-0.8,1.8
				c-0.1,0.2-0.2,0.5-0.4,0.7c0.2-0.1,0.3-0.3,0.5-0.4c0.6-0.5,1.2-1.2,1.7-1.8c0.6-0.8,1.2-1.6,1.7-2.6
				C1735.2,849.1,1736.5,839.8,1736.2,830.9z"/>
		</g>
		<g>
			<path class="st8" d="M1725.6,857c-0.4-0.2-0.8-0.3-1.3-0.5c0-1,0.1-2,0.2-3c0.3-4.8,1-9.8,1-9.8l-15.8-4.2l-0.9-0.3
				c-0.4,7-1.9,11.8-3.1,15c-1.6,0.1-2.7,0.2-2.7,0.2c-0.3,1,0,2.4,0.9,4.1c-0.1,0.3-0.2,0.6-0.3,0.8c-1,4.4,10.2,10.7,15.3,10.9
				c3,0.1,4.6-1.1,5.5-2.6C1730.8,865.9,1730.3,858.9,1725.6,857z"/>
		</g>
		<g>
			<path class="st8" d="M1725.6,843.7c0,0-0.7,5-1,9.8c-9-0.9-13.2-9.4-14.8-14L1725.6,843.7z"/>
		</g>
		<g>
			<path class="st21" d="M1708.2,837.6c0,0-4.2-7.7-4.9-14.2c-0.5-4.6,2.9-21.3,19.7-17.7c0,0,4.9,0.8,9.3,4.2
				c3.5,2.7,8.4,8.4,1.5,22.7l-1.9,4.9L1708.2,837.6z"/>
		</g>
		<g>
			<path class="st8" d="M1728.3,848.4c0,0-21.3-1.1-20.4-14.3c0.9-13.2-1.3-22.3,12.3-22.2c13.6,0.1,15.9,5.3,16.7,9.8
				C1737.7,826.3,1733.8,848.4,1728.3,848.4z"/>
		</g>
		<g>
			<path class="st21" d="M1729.9,812.3c0,0-6.9,15.1-15.9,16.8c-9.1,1.7-12.8-0.9-12.8-0.9s7.2-5,9.3-14.4
				C1710.4,813.8,1726,804.6,1729.9,812.3z"/>
		</g>
		<g>
			<path class="st21" d="M1728.4,813.4c0,0,4.1,3.8,4.9,7.2c0.8,3.4,0.8,10.4,2.9,10.3c0,0,5.1-10.3,0.6-16.6
				C1732,807.7,1728.4,813.4,1728.4,813.4z"/>
		</g>
		<g>
			<path class="st6" d="M1749.5,943.3c-1.7,2.1-7.1,2.7-12.8,3.6c-4.5,0.7-9.3,1.7-12.6,3.7c-7.7,4.5-32.7,19.7-40,19
				c-2.8-0.3-2.3-5.7-0.6-12.9c2.7-11.4,8.4-27.2,8.4-34.1c0-3.8,1.2-12.6,2.9-22.8c0.1-0.8,0.3-1.6,0.4-2.5c3.3-19.7,7.9-43,7.9-43
				s5.1,11.1,15,11.1c9.9,0,7.6-8.5,7.6-8.5s9.1,1.1,11.2,3.4c2.1,2.3,7.6,12.3,8.6,15c0,0,0.2,3.5-8.3,5.1c0,0,2.1,9.4,2.3,15.6
				c0.2,4.6-3.2,19.1-4.1,28.1c-0.3,3.2-0.4,5.7,0.1,6.8c0.7,1.5,2.8,2.9,5.2,4.3C1745.6,938.1,1751.6,940.8,1749.5,943.3z"/>
		</g>
		<g>
			<path class="st17" d="M1740.7,935.3c5.5,9.4-14.9,12.2-18.3,14.2c-7.7,4.5-31.1,20.8-38.4,20.1c-2.8-0.3-2.3-5.7-0.6-12.9
				c2.7-11.4,8.4-27.2,8.4-34.1c0-3.8,1.2-12.6,2.9-22.8l8.8-8.5c0,0,9.5,24.5,18.5,28.5c4.7,2.1,9.7,3.5,13.3,4.3
				c-0.3,3.2-0.4,5.7,0.1,6.8C1736.2,932.4,1738.3,933.9,1740.7,935.3z"/>
		</g>
		<g>
			<rect x="1742.6" y="942.1" class="st14" width="27.8" height="3.3"/>
		</g>
		<g>
			<path class="st14" d="M1764.5,945c0.3-1.1,25.6-40.8,25.6-40.8h56.2l-28.2,39.7L1764.5,945z"/>
		</g>
		<g>
			<path class="st13" d="M1766.9,945.4c0.3-1.1,25.6-41.2,25.6-41.2h53.8l-26.8,41.2H1766.9z"/>
		</g>
		<g>
			<path class="st5" d="M1811.4,926.2c-0.6,1.6-2.3,2.9-3.9,2.9s-2.5-1.3-1.9-2.9s2.3-2.9,3.9-2.9S1812,924.6,1811.4,926.2z"/>
		</g>
		<g>
			<path class="st8" d="M1757.9,931.9c-1.2-0.5-10.1,1.1-12.7,1.6c-8.1-1.6-34.9-6.9-36.2-8.6c-1.5-2-4.9-62.2-8.7-63.2
				c0,0-7.6-4.6-14.9,4.1s5.2,70.9,16,74.1c12,3.5,46.7-0.6,46.7-0.6v0c2.9,1,7.8,1.5,10.5,2.4c3.5,1.2,6.6,0.2,7.4-1.2
				C1766.8,939.2,1759.3,932.4,1757.9,931.9z"/>
		</g>
		<g>
			<path class="st6" d="M1703,854.4c0,0-15.5,1.4-20,6.5c-4.5,5.1-5.8,18.9-5.8,18.9s13.7,11,30.1,6.7L1703,854.4z"/>
		</g>
		<g>
			<path class="st1" d="M1764.1,687.6c0,0-16.4,72.5-92.2,98.2c0,0,0.7,111.8,9.3,141.2c8.6,29.4,10.7,49.4,10.7,49.4h-20V687.6
				H1764.1z"/>
		</g>
		<g>
			<path class="st17" d="M1634.2,998.2v0.8h289.9v-0.8c0-12.1-9.8-21.8-21.8-21.8h-4.8V753v-12.4v-64h-236.5v64V753v223.4h-4.8
				C1644,976.4,1634.2,986.2,1634.2,998.2z M1886.4,740.6h-214.5v-53h214.5V740.6z M1886.4,976.4h-214.5V753h214.5V976.4z"/>
		</g>
		<g>
			<path class="st14" d="M1850,954.6c0,0,7.6,3.1,13-4.7C1863,949.9,1854.2,948.5,1850,954.6z"/>
		</g>
		<g>
			<path class="st14" d="M1849.4,951.4c0,0-0.5-2.7-3.7-2.8C1845.7,948.6,1846.9,951.4,1849.4,951.4z"/>
		</g>
		<g>
			<path class="st14" d="M1851,935.5c0,0,3.7,0.4,5.1-3.7C1856.1,931.9,1852.1,932.3,1851,935.5z"/>
		</g>
		<g>
			<path class="st14" d="M1859.8,882c-7.5-1.6-7.6-7.7-7.6-7.7C1861,877.1,1859.8,882,1859.8,882z"/>
		</g>
		<g>
			<linearGradient id="SVGID_6_" gradientUnits="userSpaceOnUse" x1="1860.2998" y1="879.3293" x2="1868.2529" y2="879.3293">
				<stop  offset="0" style="stop-color:#D1E4A5"/>
				<stop  offset="0.5" style="stop-color:#ACD479"/>
				<stop  offset="1" style="stop-color:#76B83F"/>
			</linearGradient>
			<path class="st24" d="M1860.3,880.6c0,0,4.6,1.9,8-2.9C1868.3,877.8,1862.9,876.9,1860.3,880.6z"/>
		</g>
		<g>
			<g>
				<path class="st14" d="M1850.1,972.5l-1,1.1c-0.1,0.2-0.4,0.1-0.4-0.2c0.1-31.4,4-59.2,7.4-75.7c3.7-17.9,7.4-28.6,7.4-28.7l0,0
					c0,0.1-3.4,10.9-7,28.8c-3.4,16.5-7.2,38-6.2,74.2C1850.3,972.2,1850.2,972.4,1850.1,972.5z"/>
			</g>
		</g>
		<g>
			<path class="st21" d="M1863.4,864.8c-1.2,1-5.7,5-1.3,8.2c0,0,3.4,1.1,4.5-1.5c0.9-2,1.1-4.2,1.1-5.1c0-0.2-0.2-0.5-0.4-0.5
				c-0.3,0-0.6-0.1-1-0.2c-0.4-0.2-0.6-0.8-1.2-0.9c-0.4-0.1-0.7-0.2-1.1-0.1C1863.8,864.6,1863.6,864.7,1863.4,864.8z"/>
		</g>
		<g>
			<path class="st14" d="M1860.9,871.9c0,0,1.3,1.1,0.8,2.8l0,0.6c0,0,0.4-1.6,2-2.1C1863.7,873.2,1862.3,873.4,1860.9,871.9z"/>
		</g>
		<g>
			<linearGradient id="SVGID_7_" gradientUnits="userSpaceOnUse" x1="1852.2109" y1="878.1633" x2="1859.7881" y2="878.1633">
				<stop  offset="0" style="stop-color:#D1E4A5"/>
				<stop  offset="0.5" style="stop-color:#ACD479"/>
				<stop  offset="1" style="stop-color:#76B83F"/>
			</linearGradient>
			<path class="st25" d="M1859.8,882c-7.5-1.6-7.6-7.7-7.6-7.7S1858.1,877.6,1859.8,882z"/>
		</g>
		<g>
			<path class="st14" d="M1852.6,877.8c0,0-4.7,1.8-7.9-3C1844.7,874.8,1850.1,874,1852.6,877.8z"/>
		</g>
		<g>
			<g>
				<path class="st14" d="M1861,969.9l0.9,1.1c0.1,0.2,0.4,0.1,0.4-0.2c0.6-31.4-2.9-59.3-5.9-75.8c-3.3-18-6.8-28.7-6.8-28.8l0,0
					c0,0.1,3.2,11,6.4,28.9c3,16.5,6.4,38.1,4.7,74.3C1860.8,969.6,1860.9,969.8,1861,969.9z"/>
			</g>
		</g>
		<g>
			<path class="st21" d="M1849.8,862c1.2,1,5.6,5.1,1.2,8.2c0,0-3.4,1-4.5-1.6c-0.8-2-1-4.2-1-5.2c0-0.2,0.2-0.4,0.4-0.5
				c0.3,0,0.6-0.1,1-0.2c0.4-0.2,0.6-0.8,1.2-0.9c0.4-0.1,0.7-0.1,1.1-0.1C1849.4,861.7,1849.6,861.8,1849.8,862z"/>
		</g>
		<g>
			<path class="st14" d="M1852.2,869.1c0,0-1.4,1.1-0.9,2.8l0,0.6c0,0-0.3-1.6-2-2.1C1849.3,870.4,1850.8,870.5,1852.2,869.1z"/>
		</g>
		<g>
			<path class="st14" d="M1854.6,872.3c0,0,4.9,0.8,7.1-4.5C1861.8,867.8,1856.3,868.1,1854.6,872.3z"/>
		</g>
		<g>
			<g>
				<path class="st14" d="M1864.7,964.2l-0.7,1.3c-0.1,0.2-0.4,0.2-0.4-0.1c-6.8-30.6-9-58.7-9.3-75.5c-0.4-18.3,0.9-29.5,1-29.6
					l0,0c0,0.1-0.9,11.4-0.6,29.6c0.3,16.8,1.3,38.7,10.1,73.8C1864.8,963.9,1864.8,964.1,1864.7,964.2z"/>
			</g>
		</g>
		<g>
			<path class="st21" d="M1854.2,856.2c-1,1.2-4.5,6.2,0.5,8.3c0,0,3.5,0.3,4.1-2.5c0.4-2.1,0.1-4.3,0-5.3c0-0.2-0.3-0.4-0.5-0.4
				c-0.3,0-0.6,0.1-1,0c-0.4-0.1-0.8-0.6-1.4-0.7c-0.4,0-0.7,0-1.1,0.1C1854.6,855.9,1854.4,856.1,1854.2,856.2z"/>
		</g>
		<g>
			<path class="st14" d="M1853.3,863.7c0,0,1.5,0.8,1.4,2.6l0.1,0.6c0,0,0-1.6,1.5-2.5C1856.4,864.4,1854.9,864.8,1853.3,863.7z"/>
		</g>
		<g>
			<path class="st14" d="M1858.7,866.8c0,0,0-3.9,3.4-5.1C1862.1,861.7,1862.8,865,1858.7,866.8z"/>
		</g>
		<g>
			<linearGradient id="SVGID_8_" gradientUnits="userSpaceOnUse" x1="1848.0493" y1="858.6082" x2="1850.771" y2="858.6082">
				<stop  offset="0" style="stop-color:#D1E4A5"/>
				<stop  offset="0.5" style="stop-color:#ACD479"/>
				<stop  offset="1" style="stop-color:#76B83F"/>
			</linearGradient>
			<path class="st26" d="M1850.8,860.5c0,0,0.1-3-2.7-3.9C1848.1,856.7,1847.4,859.5,1850.8,860.5z"/>
		</g>
		<g>
			<linearGradient id="SVGID_9_" gradientUnits="userSpaceOnUse" x1="1858.2881" y1="875.8627" x2="1860.2607" y2="875.8627">
				<stop  offset="0" style="stop-color:#D1E4A5"/>
				<stop  offset="0.5" style="stop-color:#ACD479"/>
				<stop  offset="1" style="stop-color:#76B83F"/>
			</linearGradient>
			<path class="st27" d="M1859.8,878.5c0.1,0.1,1.4-2.9-1.3-5.3C1858.6,873.2,1857.4,876.4,1859.8,878.5z"/>
		</g>
		<g>
			<path class="st14" d="M1861.8,878.3c-0.1,0,0-1.5,1.4-1.7C1863.2,876.6,1863.4,877.8,1861.8,878.3z"/>
		</g>
		<g>
			<path class="st14" d="M1847.6,873.2c0,0-1.2-2.5-5-2C1842.6,871.2,1843.2,873.8,1847.6,873.2z"/>
		</g>
		<g>
			<path class="st23" d="M1868.8,976.2h-24.6c-1.7,0-2.9-1.5-2.7-3.1l11.4-78.8c0.1-0.7,0.7-1.3,1.5-1.3h3.6c0.8,0,1.5,0.6,1.6,1.4
				l11.7,78.8C1871.6,974.7,1870.4,976.2,1868.8,976.2z"/>
		</g>
		<g>
			<g>
				<path class="st28" d="M1849.7,973.8l6.1-80.8c-0.7,0.1-1.2,0.6-1.3,1.3l-11.4,78.8c-0.2,1.6,1,3.1,2.7,3.1h4.9
					C1850,975.6,1849.6,974.7,1849.7,973.8z"/>
			</g>
		</g>
	</g>
	<g>
		<path class="st29" d="M2521.1,1155.4h-5.2l0-0.4l1.6-13.8c0.1-0.4,0.4-0.8,0.9-0.8c0.1,0,0.1,0,0.2,0c0.3,0,0.6,0.2,0.8,0.3
			c0.2,0.2,0.4,0.5,0.4,0.9L2521.1,1155.4z"/>
		<path class="st6" d="M2516.5,1152.3l-0.2,0l1.3-11c0.1-0.4,0.4-0.8,0.9-0.8c0.1,0,0.1,0,0.2,0c0,0,0.1,0.1,0.1,0.1
			c0.2,0.2,0.4,0.6,0.4,0.9l0.1,7.9C2519.2,1151,2518,1152.2,2516.5,1152.3z"/>
		<rect x="2514.5" y="1216.6" class="st29" width="9.9" height="439.2"/>
		<rect x="2514.5" y="1216.6" class="st6" width="4.6" height="439.2"/>
		<rect x="2503.6" y="1585.8" class="st29" width="31.7" height="116.2"/>
		<rect x="2503.6" y="1585.8" class="st6" width="18.9" height="116.2"/>
		<path class="st29" d="M2536.8,1162c0,5.4-8.2,9.8-18.2,9.8c-0.8,0-1.5,0-2.3-0.1c-9-0.6-15.9-4.7-15.9-9.7s7-9.1,15.9-9.7
			c0.7-0.1,1.5-0.1,2.3-0.1C2528.6,1152.2,2536.8,1156.6,2536.8,1162z"/>
		<path class="st6" d="M2527.4,1162c0,4.4-4.6,8.1-11,9.7c-9-0.6-15.9-4.7-15.9-9.7s7-9.1,15.9-9.7
			C2522.8,1153.9,2527.4,1157.6,2527.4,1162z"/>
		<polygon class="st6" points="2535.3,1225.3 2503.6,1225.3 2492.4,1171.5 2544.7,1171.5 		"/>
		<rect x="2489.6" y="1167.4" class="st29" width="58" height="5.2"/>
		<rect x="2489.6" y="1167.4" class="st6" width="36.4" height="5.2"/>
		<path class="st29" d="M2508.8,1585.8h20.2l-3-9c-0.3-0.8-1-1.3-1.8-1.3h-9.5c-1,0-2,0.6-2.3,1.6L2508.8,1585.8z"/>
		<polygon class="st30" points="2496.2,1174.1 2540.8,1174.1 2532.1,1222.5 2506.5,1222.5 		"/>
		<path class="st30" d="M2501.6,1162.6c0,0,3.4-7.4,10.1-7.2c0,0-4.3,3.8-3.9,7.2C2508.2,1166,2501.6,1162.6,2501.6,1162.6z"/>
		<polygon class="st29" points="2543.8,1167.4 2493.3,1167.4 2497.4,1161.5 2539.9,1161.5 		"/>
		<polygon class="st6" points="2531.4,1167.4 2493.3,1167.4 2497.4,1161.5 2527.5,1161.5 		"/>
		<polygon class="st31" points="2499.1,1175.8 2509.4,1175.8 2512.3,1221 2509.4,1221 		"/>
	</g>
	<path class="st1" d="M1457,829l-244.4,80.6c12.6-14.6,26.3-28.8,41.1-42.4L1457,829z"/>
	<path class="st1" d="M1441.1,886.5c0-8.8,7.1-15.9,15.9-15.9c8.8,0,15.9,7.1,15.9,15.9c0,8.8-7.1,15.9-15.9,15.9
		C1448.2,902.5,1441.1,895.3,1441.1,886.5z"/>
	
		<rect x="1493" y="492" transform="matrix(0.9994 -3.600692e-02 3.600692e-02 0.9994 -17.5849 70.7011)" class="st6" width="922.3" height="63.1"/>
	<rect x="1643.6" y="606.6" class="st6" width="271.8" height="58.1"/>
	<g>
		<rect x="2025.3" y="682.2" class="st20" width="225.5" height="299.8"/>
		<rect x="2030.8" y="687.7" class="st22" width="214.5" height="288.8"/>
		<g>
			<path class="st6" d="M2081.8,684.8V767c0,0.7,0,1.4,0,2.1c-0.1,6.4-0.9,11.3-1.8,11.3h-0.3c-0.8,0-1.6-4.2-1.8-10
				c0-0.5,0-1,0-1.4c0,0,0-0.1,0-0.1c0-0.6,0-1.3,0-1.9v-82.6C2079.2,684.5,2080.5,684.6,2081.8,684.8z"/>
			<path class="st6" d="M2078.8,770.1c-14.2,0-25.8,12.2-25.8,27.3h51.6C2104.6,782.3,2093.1,770.1,2078.8,770.1z"/>
			<path class="st5" d="M2080.9,770.4c-0.7-0.2-1.5-0.2-2.3-0.2c-9.3,0-16.8,12.2-16.8,27.2h4.5
				C2066.4,783.6,2072.7,772.2,2080.9,770.4z"/>
		</g>
		<g>
			<path class="st13" d="M2074.5,887.9c0,0-12.7-14.8-0.8-24.2c0,0,8.7-5.3,15.8-4.8c0,0-10.1,16.9-6.8,18.5
				c3.3,1.7,9.9-19.6,9.9-19.6s19.8-1.9,26.2,1.1c0,0-16.9,13.9-13.4,14.7c3.6,0.8,21.9-12.8,21.9-12.8s18.4,3.1,17.5,14.4
				c-1,11.2-7.3,14.7-10.1,14.4c-2.8-0.3-19.1-6.5-19.5-4.2s9.5,9.8,16.4,10.1c0,0-13,14.3-21.6,10.2c-8.6-4.1-9.4-10.7-14.8-13.2
				c-5.4-2.5-10-2.5-7.8,0.1c2.2,2.5,12,4.9,15,10.4c3.1,5.4,5.8,9.1-3.1,7.8c-8.9-1.3-23.5-7.9-24.1-15.4
				C2074.5,887.9,2074.5,887.9,2074.5,887.9z"/>
			<g>
				<path class="st13" d="M2135.6,875.5c0,0-50.1-1.9-61.1,12.4c0,0-2.4,7.3-10,14l-1.2,3.2c0,0,8.7-9.1,11.8-9.7
					C2075.1,895.4,2070.3,877.6,2135.6,875.5z"/>
				<path class="st13" d="M2064.5,901.9c0,0-10.7,7.9-11.5,22.2l2,0.2c0,0,3.4-14.7,9.6-20.4C2070.8,898,2064.5,901.9,2064.5,901.9z
					"/>
			</g>
		</g>
		<path class="st17" d="M2041.9,889.7c0,0,0,0-2.8,5.9c-0.1,0.3-0.3,0.6-0.4,0.8c0,0,0,0,0,0c-1.2,2.6-4.2,4.3-7.9,5.4v-48.6
			c2.7,1.2,4.5,2,4.5,2s-1.1,22.1,2.5,21.7c3.6-0.5,0-19.7,0-19.7c6.8,2,13.1,9.9,13.1,9.9C2058.8,880.2,2041.9,889.7,2041.9,889.7z
			"/>
		<g>
			<path class="st13" d="M2046.4,906.2v3.4c0,0-0.1-0.1-0.2-0.4c0,0,0,0,0,0c-0.1-0.3-0.3-0.7-0.4-1c0-0.1-0.1-0.2-0.1-0.2
				c0-0.1-0.1-0.1-0.1-0.2c-0.3-0.7-0.7-1.4-1.1-2.3c0,0,0,0,0,0c-1.7-3.5-4.1-8-5.8-8.9c0,0,0,0,0,0c0-0.1,0.2-0.3,0.4-0.8
				c0.7-2,1.2-7.4-8.3-15.7v-2.9c5.5,4,9.7,8.3,11.1,12.7C2041.9,889.7,2041.7,897.3,2046.4,906.2
				C2046.4,906.2,2046.4,906.2,2046.4,906.2z"/>
			<path class="st13" d="M2046.4,906.2c0,0,7.3,11.1,3.1,24.6l-1.9-0.5c0,0,1.8-14.9-2-22.4C2041.9,900.4,2046.4,906.2,2046.4,906.2
				z"/>
		</g>
		<linearGradient id="SVGID_10_" gradientUnits="userSpaceOnUse" x1="2047.5032" y1="845.5812" x2="2144.0981" y2="845.5812">
			<stop  offset="0" style="stop-color:#D1E4A5"/>
			<stop  offset="0.5" style="stop-color:#ACD479"/>
			<stop  offset="1" style="stop-color:#76B83F"/>
		</linearGradient>
		<path class="st32" d="M2062.2,865.5c0,0-22.3-12.5-11.9-29.5c0,0,8.3-10.4,17.3-13.1c0,0-4.8,25.3,0,25.9s3.3-28.6,3.3-28.6
			s23.5-11.3,32.8-10.4c0,0-14.6,24.7-9.8,24.1c4.8-0.6,21.1-25.6,21.1-25.6s24.1-4.5,28,9.8c3.9,14.3-2.4,21.4-6,22.3
			c-3.6,0.9-26.5,0.6-25.9,3.6c0.6,3,16.1,7.7,24.7,5.1c0,0-9.5,23.5-22,22.3c-12.5-1.2-16.4-8.9-24.1-9.5
			c-7.7-0.6-13.4,1.5-9.5,3.6c3.9,2.1,17,0.7,23.2,6c6.3,5.3,11.3,8.6-0.3,11c-11.6,2.4-32.5,0.9-36.6-8
			C2062.2,865.5,2062.2,865.5,2062.2,865.5z"/>
		<g>
			<path class="st13" d="M2131.9,822.6c0,0-62.5,20.2-69.7,42.9c0,0,0.3,10.1-6,21.7v4.5c0,0,6.6-15.2,10.1-17.3
				C2066.4,874.4,2052.4,854.8,2131.9,822.6z"/>
			<path class="st13" d="M2056.2,887.2c0,0-9.6,14.6-4.1,32.5l2.5-0.7c0,0-2.4-19.6,2.6-29.5
				C2062.2,879.7,2056.2,887.2,2056.2,887.2z"/>
		</g>
		<path class="st23" d="M2197.1,930.6c0,0,33.1-134.7,35.4-146c1.1-5,4.3-6.9,7.6-7.3c-5.8-0.6-10-0.6-10-0.6
			c-11.4,0-21.6,8.2-25.3,20.4c-8,26.5-39,71-54,120.8C2151.7,917.8,2197.1,930.6,2197.1,930.6z"/>
		<path class="st23" d="M2030.8,976.5v-25.2c6-11.6,12.1-22.1,17.3-30.3c0.8-1.3,1.6-2.5,2.4-3.6v0c0.2-0.4,0.5-0.7,0.7-1.1v0
			c1-1.5,2-2.9,2.9-4.2c0,0,0,0,0,0c1.4-2,2.7-3.6,3.8-5c1.6-1.9,3.6-3.4,6-4.6c0,0,0,0,0,0c0.2-0.1,0.4-0.2,0.6-0.3
			c0.9-0.4,1.8-0.8,2.8-1.1c0.1,0,0.2-0.1,0.3-0.1h0c2.7-0.9,5.8-1.5,9.1-1.8h0c7.1-0.7,15.3-0.1,23.3,1h0c1,0.1,2.1,0.3,3.1,0.5
			c4.5,0.7,8.9,1.6,13,2.6c0,0,0,0,0,0c1.5,0.3,3,0.7,4.4,1.1c0.1,0,0.2,0.1,0.3,0.1h0c0.5,0.1,1,0.3,1.5,0.4
			c2.2,0.6,4.3,1.1,6.3,1.7c8.1,2.3,13.4,4.2,13.4,4.2l0,1.1l0.1,4.1l0.1,2l0.1,5.9l0,0.3l0,0.8l0.1,5.1l0,0.4l1.2,46.3H2030.8z"/>
		<path class="st12" d="M2186.7,928.5c-0.7-0.3-1.7-0.8-3-1.5h0c-0.3-0.1-0.5-0.2-0.8-0.4l0,0c-0.7-0.3-1.5-0.7-2.4-1.1
			c-1.1-0.5-2.2-1-3.4-1.6c-1.7-0.8-3.6-1.6-5.6-2.5c-0.6-0.3-1.2-0.5-1.8-0.8h0c-0.6-0.3-1.2-0.5-1.8-0.8c0,0,0,0,0,0
			c-2.4-1-4.9-2-7.5-3.1c0,0,0,0,0,0c-2.4-1-5-2-7.6-3l-0.4-0.2c-7.3-2.7-15.2-5.4-23.1-7.5c-2.5-0.7-4.9-1.3-7.4-1.8c0,0,0,0,0,0
			c-0.3-0.1-0.7-0.2-1-0.2h0c0,0,0,0-0.1,0h0c-1.5-0.3-3.1-0.6-4.6-0.9c0,0,0,0,0,0c-4.1-0.7-8.1-1.3-11.9-1.5
			c-0.9-0.1-1.8-0.1-2.7-0.1c-7-0.2-13.3,0.8-18.2,3.3c-3.3,1.7-6,4.1-7.9,7.4c-1.9,3.4-4.5,8.8-7.4,15.6
			c-5.4,12.6-12,30.1-17.7,48.6h133.2l0.3-3.8c0,0,0,0,0,0l0.7-7.4l3.3-36.2l0-0.1C2187.7,929,2187.3,928.8,2186.7,928.5z"/>
		<path class="st7" d="M2245.3,777.2v199.3h-7.7c-5.5-0.8-11-1.6-16.3-2.5h0c-9.1-1.6-17.7-3.3-25.2-5.2c-2.2-0.6-4.3-1.1-6.3-1.7
			c-1.2-0.4-2.4-0.7-3.5-1.1c-0.6-0.2-1.2-0.4-1.8-0.6c-8.4-2.9-13.8-6.1-14.5-9.6c-0.6-3.1,0.9-10.6,3.8-20.7c0,0,0,0,0,0
			c0.5-1.8,1.1-3.8,1.7-5.8c0.3-0.9,0.6-1.9,0.9-2.8c0.1-0.4,0.2-0.7,0.3-1.1l0.1-0.5c0.1-0.3,0.2-0.7,0.3-1c0-0.1,0.1-0.2,0.1-0.2
			v0c0.7-2.1,1.4-4.3,2.1-6.6c1.1-3.2,2.2-6.6,3.4-10c1.5-4.5,3.2-9.1,4.8-13.8c0.5-1.4,1-2.7,1.5-4.1c1.8-4.9,3.6-9.9,5.5-14.9
			c4.8-12.8,9.7-25.8,14.3-37.6c1.4-3.5,2.7-7,4-10.3c0,0,0,0,0,0c0.9-2.3,1.8-4.6,2.6-6.7c2.5-6.4,4.3-12.5,5.9-18v0
			c2.5-8.2,4.7-15.1,8.7-19.5c2.4-2.5,5.3-4.2,9.3-4.8c0.2,0,0.5-0.1,0.7-0.1c0,0,0,0,0,0h0c0.8-0.1,1.6-0.1,2.4-0.1H2245.3z"/>
		<path class="st7" d="M2221.3,974L2221.3,974l-13.4-44.2l-0.2-0.7c0,0-1.5-0.2-4.2-0.4c-1.5-0.1-3.4-0.3-5.7-0.5
			c-3.6-0.3-7.9-0.7-13-1h0c-0.1,0-0.3,0-0.4,0h0c-0.2,0-0.5,0-0.7,0h0c-0.9-0.1-1.9-0.1-2.9-0.2h0c-0.4,0-0.9-0.1-1.3-0.1
			c-1-0.1-2.1-0.1-3.2-0.2c-7.6-0.5-16.1-1-24.9-1.4c-2.2-0.1-4.4-0.2-6.6-0.3c-0.8,0-1.6-0.1-2.3-0.1c-5.3-0.2-10.7-0.3-16-0.4h0
			c-7.3-0.1-14.5-0.1-21.4,0h0c-0.5,0-1.1,0-1.6,0c-3.4,0.1-6.8,0.2-10,0.4c-6.1,0.3-11.8,0.9-16.9,1.6c-3.1,0.4-6,1-8.5,1.6
			c-5.9,1.4-10.2,3.2-12.4,5.6c-4.8,5.2-8.4,21.9-10.9,43h177.5L2221.3,974z"/>
		<path class="st8" d="M2171.7,842.7c0,0-7.6,2.7-13.6,14.9c-6,12.2-8.5,44.9-11.4,45.2c-3,0.3-25.5-4.1-25.5-4.1l0.5,5.6
			c0,0,23.4,15.6,28.3,12.8c4.9-2.8,18.4-40.6,19.3-46.3C2170.2,865,2171.7,842.7,2171.7,842.7z"/>
		<path class="st1" d="M2224,838.4c0,0-30.5-6.5-52.4,4.2c0,0-14,30.2-13.6,35.3c0.4,5.1,5.3,26.5,0.9,34.5
			c-4.4,8.1,40.6,22.4,48.7,17.4C2215.8,924.9,2225.4,844,2224,838.4z"/>
		<path class="st11" d="M2114.6,960.5c-2.1,4.8-4.8,10.2-7.9,16h-41.5c4.8-24.8,9-42.1,11.1-50.2c0.9-3.5,1.4-5.3,1.4-5.3
			c2-3.6,4.4-5.5,7.1-6.3c0,0,0,0,0,0c5.6-1.6,12.1,2.1,17.9,7.6c0.7,0.6,1.4,1.3,2,2h0c2.2,2.3,4.3,4.8,6.1,7.2
			c4.2,5.6,7.1,11.1,7.5,13.9C2119,948.8,2117.4,954.1,2114.6,960.5z"/>
		<path class="st11" d="M2084.7,914.9c0,0,9.3-5.3,30.5-0.7c21.2,4.6,38.5,15.6,38.5,15.6l-54.1,2.2L2084.7,914.9z"/>
		<path class="st8" d="M2215.6,838.4c0,0,13.5-2.5,15.4,8.5c1.9,11,0.2,77.5-10.1,80.8c-10.4,3.4-52.9-15.4-52.9-15.4l1.3-7.1
			c0,0,40.7,5.5,42.1,4.9C2212.9,909.6,2215.6,838.4,2215.6,838.4z"/>
		<path class="st33" d="M2111,888.5l-1.9-17.7l25.1,33c0,0-10.5,5.2-11.1,4.2C2122.5,907,2111,888.5,2111,888.5z"/>
		<polygon class="st21" points="2148.6,888.5 2171.7,923.9 2132.8,923.9 2111,888.5 		"/>
		<polygon class="st1" points="2111,888.5 2109.2,870.9 2122.3,887.3 		"/>
		<polygon class="st6" points="2170.5,922 2172.3,920.8 2149.3,886.6 2148.6,888.5 		"/>
		<polygon class="st5" points="2149.3,886.6 2112.6,887.6 2111,888.5 2148.6,888.5 		"/>
		<path class="st10" d="M2161.6,976.5h-41.5c-2-5.7-3.8-11.1-5.5-16c-4.2-12.5-7.2-22.3-9.2-28.8c-1-3.5-1.8-6-2.2-7.4
			c-0.3-1-0.4-1.4-0.4-1.4c0-0.2,0-0.4,0-0.6c0.1-4.6,1.6-7.7,4.2-9.6c0.1-0.1,0.3-0.2,0.4-0.3c0,0,0,0,0,0
			c4.2-2.8,10.8-2.7,17.6-1.1h0c6.1,1.4,12.3,3.9,17.1,6.4c3.9,2.1,6.9,4.2,8.1,5.8c0.1,0.1,0.2,0.2,0.3,0.4
			c0.2,0.3,0.5,0.7,0.7,1.2c0.6,1.1,1.2,2.6,1.8,4.3c0,0.1,0.1,0.2,0.1,0.3c0,0,0,0.1,0,0.1c2.3,7,4.4,18.1,6.2,30.7v0
			C2160.2,965.6,2160.9,971,2161.6,976.5z"/>
		<path class="st10" d="M2107.5,912.4c0,0,16-14.4,81.6,16.6l-53.8,0.8L2107.5,912.4z"/>
		<path class="st8" d="M2169.3,905.3c0,0-6-4-8.2-4.3c-2.6-0.4-5.4-3.6-5.1-1.8c0.3,1.8,3.1,4.2,3.9,5c0.8,0.8-4.5,0.6-6.6-0.4
			c-1-0.5-6.3-1.9-6.2,0c0,1.1,2.1,6.6,7.3,7.8c2.4,0.5,14,0.9,14,0.9L2169.3,905.3z"/>
		<path class="st10" d="M2196.5,807.5c0,0,11.4,6.2,2.6,18.6c0,0,9.9,1.4,12.4-1.4c0,0-0.4,1.2-0.9,1.8c0,0,9.6-1,13.2-4.5
			c3.5-3.5-5.8-52.2-31.7-43c0,0-22.8,1.4-17.1,27.2c5.7,25.8-2.8,27-2.8,27s2.5,0.8,3.7,0.7c0,0,1.6-0.9,1.8-1.8c0,0-0.1,1.5-0.5,2
			c0,0,9.3-0.4,13.4-4.5C2194.8,825.5,2198.5,812.7,2196.5,807.5z"/>
		<path class="st10" d="M2200.5,820.5c0,0,6.2-8.7,8-16.4c1.3-5.5,8.1-27.9-12.5-26c0,0-14.6,2.1-20.4,5.6
			c-4.6,2.8-11.4,8.9-5.1,27.1l1.5,6.1L2200.5,820.5z"/>
		<path class="st8" d="M2187.2,846.7c1.5,1.1,8.3,2.5,13.7-0.2c5.1-2.5,7.4-8,6.6-10.2c-0.8-2.2-3.1-3-5.7-16.4l-1,0.4l-16.6,6.8
			c0,0,1.5,5.4,2.5,10.5C2187.5,841.9,2186.3,846,2187.2,846.7z"/>
		<path class="st8" d="M2184.2,827.1c0,0,1.5,5.4,2.5,10.5c9.6-2.2,13-12,14.1-17.3L2184.2,827.1z"/>
		<path class="st8" d="M2182,832.6c0,0,22.9-4.1,20.2-18.3c-2.8-14.2-1.7-24.4-16.4-22.4c-14.8,2-16.5,8-16.8,13
			S2175.9,833.3,2182,832.6z"/>
		<path class="st10" d="M2175.8,788.5c0,0,11.3,19,22.4,20.3c11.1,1.3,13.7-3.6,13.7-3.6s-9.1-5.4-12.4-16.6
			C2199.4,788.7,2179.8,778.9,2175.8,788.5z"/>
		<path class="st10" d="M2177.7,789.8c0,0-4.6,4.9-5.4,9.1c-0.7,4.2-0.1,12.7-2.6,12.7c0,0-7-12-2.1-20
			C2172.9,783.2,2177.7,789.8,2177.7,789.8z"/>
		<path class="st10" d="M2176.8,790.6c0,0,7.7,18.9,22.1,23.3c0,0-15.2-10.1-18.2-22.9C2177.8,778.2,2176.8,790.6,2176.8,790.6z"/>
		<path class="st10" d="M2223.8,822.1c-3.5,3.5-13.2,4.5-13.2,4.5c0.5-0.6,0.9-1.8,0.9-1.8c-5,3.9-17.1,0.6-17.1,0.6
			c9.7-1.9,7-15.9,3.7-16.6c-1.6-10.6-5-23.8-6.7-29.7c0.4-0.1,0.7-0.1,0.7-0.1C2218,769.9,2227.4,818.6,2223.8,822.1z"/>
		<path class="st1" d="M2211.2,837.2c0,0,14.9,0.2,18.8,3.4c3.9,3.2,5.7,49.2,5.7,49.2s-7.1-1.9-13.4-0.4c-6.3,1.5-14.7,0-14.7,0
			L2211.2,837.2z"/>
		<path class="st1" d="M2186,838c0,0-18.8,3.8-23.1,8.8c-4.3,5-12.9,30.1-12.9,30.1s3.3,0.5,5.1,2.8c1.7,2.3,7.3,1.2,7.3,1.2
			L2186,838z"/>
		<g>
			<path class="st23" d="M2151.7,976.5c2.6-5.6,5.2-11,7.8-16v0c5.1-10.1,10.1-18.9,14.2-25.4c0,0,0,0,0,0c1.4-2.2,2.7-4.1,3.8-5.8
				c0.5-0.7,1-1.4,1.5-2c0.1-0.2,0.3-0.3,0.4-0.5c0.1-0.1,0.1-0.2,0.2-0.3c0.2-0.2,0.3-0.4,0.5-0.6c0.1-0.1,0.2-0.2,0.3-0.4
				c0.1-0.1,0.2-0.2,0.3-0.3c2.1-2,4.8-3.5,7.9-4.6c3.4-1.2,7.3-1.8,11.5-2.1c4-0.3,8.3-0.1,12.6,0.2h0c4.4,0.4,8.7,1,13,1.7
				c1.5,0.3,2.9,0.5,4.3,0.8c0,0,0,0,0.1,0h0c5.7,1.2,11,2.5,15.3,3.7v51.5H2151.7z"/>
			<path class="st12" d="M2182.4,976.5c0.4-1.3,0.9-2.5,1.3-3.8c0,0,0,0,0,0c0.8-2.3,1.7-4.6,2.5-6.8c2.4-6.3,4.7-12,6.8-17.1
				c3.2-7.5,6-13.4,8-16.9c0.2-0.3,0.4-0.7,0.6-1c0.5-0.8,1.1-1.6,1.8-2.3c0.8-0.9,1.7-1.7,2.6-2.4c1.5-1.1,3.3-2.1,5.1-2.8
				c4.1-1.6,8.9-2.3,14.2-2.3c1.5,0,3,0,4.5,0.1c0,0,0,0,0.1,0h0c2.5,0.2,5.2,0.4,7.8,0.8c0.5,0.1,0.9,0.1,1.4,0.2
				c0.1,0,0.2,0,0.3,0.1c1.9,0.3,3.8,0.7,5.8,1.1v53H2182.4z"/>
		</g>
		<path class="st17" d="M2261.3,976.4h-4.8V753v-12.4v-64h-236.5v64V753v223.4h-4.8c-12.1,0-21.8,9.8-21.8,21.8v0.8h289.9v-0.8
			C2283.1,986.2,2273.4,976.4,2261.3,976.4z M2030.9,687.6h214.5v53h-214.5V687.6z M2030.9,753h214.5v223.4h-214.5V753z"/>
		<g>
			<g>
				<rect x="2034.8" y="692.4" class="st1" width="207.4" height="10.4"/>
				<rect x="2034.8" y="708.7" class="st1" width="207.4" height="10.4"/>
				<rect x="2034.8" y="725.1" class="st1" width="207.4" height="10.4"/>
				<rect x="2034.8" y="740.5" class="st1" width="207.4" height="10.4"/>
				<rect x="2034.8" y="757.7" class="st1" width="207.4" height="10.4"/>
			</g>
			<rect x="2044.5" y="687.5" class="st1" width="2" height="89.2"/>
			<rect x="2231.8" y="687.5" class="st1" width="2" height="89.2"/>
		</g>
		<rect x="2002.2" y="606.6" class="st6" width="271.8" height="58.1"/>
	</g>
	<rect x="1643.6" y="1117.4" class="st6" width="271.8" height="58.1"/>
	<rect x="2002.2" y="1117.4" class="st6" width="271.8" height="58.1"/>
</g>
</svg>
