<?xml version="1.0" encoding="utf-8"?>
<!-- Generator: Adobe Illustrator 22.0.1, SVG Export Plug-In . SVG Version: 6.00 Build 0)  -->
<svg version="1.1" id="_x2014_ÎÓÈ_x5F_1" xmlns="http://www.w3.org/2000/svg" xmlns:xlink="http://www.w3.org/1999/xlink"
	 x="0px" y="0px" viewBox="0 0 3600 2000" style="enable-background:new 0 0 3600 2000;" xml:space="preserve">
<style type="text/css">
	.st0{fill:#5E2E0D;}
	.st1{fill:#C7D8F9;}
	.st2{fill:#F17497;}
	.st3{fill:url(#SVGID_1_);}
	.st4{fill:url(#SVGID_2_);}
	.st5{fill:url(#SVGID_3_);}
	.st6{opacity:0.88;fill:url(#SVGID_4_);}
	.st7{fill:url(#SVGID_5_);}
	.st8{fill:#242E6C;}
	.st9{fill:url(#SVGID_6_);}
	.st10{fill:#DCE7FD;}
	.st11{fill:url(#SVGID_7_);}
	.st12{fill:url(#SVGID_8_);}
	.st13{fill:#1B2251;}
	.st14{fill:#F78A87;}
	.st15{fill:url(#SVGID_9_);}
	.st16{fill:url(#SVGID_10_);}
	.st17{fill:url(#SVGID_11_);}
	.st18{fill:url(#SVGID_12_);}
	.st19{fill:url(#SVGID_13_);}
	.st20{fill:url(#SVGID_14_);}
	.st21{fill:url(#SVGID_15_);}
	.st22{fill:url(#SVGID_16_);}
	.st23{fill:url(#SVGID_17_);}
	.st24{fill:#EFAC7F;}
	.st25{fill:#0B0754;}
	.st26{fill:#D19369;}
	.st27{fill:#C0D3F8;}
	.st28{fill:#B1C9F6;}
	.st29{fill:#060632;}
	.st30{fill:#FA7269;}
	.st31{fill:#E75755;}
	.st32{fill:#282828;}
	.st33{fill:#EA8888;}
	.st34{fill:#313B75;}
	.st35{fill:#FFA09C;}
	.st36{opacity:0.5;}
	.st37{fill:#3662C1;}
	.st38{fill:#FFA5A2;}
	.st39{fill:#93B3F4;}
	.st40{fill:#E9E7FA;}
	.st41{fill:#9E332E;}
	.st42{fill:#DFDCF7;}
	.st43{fill:#ECEBFC;}
	.st44{fill:#F9795A;}
	.st45{fill:#FF8783;}
	.st46{fill:#6B6F8E;}
	.st47{fill:#28326F;}
	.st48{fill:#222956;}
	.st49{fill:#FFFFFF;}
	.st50{opacity:0.3;fill:#FD8857;enable-background:new    ;}
	.st51{fill:#FF9490;}
	.st52{fill:#FF9C98;}
	.st53{fill:#E3E0F8;}
	.st54{fill:#D7E3FB;}
	.st55{opacity:0.3;fill:#F382A1;enable-background:new    ;}
	.st56{fill:#FD8857;}
</style>
<g>
	<g>
		<g>
			<path class="st0" d="M3088,1244.2h-310.6c-4.1,0-7.5-3.4-7.5-7.5v-23.9c0-4.1,3.4-7.5,7.5-7.5H3088c4.1,0,7.5,3.4,7.5,7.5v23.9
				C3095.5,1240.8,3092.1,1244.2,3088,1244.2z"/>
			<g>
				<path class="st1" d="M2848.9,1244.2l-3.9,22.7l-56,328.6c-0.2,1.1-1.4,2-2.9,2c-2.9,0-5.1-1.9-4.8-4.1l44.4-336.5l1.7-12.7
					H2848.9z"/>
			</g>
			<path class="st2" d="M2848.9,1244.2l-3.9,22.7c-2.7-9-19.3-10-19.3-10l1.7-12.7H2848.9z"/>
			<g>
				<g>
					<path class="st0" d="M3079.4,1824.1c-1.5,0-2.8-1.4-2.9-3.3l-56-539.4l-2.4-23.2l-1.5-14h21.5l1.7,20.9l1.3,16.4l43.1,536
						C3084.5,1821,3082.3,1824.1,3079.4,1824.1z"/>
				</g>
				<path class="st0" d="M3041.1,1281.4c-5.5-17.8-23-23.2-23-23.2l0,0l-1.5-14h21.5l1.7,20.9L3041.1,1281.4z"/>
			</g>
		</g>
		<g>
			
				<linearGradient id="SVGID_1_" gradientUnits="userSpaceOnUse" x1="2804.8999" y1="1062.9327" x2="3084.5149" y2="1062.9327" gradientTransform="matrix(1 0 0 -1 0 1997.8099)">
				<stop  offset="0" style="stop-color:#D1E4A5"/>
				<stop  offset="0.5" style="stop-color:#ACD479"/>
				<stop  offset="1" style="stop-color:#76B83F"/>
			</linearGradient>
			<path class="st3" d="M2804.9,1045c0,0,109-161.4,249.9-218.6c18.7-7.6,36.7,12.6,27,30.4c-0.2,0.3-0.3,0.6-0.5,0.9
				C3064.4,887.8,2899.2,966.4,2804.9,1045z"/>
			
				<linearGradient id="SVGID_2_" gradientUnits="userSpaceOnUse" x1="2768.8999" y1="1002.9579" x2="3191.2827" y2="1002.9579" gradientTransform="matrix(1 0 0 -1 0 1997.8099)">
				<stop  offset="0" style="stop-color:#D1E4A5"/>
				<stop  offset="0.5" style="stop-color:#ACD479"/>
				<stop  offset="1" style="stop-color:#76B83F"/>
			</linearGradient>
			<path class="st4" d="M2768.9,1088.7c0,0,198.4-169.7,397.2-187.6c12.1-1.1,23.4,7.4,25,19.5c1,7.9-1.9,17.9-13.7,29.7
				C3146,982,2913.3,1023.2,2768.9,1088.7z"/>
		</g>
		
			<linearGradient id="SVGID_3_" gradientUnits="userSpaceOnUse" x1="2194.2156" y1="1360.5938" x2="2472.1084" y2="1360.5938" gradientTransform="matrix(1 0 0 -1 0 1997.8099)">
			<stop  offset="0" style="stop-color:#D1E4A5"/>
			<stop  offset="0.5" style="stop-color:#ACD479"/>
			<stop  offset="1" style="stop-color:#76B83F"/>
		</linearGradient>
		<path class="st5" d="M2444.6,461.4c-34-36.9-99.5,14.3-99.5,14.3s-10,100.8-23.4,110c-13.4,9.2-8.2-87.8-8.2-87.8
			c-29.1,11.8-82.1,82.6-82.1,82.6s50.1,85.3,34.9,91c-15.2,5.7-40.5-77.8-40.5-77.8c-22.6,22-31.4,66.4-31.4,66.4
			c-4.7,67.3,81.9,69.9,81.9,69.9s16.7,29.9,16.1,74.6l0,0c0,0-0.9,8.7,0.5,21.8l7.3-3.8c-0.4-2.3-0.8-4.5-1-6.7l0,0v-0.1
			c-0.1-1.4-0.2-3.4-0.3-5.8l0,0l0,0c0-5.5-0.2-9.6-0.5-12.4l0,0c-0.5-17.2-0.1-40.1,4.3-47.3c0,0-1.4-0.7-3.3-2.5
			c1.1,0.8,2.2,1.7,3.3,2.5c26.5,20.3,91.5-7.8,122.6-33.2c31.2-25.3,10.8-27.2-16.3-33.4s-64.3,18.5-79.2,18.3s-1.2-15.3,23-25.6
			s47.9,6.9,87.4-9.1c39.4-16,31.2-101.6,31.2-101.6c-21.7,21.6-75.7,31.5-82.2,23.5s62.9-43,72.2-51.3
			C2471,529.5,2478.6,498.3,2444.6,461.4z"/>
		
			<linearGradient id="SVGID_4_" gradientUnits="userSpaceOnUse" x1="2456.0232" y1="1226.3333" x2="2867.3413" y2="1226.3333" gradientTransform="matrix(1 0 0 -1 0 1997.8099)">
			<stop  offset="0" style="stop-color:#D1E4A5"/>
			<stop  offset="0.5" style="stop-color:#ACD479"/>
			<stop  offset="1" style="stop-color:#76B83F"/>
		</linearGradient>
		<path class="st6" d="M2826.4,511.5c-50.3-54.5-147.1,21.1-147.1,21.1s-14.9,149-34.6,162.7c-19.8,13.7-12.2-129.9-12.2-129.9
			c-43.1,17.4-121.4,122.1-121.4,122.1s74.2,126.2,51.6,134.6c-22.5,8.4-60-115.1-60-115.1c-33.5,32.6-46.4,98.2-46.4,98.2
			c-7,99.5,121.1,103.4,121.1,103.4s24.8,44.3,23.9,110.3l0,0c0,0-1.3,12.8,0.8,32.3l10.8-5.6c-0.6-3.4-1.1-6.7-1.4-9.9
			c0,0,0,0,0-0.1v-0.1c-0.1-2.1-0.3-5-0.5-8.6l0,0l0,0c-0.1-8.2-0.3-14.1-0.7-18.3l0,0c-0.7-25.5-0.2-59.4,6.4-69.9
			c0,0-2.1-1.1-4.9-3.8c1.6,1.2,3.2,2.4,4.9,3.8c39.2,30,135.2-11.6,181.3-49.1s16-40.3-24.1-49.4c-40.1-9.1-95,27.4-117.1,27.1
			c-22-0.3-1.7-22.7,34.1-37.9c35.8-15.3,70.9,10.2,129.2-13.5s46.2-150.2,46.2-150.2c-32.2,31.9-112,46.6-121.5,34.7
			c-9.5-11.8,93-63.6,106.8-75.8C2865.5,612.2,2876.7,566,2826.4,511.5z"/>
		
			<linearGradient id="SVGID_5_" gradientUnits="userSpaceOnUse" x1="1406.9" y1="1001.0244" x2="2001.2001" y2="1001.0244" gradientTransform="matrix(1 0 0 -1 0 1997.8099)">
			<stop  offset="0" style="stop-color:#D1E4A5"/>
			<stop  offset="0.5" style="stop-color:#ACD479"/>
			<stop  offset="1" style="stop-color:#76B83F"/>
		</linearGradient>
		<path class="st7" d="M1406.9,906.6c-0.1-83,137-94.3,137-94.3s125.4,111.2,152,107.4s-88.6-116-88.6-116
			c48.6-18.4,192.5,8.2,192.5,8.2s34.9,160.1,59.8,149.8c24.9-10.2-38.1-140.1-38.1-140.1c52.3,1.4,112.7,45.5,112.7,45.5
			c81.3,76.5-21.1,177-21.1,177s13.3,55.2,64.2,108.8l0,0c0,0,10.8,9.5,23.9,27.1l-13.2,3.6c-2-3.2-4.2-6.3-6.4-9.3c0,0,0,0,0-0.1
			l-0.1-0.1c-1.5-1.8-3.5-4.3-6.1-7.4l0,0l0,0c-6.2-6.8-10.5-11.9-13.3-15.6l0,0c-18.8-21.5-44.9-49-58.3-52.6c0,0,0.9-2.4,1.2-6.8
			c-0.4,2.2-0.8,4.4-1.2,6.8c-9.4,54.5-120,93.2-186.3,97.4c-66.3,4.2-43.8-21-17.8-58.9c26-38,98.9-49.6,116.8-66.6
			s-15.8-19.9-56.8-5.3s-50.6,62.2-116.5,87s-152-88.4-152-88.4c50.7,1.8,127.4-46.7,126.3-63.7c-1.2-17-124.8,18.3-145.4,18.8
			C1451.3,1019.1,1407,989.6,1406.9,906.6z"/>
		<g>
			<g>
				<path class="st8" d="M2914.4,1254.4c0,34.7-3.1,68.7-9.1,101.7c-47.9,263.2-278.2,462.7-555.2,462.7
					c-230.4,0-428.5-138-516.2-335.9c-11.6-26.1-21.2-53.2-28.7-81.2c-12.7-47-19.4-96.4-19.4-147.3c0-41.7,4.5-82.3,13.1-121.4
					c23.4-107,77.2-202.6,151.9-277.3c21.2-21.2,44-40.8,68.4-58.4c93-67.5,207.3-107.2,331-107.2c14.4,0,28.6,0.5,42.7,1.6
					c19.9,1.5,39.4,4,58.7,7.5c131.4,23.8,246.9,93.1,329.7,191c16.7,19.7,32.1,40.6,45.9,62.6
					C2882.3,1039.9,2914.4,1143.4,2914.4,1254.4z"/>
				<path class="st8" d="M2914.4,1254.4c0,34.7-3.1,68.7-9.1,101.7c-6.2,34.1-15.5,67.2-27.5,98.8
					c-80.8,212.7-286.6,363.9-527.7,363.9c-96.1,0-186.6-24-265.8-66.4c-7.3-3.9-14.5-8-21.6-12.2
					c-68.6-40.6-127.8-95.4-173.7-160.3c-21.4-30.3-39.9-62.8-55.1-97.1c-11.6-26.1-21.2-53.2-28.7-81.2
					c63.7,15.2,164.4,31.5,285,23.9c21-1.3,42.5-3.4,64.6-6.3c77.7-10.2,161.8-31.1,248.4-68.2c205.4-88.1,343.5-264.4,423.9-398.5
					C2882.3,1039.9,2914.4,1143.4,2914.4,1254.4z"/>
				<linearGradient id="SVGID_6_" gradientUnits="userSpaceOnUse" x1="2300.7627" y1="1158.5006" x2="2914.3999" y2="1158.5006">
					<stop  offset="5.618000e-03" style="stop-color:#D7F0FC"/>
					<stop  offset="0.4494" style="stop-color:#ABE1FA"/>
					<stop  offset="1" style="stop-color:#96CFF1"/>
				</linearGradient>
				<path class="st9" d="M2914.4,1254.4c0,34.7-3.1,68.7-9.1,101.7c-23-3.3-52.9-6.6-71.4-4.4c-33.3,3.9-66.5,72.4-135,75.1
					s-152.6-49.7-242.7-14.4c-90,35.2-137-2-152.6-27.4c-15.7-25.4,39.1-84.2,34.2-109.6c-5-25.4,6.9-111.5,83.2-111.5
					s107.9-41.7,121.3-56.8c38.4-43.1,68.5-3.9,99.8-37.2c31.3-33.3-23.5-92,0-131.1s139-48.7,139-48.7
					C2864.2,988.4,2914.4,1115.5,2914.4,1254.4z"/>
				<path class="st10" d="M2082.4,1158.4c-27.4,38.6,9.8,118.8-13.7,159.9s-68.5,33.3-101.8,52.8c-28.9,17-40.5,87.1-133.1,111.7
					c-31-69.8-48.2-147.2-48.2-228.5c0-41.7,4.5-82.3,13.1-121.4c18.9-19.1,44.8-36.2,80.1-45.5c111.5-29.4,114.3-111.5,159.3-113
					C2147.9,970.6,2109.8,1119.8,2082.4,1158.4z"/>
				<radialGradient id="SVGID_7_" cx="2436.8101" cy="1014.4842" r="113.4405" gradientUnits="userSpaceOnUse">
					<stop  offset="5.618000e-03" style="stop-color:#D7F0FC"/>
					<stop  offset="0.4494" style="stop-color:#ABE1FA"/>
					<stop  offset="1" style="stop-color:#96CFF1"/>
				</radialGradient>
				<path class="st11" d="M2503.2,945.5c0,0-68.5-13.7-105.7,9.8s-112.5,65.6-102.7,90c9.8,24.5,81.2,43.1,110.6,42.1
					c29.4-1,9.4-59,151.7-42.1C2593,1049.6,2593.6,970.4,2503.2,945.5z"/>
				<linearGradient id="SVGID_8_" gradientUnits="userSpaceOnUse" x1="1950.6001" y1="785.7095" x2="2451.3" y2="785.7095">
					<stop  offset="5.618000e-03" style="stop-color:#D7F0FC"/>
					<stop  offset="0.4494" style="stop-color:#ABE1FA"/>
					<stop  offset="1" style="stop-color:#96CFF1"/>
				</linearGradient>
				<path class="st12" d="M2451.3,699.1c-34.7,60.7-98.2,137.7-205.5,165.5c-129.4,33.5-239.5,9.3-295.2-8.9
					c21.2-21.2,44-40.8,68.4-58.4c93-67.5,207.3-107.2,331-107.2c14.4,0,28.6,0.5,42.7,1.6C2412.5,693.1,2432.1,695.6,2451.3,699.1z
					"/>
				<path class="st13" d="M2877.7,1454.9c-80.8,212.7-286.6,363.9-527.7,363.9c-96.1,0-186.6-24-265.8-66.4
					c-7.3-3.9-14.5-8-21.6-12.2C2208.3,1729.6,2571.8,1679.8,2877.7,1454.9z"/>
				<path class="st14" d="M2177.2,1617.1c-29.9,21.8-37.1,89-56.2,98.2c-9.6,4.7-24.4,21.5-36.7,37
					c-77.8-41.6-144.6-100.8-195.3-172.4c33.9-23.5,97.4-63.2,141.5-64.3c0,0,22-0.3,38.3-45c6.4-17.6,13.3-33.3,21.3-45
					c12.3-18.1,27.1-27.1,46.8-20c8.4,3,13.8,7.8,17.7,13.7c11.4,17,12.1,43.9,44.2,69.9C2242.3,1524.3,2207.2,1595.2,2177.2,1617.1
					z"/>
			</g>
			<g>
				<linearGradient id="SVGID_9_" gradientUnits="userSpaceOnUse" x1="2469.1807" y1="796.45" x2="2605.6001" y2="796.45">
					<stop  offset="0" style="stop-color:#D1E4A5"/>
					<stop  offset="0.5" style="stop-color:#ACD479"/>
					<stop  offset="1" style="stop-color:#76B83F"/>
				</linearGradient>
				<path class="st15" d="M2605.6,858.7c0,0-5.9-106.1-136.4-124.5C2469.2,734.2,2464.4,858.7,2605.6,858.7z"/>
				<linearGradient id="SVGID_10_" gradientUnits="userSpaceOnUse" x1="2599.7" y1="804.2723" x2="2746.7" y2="804.2723">
					<stop  offset="0" style="stop-color:#64C08A"/>
					<stop  offset="0.5" style="stop-color:#00A550"/>
					<stop  offset="1" style="stop-color:#00914C"/>
				</linearGradient>
				<path class="st16" d="M2599.7,858c0,0,104.6,19.8,147-105C2746.7,753,2625.9,719.3,2599.7,858z"/>
				<linearGradient id="SVGID_11_" gradientUnits="userSpaceOnUse" x1="2580.9526" y1="763.2999" x2="2624.4561" y2="763.2999">
					<stop  offset="0" style="stop-color:#64C08A"/>
					<stop  offset="0.5" style="stop-color:#00A550"/>
					<stop  offset="1" style="stop-color:#00914C"/>
				</linearGradient>
				<path class="st17" d="M2601.1,813.8c0,0,46.4-37.6,8.4-101C2609.5,712.8,2551.3,752.2,2601.1,813.8z"/>
				<path class="st0" d="M2599.7,858c0,0-15.7,68-13,92h13c0,0-5-63.3,7.3-95.3L2599.7,858z"/>
			</g>
			<g>
				<linearGradient id="SVGID_12_" gradientUnits="userSpaceOnUse" x1="2679.5906" y1="995.45" x2="2744.1001" y2="995.45">
					<stop  offset="0" style="stop-color:#64C08A"/>
					<stop  offset="0.5" style="stop-color:#00A550"/>
					<stop  offset="1" style="stop-color:#00914C"/>
				</linearGradient>
				<path class="st18" d="M2744.1,1024.9c0,0-2.8-50.2-64.5-58.9C2679.6,966,2677.3,1024.9,2744.1,1024.9z"/>
				<linearGradient id="SVGID_13_" gradientUnits="userSpaceOnUse" x1="2741.3999" y1="999.0762" x2="2811" y2="999.0762">
					<stop  offset="0" style="stop-color:#D1E4A5"/>
					<stop  offset="0.5" style="stop-color:#ACD479"/>
					<stop  offset="1" style="stop-color:#76B83F"/>
				</linearGradient>
				<path class="st19" d="M2741.4,1024.5c0,0,49.5,9.4,69.6-49.7C2810.9,974.8,2753.8,958.9,2741.4,1024.5z"/>
				<linearGradient id="SVGID_14_" gradientUnits="userSpaceOnUse" x1="2732.5005" y1="979.7" x2="2753.0801" y2="979.7">
					<stop  offset="0" style="stop-color:#64C08A"/>
					<stop  offset="0.5" style="stop-color:#00A550"/>
					<stop  offset="1" style="stop-color:#00914C"/>
				</linearGradient>
				<path class="st20" d="M2742,1003.6c0,0,22-17.8,4-47.8C2746,955.8,2718.5,974.5,2742,1003.6z"/>
				<path class="st0" d="M2741.4,1024.5c0,0-7.4,32.2-6.1,43.5h6.1c0,0-2.4-30,3.5-45.1L2741.4,1024.5z"/>
			</g>
			<g>
				<linearGradient id="SVGID_15_" gradientUnits="userSpaceOnUse" x1="2488.6946" y1="886.2" x2="2529.2" y2="886.2">
					<stop  offset="0" style="stop-color:#64C08A"/>
					<stop  offset="0.5" style="stop-color:#00A550"/>
					<stop  offset="1" style="stop-color:#00914C"/>
				</linearGradient>
				<path class="st21" d="M2529.2,904.7c0,0-1.8-31.5-40.5-37C2488.7,867.7,2487.3,904.7,2529.2,904.7z"/>
				<linearGradient id="SVGID_16_" gradientUnits="userSpaceOnUse" x1="2527.5" y1="888.5377" x2="2571.2" y2="888.5377">
					<stop  offset="0" style="stop-color:#64C08A"/>
					<stop  offset="0.5" style="stop-color:#00A550"/>
					<stop  offset="1" style="stop-color:#00914C"/>
				</linearGradient>
				<path class="st22" d="M2527.5,904.5c0,0,31.1,5.9,43.7-31.2C2571.1,873.3,2535.3,863.3,2527.5,904.5z"/>
				<linearGradient id="SVGID_17_" gradientUnits="userSpaceOnUse" x1="2521.9131" y1="876.2999" x2="2534.8469" y2="876.2999">
					<stop  offset="0" style="stop-color:#D1E4A5"/>
					<stop  offset="0.5" style="stop-color:#ACD479"/>
					<stop  offset="1" style="stop-color:#76B83F"/>
				</linearGradient>
				<path class="st23" d="M2527.9,891.3c0,0,13.8-11.2,2.5-30C2530.4,861.3,2513.1,873,2527.9,891.3z"/>
				<path class="st0" d="M2527.5,904.5c0,0-4.7,20.2-3.8,27.3h3.8c0,0-1.5-18.8,2.2-28.3L2527.5,904.5z"/>
			</g>
		</g>
		<g>
			<path class="st24" d="M2837.2,832.1c0,0-10-2-12.3,0s-13.2,13-10.9,16.7c2.3,3.6,13.5-3,15.8-3.6s8.8-3.2,8.8-3.2L2837.2,832.1z"
				/>
			<path class="st25" d="M2944,1187.3l10.8,4c0,0,46.8-64.9,52.5-122c1-10.2,0.7-20.1-1.5-29.2c0,0,0.5-2.6,1.3-7.2
				c0.4-2.2,0.8-4.7,1.3-7.7c1.5-8.7,3.6-20.6,6-34.2c5.5-31.2,12.6-71.2,18.2-100.5l-2.9-0.9l-31.4-10.1l-6.5-20.6l-23.4-6.2
				c0,0-5.2,10.2-9.9,58.5c-0.9,6.3-1.6,13.3-2.2,20.9c-1.8,23.1-2,51.8,2.2,84.5c1.1,8.4,2.4,17,4.1,25.9
				c1.2,6.5,1.4,15.4,0.9,25.6C2961.1,1114.8,2944,1187.3,2944,1187.3z"/>
			<path class="st25" d="M2956.2,932l50.8,100.9c0.4-2.2,0.8-4.7,1.3-7.7c1.5-8.7,3.6-20.6,6-34.2c5.5-31.2,12.6-71.2,18.2-100.5
				l-2.9-0.9l-31.4-10.1l-6.5-20.6l-23.4-6.2c0,0-5.2,10.2-9.9,58.5C2957.6,917.5,2956.8,924.4,2956.2,932z"/>
			<path class="st25" d="M2978.5,865.6l1.2-10.1c19.7,5.2,72.3-14.6,72.3-14.6s19.1,16.8,16.6,57c-1.2,19.6-3.5,103-5.8,127.6
				c-0.8,8.9-1.6,15.3-1.9,17.8l0,0c-0.1,0.8,0.2,1.5,0.6,2.2c3.4,5.8,6.3,11.9,8.6,18.1c22.9,61-3.5,136.1-3.5,136.1l-6.9-2.8
				c0,0-15-83.6-27.2-120.5c-2.1-6.3-4.1-11.2-5.9-14.1c-5.3-8.6-10.2-22.6-14.7-39.2c-8.5-31.5-15.3-72.5-19.8-104.1
				C2991.5,919.1,2978.5,865.6,2978.5,865.6z"/>
			<path class="st24" d="M2837.2,832.1l1.5,9.9c0,0,0.7,0,1.8-0.1c3.6-0.2,12.3-0.7,22.2-1.8c14.8-1.5,32.4-4.1,39.4-8.4
				c10.7-6.5,28.2-26.5,39.6-46.5c0.3-0.5,0.6-1,0.8-1.5c5.9-10.6,10.1-21.1,10.4-29.5c0.2-5.1-0.3-9.5-1.4-13.4
				c-1.4-5.1-3.7-9-6-12.1c-0.3-0.5-0.7-1-1.1-1.4c-3.9-4.6-7.7-6.6-7.7-6.6c-2-0.8-4.1,0.2-6.3,2.5v0.1c-1.8,1.9-3.7,4.7-5.6,8.3
				c-0.1,0.1-0.2,0.2-0.2,0.2c-0.4,0.7-0.8,1.5-1.3,2.4c-0.2,0.2-0.2,0.4-0.3,0.6c-0.9,1.9-1.8,3.8-2.7,5.9
				c-10,21.8-20.7,54.9-29.6,64.8c-3.8,4.2-21.4,12.6-35.3,18.7C2845.4,828.9,2837.2,832.1,2837.2,832.1z"/>
			<path class="st24" d="M2940.9,743.4c6.2,2.9,13.6,4.8,22.7,5.3c33.8,1.9,41.5-27.8,42.9-47.5c-4.9-1.8-9.2-1.6-11.6-1.5
				c-2.4,0.1-4.9,0.4-7,0.6c-4.1-2.2-11.6-12.7-15.9-30.2l-1.5,0.7l-24.4,11.5c0,0,2.6,7.9,4.5,15.6c1.5,6,2.6,11.7,1.7,13.3
				c-1.9,0.8-3.1,1.3-3.1,1.3l0,0C2949,713,2943.7,726.6,2940.9,743.4z"/>
			<path class="st10" d="M2932.5,765.6c0.3,0.7,0.5,1.3,0.8,2c8.6,18.5,24.4,94.9,24.4,94.9c-2.3,13.8,103.3-2.7,103.6-15.2
				c3.7-13.3-13.2-34.6-22.7-45.3c-1.2-1.3-2.3-2.8-3.2-4.3c-2.4-3.8-3.9-8.1-4.3-12.6c-1.9-17.7-1.2-34.4-1.3-44.5l0,0
				c-1.9-1.4-3.7-2.7-5.3-3.9c-2.6-1.9-4.8-3.6-6.5-5.4c-1.8-1.9-3-3.9-3.1-6.1c-0.1-1.7,0-3.4,0.1-5.2c0.1-0.8,0.2-1.6,0.3-2.5
				c1.3-8.6,4.9-16.4,4.9-16.4c-9.1-3.7-25.2-1.5-25.2-1.5s0,0.9,0,2.4c0.1,5.9,0,21-1.9,23.9c-2.4,3.6-45.6,19.2-47.9,14.4
				c-2.3-4.8,3.9-27.1,4.1-27.9l0,0c-14.5,5.7-19.7,10.5-19.7,10.5C2938.4,728.5,2925.7,747.7,2932.5,765.6z"/>
			<path class="st0" d="M2961.6,606c0.1-1.5,1.2-17.3,25.3-18.1c0,0-11.8,1.4-13.9,6.6c0,0,8.1-6.4,14.6-4.4
				c6.6,2.1,10.4,13.6,10.5,17.4c0,3.8-3.6,16-7.8,17c-1.6,0.4-3.4,0.3-5,0c1.1,1.7,2.2,3.6,3.2,5.8c9.6,19.7-0.3,39-8.4,36.9
				c-5.2-1.4-6.7,7.5-6.7,7.5l-50.7-41C2922.7,633.7,2941.3,595.2,2961.6,606z"/>
			<path class="st26" d="M2946.2,682.3c0,0,2.6,7.9,4.5,15.6c14.3-4,18.6-19,19.9-27L2946.2,682.3z"/>
			<path class="st24" d="M2943.2,690.7c0,0,34.2-7.9,28.9-29.1c-5.2-21.2-4.4-36.5-26.4-32.3s-24.2,13.3-24.2,20.8
				C2921.5,657.5,2934.2,692.2,2943.2,690.7z"/>
			<path class="st0" d="M2919.5,638c3.7-7.7,8-7.3,10.7-5.9c16-14.8,31.8-2.7,31.8-2.7c6.1,14.6,19.2,20.6,19.2,20.6
				s-5.2,5.4-20.5,5.3c-4.6,0-9.3-2.2-13.6-5.1c8.2,8.3,17.8,13.3,17.8,13.3c-19-3.6-31.8-25.7-33.1-28c-1.6,2.4-4.7,7.5-5,11.7
				c-0.4,5.8,1.6,17.1-1.7,17.5C2925.3,664.7,2914,649.5,2919.5,638z"/>
			<path class="st27" d="M2929.6,722.9c0,0-8.2,14.3-9.5,18c0,0,10.7-0.4,15,7.8C2935.1,748.7,2936.2,724.8,2929.6,722.9z"/>
			<path class="st28" d="M2986.2,836.8c20.8-0.2,38.5-21.8,49.2-39.1c-2.4-3.8-3.9-8.1-4.3-12.6c-1.9-17.7-1.2-34.4-1.3-44.5l0,0
				c-1.9-1.4-3.7-2.7-5.3-3.9c-2.6-1.9-4.8-3.6-6.5-5.4C3000.9,760.2,2957.9,837.1,2986.2,836.8z"/>
			<path class="st24" d="M2907.5,848.2l2.9,10.4c0,0,3.6-0.7,9.3-1.7c1.7-0.3,2.7-0.6,2.7-0.6c4.6-0.9,10-2.1,16-3.4h0.1
				c10.2-2.4,21.6-5.4,31.2-8.6c6.8-2.4,12.6-4.9,16.6-7.4c0.4-0.2,0.7-0.5,1.1-0.8c9.5-6.9,20.9-27.3,29.7-49.1c1.2-3,2.4-6,3.5-9
				c4.1-10.9,7.3-21.7,9.3-31c1.2-5.5,2-10.6,2.2-14.8c0.1-1.5,0.2-2.9,0.1-4.2c-0.2-23.6-11.9-26.9-11.9-26.9
				c-0.2-0.1-0.5-0.2-0.8-0.2c-2-0.3-4.2,1.1-6.4,3.7c-2.8,3.3-5.7,8.8-8.7,15.4c-4.6,10.5-9.5,24.1-14.1,37.7
				c-2.5,7.4-5,14.8-7.4,21.7c-1.4,4.2-2.8,8.1-4.1,11.7c-2.5,6.8-4.8,12.4-6.8,15.9c-1.3,2.3-5.1,5.5-10,9
				c-8.6,6.3-21.3,13.9-32.3,20c-4.6,2.6-8.9,5-12.5,6.9C2911.3,846.1,2907.5,848.2,2907.5,848.2z"/>
			<path class="st27" d="M3004.3,720.1c15.7-4.3,27.8,7.9,27.8,7.9c-0.2-23.6-11.9-26.8-11.9-26.8
				C3015.4,699.2,3009.9,707.4,3004.3,720.1z"/>
			<path class="st29" d="M3026.7,1205.4h54.2c0,0,1.3-8.3-1.5-14.5c-2.7-6-7-8.8-5.9-16c-3.4,3.5-9.1,7.5-16.9,6.5
				c-1,1.6-6.2,9.9-9.4,12.2C3043.6,1196,3027.8,1195.1,3026.7,1205.4z"/>
			<path class="st29" d="M2910.3,1205.4h54.2c0,0,2-8.7-1.5-14.5c-3.2-5.2-1.9-8.2,0.4-12.5c-2.5,1-5.6,1.9-9.1,1.7
				c-2.7-0.2-5.6-1.4-8.1-2.8c-2.3,2.7-12.3,14-15.5,16.2C2927.1,1196,2911.3,1195.1,2910.3,1205.4z"/>
			<path class="st30" d="M2904.2,896.5l-12.9-31.4c-1.7-4.1-6.2-6.2-10.4-5.1c-4.3-8-10.1-14.6-16.8-19.1c-7-4.8-14.9-7.5-22.7-7.5
				c-4.1,0-8.2,0.8-12.1,2.4c-18.3,7.5-26.5,30.7-19.8,53.4l-1,0.4c0,0-3.1-0.2-8.4-0.2c-16.6,0-54.3,2.2-80.8,20.6
				c0,0-1.7,1.8-1.7,4.5c0,0.9,0.1,1.9,0.6,3c0,0,42.5-27.5,81.8,0.8c2.4,1.7,4.8,3.3,7,4.8l3.5,8.6c5.8,14.3,22.3,21.2,36.6,15.3
				l36-14.8l7.5-3.1C2903.3,923.9,2909.4,909.2,2904.2,896.5z M2834.4,871l-14.7,6c-4,1.6-6.1,6-5.1,10l-1.6,0.6
				c-6-20.7,1.3-41.6,17.7-48.3c2.3-0.9,4.7-1.6,7.1-1.9c7.5-1,15.4,1,22.4,5.4c6.7,4.2,12.7,10.5,17,18.4l-2.2,0.9
				c-2.1-3.6-6.6-5.2-10.6-3.6l-14.7,6c-1.1-2.8-3.9-4.5-6.7-4.5c-0.9,0-1.8,0.2-2.7,0.5l-2,0.8
				C2834.7,863.1,2832.9,867.3,2834.4,871z"/>
			<path class="st30" d="M2807,923c-2.3-1.5-4.6-3.1-7-4.8c-39.3-28.3-81.8-0.8-81.8-0.8c-0.4-1.1-0.6-2.1-0.6-3
				c5.9-3.9,28.2-16.9,55.9-12.5C2805.9,907.2,2811.7,911.7,2807,923z"/>
			<path class="st30" d="M2890.6,929.1l-7.5,3.1c11.2-6.1-2.7-32.1-10.8-49.2c-8.1-17.1-20.5-9.3-20.5-9.3c-2.8-5.7-8.9-5.4-8.9-5.4
				c-0.3-5.5-4.5-6.6-4.5-6.6l2-0.8c0.9-0.4,1.8-0.5,2.7-0.5c2.9,0,5.6,1.7,6.7,4.5l14.7-6c4-1.6,8.5,0,10.6,3.6l2.2-0.9
				c-4.3-7.9-10.3-14.3-17-18.4c-7.1-4.4-14.9-6.4-22.4-5.4c1.2-1,2.4-2.3,3.6-4.1c7.8,0,15.7,2.6,22.7,7.5
				c6.7,4.6,12.5,11.1,16.8,19.1c4.2-1.2,8.7,1,10.4,5.1l12.9,31.4C2909.4,909.2,2903.3,923.9,2890.6,929.1z"/>
			<path class="st24" d="M2873.7,858.3c5.2,2.2,12.5,9.9,24.3,5.2c8.4-3.3,17.3-5.5,21.6-6.6c1.7-0.3,2.7-0.6,2.7-0.6l-4.6-13.5
				c0,0-0.2,0.1-0.6,0.2c-3,0.7-18.3,3.9-25.5,2.3c-8.1-1.9-21.6,7.8-21.6,7.8S2868.5,856.2,2873.7,858.3z"/>
			<path class="st10" d="M2726.5,940.1c0-4.9-8.9-20-8.9-20s-8.9,15.1-8.9,20s4,8.9,8.9,8.9S2726.5,945,2726.5,940.1z"/>
		</g>
		<g id="man_6_">
			<g>
				<path class="st29" d="M3420,1771.1c0,0,10.3,9.5,8.3,16.3s-11.3,11.3-12.5,19.5c-1.3,8.3-6.3,12.8-10.8,12.8s-21.5,0-21.5,0
					s-3.3-5.8,4.7-7.6c8-1.8,11-11.5,10.5-20.5s0.8-21,0.8-21l17-4L3420,1771.1z"/>
				<path class="st29" d="M3294,1797.1c0,0,2.5,20-2,22.3s-58.3,1.5-58.3,1.5s0-6.8,9.3-8.3s25.5-7,28.3-19.3
					C3274,1781,3294,1797.1,3294,1797.1z"/>
				<path class="st29" d="M3245.3,1491.2c0,0,3,38,6.6,83.6c4.9,62,10.7,138.1,11.3,152.5c1,25,5,65.1,5,65.1s9.5,9.5,28.5,5.5
					c0,0,17-57.2,21.8-117.7c0.1-1,0.1-2,0.2-3c4.5-61.6,11.5-191.3,11.5-191.3L3245.3,1491.2z"/>
				<path class="st29" d="M3245.3,1491.2c0,0,3,38,6.6,83.6l66.6,105.4c0.1-1,0.1-2,0.2-3c4.5-61.6,11.5-191.3,11.5-191.3
					L3245.3,1491.2z"/>
				<path class="st25" d="M3259.2,1495.7c0,0,54.8,137.5,90.9,202.1c36.1,64.6,47.3,82.6,47.3,82.6s20.7-8.3,22.5-13.9
					c0,0-13.8-124.7-37.9-155.1c-13.6-17.2-29.7-68.7-30.4-86.8c-0.8-18-4.9-53.7-4.9-53.7L3259.2,1495.7z"/>
			</g>
			<path class="st24" d="M3151.6,1476.7c0,0-19.3,9.3-22,11.7c-2.6,2.4-9,14.1-8.5,15s1.5,1.2,3.2-0.1c1.8-1.2,6.7-6.3,6.9-5.3
				c0.2,0.9-13.1,16.6-10.8,19.9c2.4,3.3,15.7,2.3,23.3-3.1s15.2-25.4,16.4-26.4C3169.8,1479.1,3151.6,1476.7,3151.6,1476.7z"/>
			<path class="st31" d="M3150.7,1486.6c-5.4-4.7-5.5-5.9-5.5-5.9s34.3-59.3,37.3-65s21.4-94.8,21.4-94.8l63.6-18.4
				c0,0-44.8,115.8-52.6,130.1c-12.9,23.6-55.1,58.5-55.1,58.5S3154.9,1490.3,3150.7,1486.6z"/>
			<path class="st24" d="M3235.1,1279.3c0,0-22.4,39.4-44.2,44.5c0,0,0.9-13.2,6.2-22.3c-2.2-2.6-4.1-4.9-5.8-7
				c-5.5-7.1-8.1-11.4-8.1-11.4l7.4-20l5-13.5c2.4,4.4,5.1,8.1,7.9,11.3C3217.8,1277.4,3235.1,1279.3,3235.1,1279.3z"/>
			<path class="st26" d="M3203.5,1260.9c0,0,2.7,19.7-12.2,33.5c-5.5-7.1-8.1-11.4-8.1-11.4l7.4-20
				C3198.6,1260.7,3203.5,1260.9,3203.5,1260.9z"/>
			<path class="st24" d="M3177.3,1286c0,0,33.4-13,25-33.7s-9.8-36.3-31.5-28.9s-22.6,17-21.5,24.6
				C3150.4,1255.6,3168.4,1288.9,3177.3,1286z"/>
			<path class="st30" d="M3350,1481.3c-13.5,19.4-114.3,45.3-113.1,31.9c0.5-5.1,1.1-14.2,0-26.5c-0.3-2.9-0.6-5.9-1.1-9.1
				c-2.6-17.6-8.6-40.3-22.2-66.6c-1-2-2.1-3.9-3.2-6c-5.6-10.2-10.3-20.9-14-31.4c-7-20.2-9.8-39.5-6.3-52.1c0-0.1,0-0.1,0.1-0.2
				c21.1-9.7,29.2-47.5,29.2-47.5s71.9,12.9,112.2,108.7c0,0,3.9,10.5,8.3,24.8c5.4,17.3,11.6,40.2,12.6,56.5
				C3353,1471.5,3352.4,1477.8,3350,1481.3z"/>
			<path class="st32" d="M3207.1,1213.8c0.2-0.5,0.9-1,2.6-1.5c0,0-1.6-0.5-3.4-0.1c-0.9-2.3-3.2-6.2-7.5-6.2c0,0,2.5,0.6,3.4,3.1
				c-5.9-3.7-16.7-4.8-43.9,4.2c-35.8,11.9-17.9,32.7-12.5,34.3c5.4,1.7,15.4-9,24.4-10.5s13.8,11,17.2,12.1c3.4,1,1.5-1.8,5.1-4.7
				s5.6,3.9,5.6,8.6c-0.1,4.7,6.9,9.2,6.9,9.2s0,0,4.1-7.5s3-34.8-0.9-39.7C3207.8,1214.7,3207.4,1214.3,3207.1,1213.8z"/>
			<path class="st33" d="M3352.5,1463.8c-86.8-26.2-100.6-129.6-100.6-129.6s49.4,37.8,87.9,73.2
				C3345.2,1424.7,3351.4,1447.5,3352.5,1463.8z"/>
			<path class="st24" d="M3376.3,1467.2c0,0-2,16.4-1.5,19.1s3.6,10.6,4.4,10.7c0.8,0,3.1,0.1,3.1-1.5s-1.1-3.2-0.4-2.9
				c0.7,0.3,0.9,6.5,4,6.3s12.3-3.6,12-10.8c-0.4-7.2-10.2-20.4-10.4-21.6C3385.4,1456.3,3376.3,1467.2,3376.3,1467.2z"/>
			<path class="st30" d="M3381.5,1470c-6.9,3.2-9.4-0.1-9.4-0.1s-40.1-67-44.3-72.3c-4.2-5.4-78.2-37.1-78.2-37.1
				s-30.1-11.5-31.3-29.8c-1-15.9,8-25.6,17.9-31.5c11.8-7,26.6-6,37.5,2.4c24.3,18.9,72.4,56.8,80.2,67.1
				c17.2,22.9,36.3,94.6,36.3,94.6S3386.9,1467.5,3381.5,1470z"/>
			<g>
				<path class="st34" d="M3209.1,1515.4l-18,18l-0.2-0.2l-27.1-17c0,0,14,4.5,15.9,4c1.8-0.5,21.4-7.2,26-6.7
					c0.3,0,0.5,0.1,0.7,0.2C3209.1,1515.4,3209.1,1515.4,3209.1,1515.4z"/>
				<path class="st35" d="M3190.3,1538.3c-0.7-0.2-2.9-0.7-5.8-1.4c-8.4-2.2-23.2-6.3-29.1-9.7c-5.3-3-33-19.2-52.1-30.5
					c7.6-4.1,15.1-4.7,21.5-3.9c22.3,13.1,51.5,30.3,55,32.8c5.9,4.1,13.9,9.1,13.9,9.1s0,0.2-0.1,0.6
					C3193.3,1536.4,3192.4,1538.7,3190.3,1538.3z"/>
				<path class="st28" d="M3190.3,1538.3c-0.7-0.2-2.9-0.7-5.8-1.4c-8.4-2.2-23.2-6.3-29.1-9.7c-5.3-3-33-19.2-52.1-30.5
					c-9.6-5.7-17-10.2-18.3-11.2c-3.9-3-11.4-10.5-9.6-11.9c1.8-1.4,5.4,0,6.8-0.2c0,0,0,0,0.1,0c0.3,0,0.8-0.1,1.6-0.2
					c2.6-0.2,7.7,0.2,15,4.4c0,0,11.6,6.7,25.9,15.2c22.3,13.1,51.5,30.3,55,32.8c5.9,4.1,13.9,9.1,13.9,9.1s0,0.2-0.1,0.6
					C3193.3,1536.4,3192.4,1538.7,3190.3,1538.3z"/>
				<path class="st34" d="M3190.3,1538.3c-0.7-0.2-2.9-0.7-5.8-1.4c0.4-3.3-2-6-2-6l11,4.5
					C3193.3,1536.4,3192.4,1538.7,3190.3,1538.3z"/>
				<g class="st36">
					<g>
						<path class="st34" d="M3166.4,1524.1L3166.4,1524.1c-0.2-0.1-0.2-0.3-0.1-0.5l0.2-0.3c0.1-0.2,0.3-0.2,0.5-0.1l0,0
							c0.2,0.1,0.2,0.3,0.1,0.5l-0.2,0.3C3166.8,1524.2,3166.6,1524.2,3166.4,1524.1z"/>
						<path class="st34" d="M3164.8,1523.2L3164.8,1523.2c-0.2-0.1-0.2-0.3-0.1-0.5l0.2-0.3c0.1-0.2,0.3-0.2,0.5-0.1l0,0
							c0.2,0.1,0.2,0.3,0.1,0.5l-0.2,0.3C3165.2,1523.2,3165,1523.3,3164.8,1523.2z"/>
						<path class="st34" d="M3163.2,1522.2L3163.2,1522.2c-0.2-0.1-0.2-0.3-0.1-0.5l0.2-0.3c0.1-0.2,0.3-0.2,0.5-0.1l0,0
							c0.2,0.1,0.2,0.3,0.1,0.5l-0.2,0.3C3163.6,1522.3,3163.4,1522.3,3163.2,1522.2z"/>
						<path class="st34" d="M3161.6,1521.3L3161.6,1521.3c-0.2-0.1-0.2-0.3-0.1-0.5l0.2-0.3c0.1-0.2,0.3-0.2,0.5-0.1l0,0
							c0.2,0.1,0.2,0.3,0.1,0.5l-0.2,0.3C3162,1521.3,3161.8,1521.4,3161.6,1521.3z"/>
						<path class="st34" d="M3160,1520.3L3160,1520.3c-0.2-0.1-0.2-0.3-0.1-0.5l0.2-0.3c0.1-0.2,0.3-0.2,0.5-0.1l0,0
							c0.2,0.1,0.2,0.3,0.1,0.5l-0.2,0.3C3160.4,1520.4,3160.2,1520.4,3160,1520.3z"/>
						<path class="st34" d="M3158.4,1519.4L3158.4,1519.4c-0.2-0.1-0.2-0.3-0.1-0.5l0.2-0.3c0.1-0.2,0.3-0.2,0.5-0.1l0,0
							c0.2,0.1,0.2,0.3,0.1,0.5l-0.2,0.3C3158.8,1519.4,3158.6,1519.5,3158.4,1519.4z"/>
						<path class="st34" d="M3156.8,1518.4L3156.8,1518.4c-0.2-0.1-0.2-0.3-0.1-0.5l0.2-0.3c0.1-0.2,0.3-0.2,0.5-0.1l0,0
							c0.2,0.1,0.2,0.3,0.1,0.5l-0.2,0.3C3157.2,1518.5,3157,1518.5,3156.8,1518.4z"/>
						<path class="st34" d="M3155.2,1517.5L3155.2,1517.5c-0.2-0.1-0.2-0.3-0.1-0.5l0.2-0.3c0.1-0.2,0.3-0.2,0.5-0.1l0,0
							c0.2,0.1,0.2,0.3,0.1,0.5l-0.2,0.3C3155.6,1517.5,3155.4,1517.6,3155.2,1517.5z"/>
						<path class="st34" d="M3153.6,1516.5L3153.6,1516.5c-0.2-0.1-0.2-0.3-0.1-0.5l0.2-0.3c0.1-0.2,0.3-0.2,0.5-0.1l0,0
							c0.2,0.1,0.2,0.3,0.1,0.5l-0.2,0.3C3154,1516.5,3153.8,1516.6,3153.6,1516.5z"/>
					</g>
					<g>
						<path class="st34" d="M3134.6,1505.3L3134.6,1505.3c-0.2-0.1-0.2-0.3-0.1-0.5l0.2-0.3c0.1-0.2,0.3-0.2,0.5-0.1l0,0
							c0.2,0.1,0.2,0.3,0.1,0.5l-0.2,0.3C3135,1505.4,3134.8,1505.4,3134.6,1505.3z"/>
						<path class="st34" d="M3133,1504.4L3133,1504.4c-0.2-0.1-0.2-0.3-0.1-0.5l0.2-0.3c0.1-0.2,0.3-0.2,0.5-0.1l0,0
							c0.2,0.1,0.2,0.3,0.1,0.5l-0.2,0.3C3133.4,1504.4,3133.2,1504.5,3133,1504.4z"/>
						<path class="st34" d="M3131.4,1503.4L3131.4,1503.4c-0.2-0.1-0.2-0.3-0.1-0.5l0.2-0.3c0.1-0.2,0.3-0.2,0.5-0.1l0,0
							c0.2,0.1,0.2,0.3,0.1,0.5l-0.2,0.3C3131.8,1503.5,3131.6,1503.5,3131.4,1503.4z"/>
						<path class="st34" d="M3129.8,1502.5L3129.8,1502.5c-0.2-0.1-0.2-0.3-0.1-0.5l0.2-0.3c0.1-0.2,0.3-0.2,0.5-0.1l0,0
							c0.2,0.1,0.2,0.3,0.1,0.5l-0.2,0.3C3130.2,1502.5,3130,1502.6,3129.8,1502.5z"/>
						<path class="st34" d="M3128.2,1501.5L3128.2,1501.5c-0.2-0.1-0.2-0.3-0.1-0.5l0.2-0.3c0.1-0.2,0.3-0.2,0.5-0.1l0,0
							c0.2,0.1,0.2,0.3,0.1,0.5l-0.2,0.3C3128.6,1501.6,3128.4,1501.6,3128.2,1501.5z"/>
						<path class="st34" d="M3126.6,1500.6L3126.6,1500.6c-0.2-0.1-0.2-0.3-0.1-0.5l0.2-0.3c0.1-0.2,0.3-0.2,0.5-0.1l0,0
							c0.2,0.1,0.2,0.3,0.1,0.5l-0.2,0.3C3127,1500.6,3126.8,1500.7,3126.6,1500.6z"/>
						<path class="st34" d="M3125,1499.6L3125,1499.6c-0.2-0.1-0.2-0.3-0.1-0.5l0.2-0.3c0.1-0.2,0.3-0.2,0.5-0.1l0,0
							c0.2,0.1,0.2,0.3,0.1,0.5l-0.2,0.3C3125.4,1499.7,3125.2,1499.7,3125,1499.6z"/>
						<path class="st34" d="M3123.4,1498.7L3123.4,1498.7c-0.2-0.1-0.2-0.3-0.1-0.5l0.2-0.3c0.1-0.2,0.3-0.2,0.5-0.1l0,0
							c0.2,0.1,0.2,0.3,0.1,0.5l-0.2,0.3C3123.8,1498.7,3123.6,1498.8,3123.4,1498.7z"/>
						<path class="st34" d="M3121.8,1497.7L3121.8,1497.7c-0.2-0.1-0.2-0.3-0.1-0.5l0.2-0.3c0.1-0.2,0.3-0.2,0.5-0.1l0,0
							c0.2,0.1,0.2,0.3,0.1,0.5l-0.2,0.3C3122.2,1497.8,3121.9,1497.8,3121.8,1497.7z"/>
					</g>
					<g>
						<path class="st34" d="M3115.6,1494L3115.6,1494c-0.2-0.1-0.2-0.3-0.1-0.5l0.2-0.3c0.1-0.2,0.3-0.2,0.5-0.1l0,0
							c0.2,0.1,0.2,0.3,0.1,0.5l-0.2,0.3C3115.9,1494.1,3115.7,1494.1,3115.6,1494z"/>
						<path class="st34" d="M3118.7,1495.9L3118.7,1495.9c-0.2-0.1-0.2-0.3-0.1-0.5l0.2-0.3c0.1-0.2,0.3-0.2,0.5-0.1l0,0
							c0.2,0.1,0.2,0.3,0.1,0.5l-0.2,0.3C3119.1,1495.9,3118.9,1496,3118.7,1495.9z"/>
						<path class="st34" d="M3113.9,1493.1L3113.9,1493.1c-0.2-0.1-0.2-0.3-0.1-0.5l0.2-0.3c0.1-0.2,0.3-0.2,0.5-0.1l0,0
							c0.2,0.1,0.2,0.3,0.1,0.5l-0.2,0.3C3114.3,1493.1,3114.1,1493.2,3113.9,1493.1z"/>
						<path class="st34" d="M3112.3,1492.1L3112.3,1492.1c-0.2-0.1-0.2-0.3-0.1-0.5l0.2-0.3c0.1-0.2,0.3-0.2,0.5-0.1l0,0
							c0.2,0.1,0.2,0.3,0.1,0.5l-0.2,0.3C3112.7,1492.2,3112.5,1492.2,3112.3,1492.1z"/>
						<path class="st34" d="M3110.7,1491.2L3110.7,1491.2c-0.2-0.1-0.2-0.3-0.1-0.5l0.2-0.3c0.1-0.2,0.3-0.2,0.5-0.1l0,0
							c0.2,0.1,0.2,0.3,0.1,0.5l-0.2,0.3C3111.1,1491.2,3110.9,1491.3,3110.7,1491.2z"/>
						<path class="st34" d="M3109.1,1490.2L3109.1,1490.2c-0.2-0.1-0.2-0.3-0.1-0.5l0.2-0.3c0.1-0.2,0.3-0.2,0.5-0.1l0,0
							c0.2,0.1,0.2,0.3,0.1,0.5l-0.2,0.3C3109.5,1490.3,3109.3,1490.3,3109.1,1490.2z"/>
						<path class="st34" d="M3107.5,1489.3L3107.5,1489.3c-0.2-0.1-0.2-0.3-0.1-0.5l0.2-0.3c0.1-0.2,0.3-0.2,0.5-0.1l0,0
							c0.2,0.1,0.2,0.3,0.1,0.5l-0.2,0.3C3107.9,1489.3,3107.7,1489.4,3107.5,1489.3z"/>
						<path class="st34" d="M3105.9,1488.3L3105.9,1488.3c-0.2-0.1-0.2-0.3-0.1-0.5l0.2-0.3c0.1-0.2,0.3-0.2,0.5-0.1l0,0
							c0.2,0.1,0.2,0.3,0.1,0.5l-0.2,0.3C3106.3,1488.4,3106.1,1488.4,3105.9,1488.3z"/>
						<path class="st34" d="M3104.3,1487.4L3104.3,1487.4c-0.2-0.1-0.2-0.3-0.1-0.5l0.2-0.3c0.1-0.2,0.3-0.2,0.5-0.1l0,0
							c0.2,0.1,0.2,0.3,0.1,0.5l-0.2,0.3C3104.7,1487.4,3104.5,1487.5,3104.3,1487.4z"/>
						<path class="st34" d="M3102.7,1486.4L3102.7,1486.4c-0.2-0.1-0.2-0.3-0.1-0.5l0.2-0.3c0.1-0.2,0.3-0.2,0.5-0.1l0,0
							c0.2,0.1,0.2,0.3,0.1,0.5l-0.2,0.3C3103.1,1486.5,3102.9,1486.5,3102.7,1486.4z"/>
						<path class="st34" d="M3101.1,1485.5L3101.1,1485.5c-0.2-0.1-0.2-0.3-0.1-0.5l0.2-0.3c0.1-0.2,0.3-0.2,0.5-0.1l0,0
							c0.2,0.1,0.2,0.3,0.1,0.5l-0.2,0.3C3101.5,1485.5,3101.3,1485.6,3101.1,1485.5z"/>
						<path class="st34" d="M3099.5,1484.5L3099.5,1484.5c-0.2-0.1-0.2-0.3-0.1-0.5l0.2-0.3c0.1-0.2,0.3-0.2,0.5-0.1l0,0
							c0.2,0.1,0.2,0.3,0.1,0.5l-0.2,0.3C3099.9,1484.6,3099.7,1484.6,3099.5,1484.5z"/>
						<path class="st34" d="M3097.9,1483.6L3097.9,1483.6c-0.2-0.1-0.2-0.3-0.1-0.5l0.2-0.3c0.1-0.2,0.3-0.2,0.5-0.1l0,0
							c0.2,0.1,0.2,0.3,0.1,0.5l-0.2,0.3C3098.3,1483.6,3098.1,1483.7,3097.9,1483.6z"/>
						<path class="st34" d="M3085.5,1475.3c-0.2,0.2-0.4,0.3-0.6,0.2c-0.1,0-0.1,0-0.2-0.1l-2.5-2c0.3,0,0.8-0.1,1.6-0.2l1.6,1.3
							C3085.7,1474.7,3085.7,1475.1,3085.5,1475.3z"/>
						<path class="st34" d="M3126,1502.1l-0.5-0.3c-0.3-0.2-0.4-0.6-0.2-0.9l1.2-2c0.2-0.3,0.6-0.4,0.9-0.2l0.5,0.3
							c0.3,0.2,0.4,0.6,0.2,0.9l-1.2,2C3126.7,1502.2,3126.3,1502.3,3126,1502.1z"/>
						<path class="st34" d="M3129.2,1504l-0.5-0.3c-0.3-0.2-0.4-0.6-0.2-0.9l1.2-2c0.2-0.3,0.6-0.4,0.9-0.2l0.5,0.3
							c0.3,0.2,0.4,0.6,0.2,0.9l-1.2,2C3129.9,1504.1,3129.5,1504.2,3129.2,1504z"/>
					</g>
					<g>
						<path class="st34" d="M3148.9,1513.7L3148.9,1513.7c-0.2-0.1-0.2-0.3-0.1-0.5l0.2-0.3c0.1-0.2,0.3-0.2,0.5-0.1l0,0
							c0.2,0.1,0.2,0.3,0.1,0.5l-0.2,0.3C3149.2,1513.8,3149,1513.8,3148.9,1513.7z"/>
						<path class="st34" d="M3147.2,1512.8L3147.2,1512.8c-0.2-0.1-0.2-0.3-0.1-0.5l0.2-0.3c0.1-0.2,0.3-0.2,0.5-0.1l0,0
							c0.2,0.1,0.2,0.3,0.1,0.5l-0.2,0.3C3147.6,1512.8,3147.4,1512.9,3147.2,1512.8z"/>
						<path class="st34" d="M3145.6,1511.8L3145.6,1511.8c-0.2-0.1-0.2-0.3-0.1-0.5l0.2-0.3c0.1-0.2,0.3-0.2,0.5-0.1l0,0
							c0.2,0.1,0.2,0.3,0.1,0.5l-0.2,0.3C3146,1511.9,3145.8,1511.9,3145.6,1511.8z"/>
						<path class="st34" d="M3144,1510.9L3144,1510.9c-0.2-0.1-0.2-0.3-0.1-0.5l0.2-0.3c0.1-0.2,0.3-0.2,0.5-0.1l0,0
							c0.2,0.1,0.2,0.3,0.1,0.5l-0.2,0.3C3144.4,1510.9,3144.2,1511,3144,1510.9z"/>
						<path class="st34" d="M3142.4,1509.9L3142.4,1509.9c-0.2-0.1-0.2-0.3-0.1-0.5l0.2-0.3c0.1-0.2,0.3-0.2,0.5-0.1l0,0
							c0.2,0.1,0.2,0.3,0.1,0.5l-0.2,0.3C3142.8,1510,3142.6,1510,3142.4,1509.9z"/>
						<path class="st34" d="M3140.8,1509L3140.8,1509c-0.2-0.1-0.2-0.3-0.1-0.5l0.2-0.3c0.1-0.2,0.3-0.2,0.5-0.1l0,0
							c0.2,0.1,0.2,0.3,0.1,0.5l-0.2,0.3C3141.2,1509,3141,1509.1,3140.8,1509z"/>
						<path class="st34" d="M3139.2,1508L3139.2,1508c-0.2-0.1-0.2-0.3-0.1-0.5l0.2-0.3c0.1-0.2,0.3-0.2,0.5-0.1l0,0
							c0.2,0.1,0.2,0.3,0.1,0.5l-0.2,0.3C3139.6,1508.1,3139.4,1508.1,3139.2,1508z"/>
						<path class="st34" d="M3137.6,1507.1L3137.6,1507.1c-0.2-0.1-0.2-0.3-0.1-0.5l0.2-0.3c0.1-0.2,0.3-0.2,0.5-0.1l0,0
							c0.2,0.1,0.2,0.3,0.1,0.5l-0.2,0.3C3138,1507.1,3137.8,1507.2,3137.6,1507.1z"/>
						<path class="st34" d="M3136,1506.1L3136,1506.1c-0.2-0.1-0.2-0.3-0.1-0.5l0.2-0.3c0.1-0.2,0.3-0.2,0.5-0.1l0,0
							c0.2,0.1,0.2,0.3,0.1,0.5l-0.2,0.3C3136.4,1506.2,3136.2,1506.2,3136,1506.1z"/>
					</g>
				</g>
				<path class="st8" d="M3126.1,1510.6c1.1,0.2,1.9-1,1.4-1.9c-0.5-1-1.4-2.1-2.6-2.7c-2.4-1.4-3.2,3-2.4,3.6
					C3123,1509.8,3124.7,1510.4,3126.1,1510.6z"/>
				<path class="st8" d="M3125.9,1505.3l-3,5.1c0,0-3-0.6-7-2.9c-2.5-1.4-4-2.7-4.8-3.5c-0.5-0.5-0.7-0.8-0.7-0.8l3.1-5.3
					c0.3,0,0.7,0,1.1,0.1c3.6,1,10.9,6.8,10.9,6.8L3125.9,1505.3z"/>
				<path class="st37" d="M3114.6,1498.1l-3.5,6c-0.5-0.5-0.7-0.8-0.7-0.8l3.1-5.3C3113.8,1497.9,3114.1,1497.9,3114.6,1498.1z"/>
				<path class="st8" d="M3182.7,1530c0.1-0.1,10.5,2.3,16.1,6.4l-7.1-0.1l-9.1-5.4C3182.5,1530.9,3181.9,1530.3,3182.7,1530z"/>
				<g>
					<path class="st34" d="M3161.6,1509.4c0,0-6.4,4.4-7.5,5s-2.9,0.4-2.9,0.4l0,0l-11-1.9c0,0-11.7-6.8-14.2-8.4l0,0
						c-0.2-0.1-0.4-0.2-0.4-0.3c-0.7-0.5-1-1-0.7-1.2c0.3-0.1,19.5,7.5,21.7,8.4c0,0,0,0,0.1,0c2.1,0.8,2.5,0.4,2.5,0.4l10.6-2.9
						c0.2-0.1,0.4-0.1,0.6-0.1C3160.8,1509,3161.6,1509.4,3161.6,1509.4z"/>
					<path class="st37" d="M3160.2,1509c-2.9,0.9-10.9,3.3-11.6,3.4c-0.8,0.1-18.3-6.3-22.6-7.8l0,0c-0.2-0.1-0.4-0.2-0.4-0.3
						c-0.7-0.5-1-1-0.7-1.2c0.3-0.1,19.5,7.5,21.7,8.4c2.1,0.9,2.6,0.4,2.6,0.4l10.6-2.9C3159.7,1508.9,3159.9,1508.9,3160.2,1509z"
						/>
					<path class="st34" d="M3161.6,1509.4c0,0-6.4,4.4-7.5,5s-2.9,0.4-2.9,0.4l0,0c-2.1-1.1-3.7-2.4-4.7-3.3
						c2.1,0.8,2.5,0.4,2.5,0.4l10.6-2.9c0.2-0.1,0.4-0.1,0.6-0.1C3160.8,1509,3161.6,1509.4,3161.6,1509.4z"/>
				</g>
				<path class="st37" d="M3191.3,1533.5l-27.6-17.3c0,0,14.2,4.6,16.2,4.1c1.8-0.5,21.6-7.1,26.3-6.5c-5.3,2.1-17.8,7.5-18.7,10.4
					C3186.7,1527.1,3189.8,1531.5,3191.3,1533.5z"/>
			</g>
		</g>
		<g>
			<g>
				<path class="st38" d="M2962,1526.2c0.1-5.8,4.6-15.7-4.3-25.1c-6.3-6.7-11.8-14.3-14.5-18c-1-1.5-11.7,7.3-11.5,7.7
					c1.8,2.6,9.9,16,11.1,23.4c1.3,8.4,15.7,17.6,15.7,17.6S2962,1531.9,2962,1526.2z"/>
				<g>
					<path class="st30" d="M3029.5,1527.3c-14.1,0.7-23.8-21.2-29.8-21.5c-1,0-2.8,0.2-5.2,0.6c5.9,9.6,10.3,20.9,12.8,33.4
						c8.5,42.3-9.4,81.6-39.9,87.7c-29.7,5.9-60.4-21.7-69.8-62.1c-0.3-1.1-0.5-2.3-0.7-3.4c-2.5-12.3-2.7-24.4-1-35.5v-0.1
						c-1.3,0.3-2.3,0.6-2.9,0.9c-5.4,2.6-5.9,26.5-19.2,31.3s-22.3-20.8-6.4-40.7c9.7-12.1,26.8-18,38.7-20.7
						c2.5-4,5.3-7.7,8.5-10.8c0.1-0.1,0.2-0.2,0.4-0.4c-8.8-4.7-15.4-13.2-17.5-23.7c-0.7-3.6-0.8-7.1-0.5-10.5h-0.1
						c-6-1.8-10.9-6.8-12.2-13.4c-1.9-9.5,4.3-18.8,13.8-20.7c6.9-1.4,13.7,1.5,17.6,6.8c2.6-1.3,5.5-2.3,8.5-2.9
						c2.7-0.5,5.4-0.8,8-0.7c1.7-6.3,6.8-11.4,13.6-12.8c9.5-1.9,18.8,4.3,20.7,13.8c1.2,6.2-1,12.4-5.4,16.4
						c1.8,3.2,3.1,6.6,3.9,10.4c2,9.9-0.5,19.7-6,27.3c5,1.7,9.8,4.3,14.4,7.6c11.9-2.3,31.5-4.1,45.9,3.8
						C3042.1,1499.5,3043.7,1526.6,3029.5,1527.3z"/>
					<path class="st31" d="M2897.7,1565.3c-0.3-1.1-0.5-2.3-0.7-3.4c-2.5-12.3-2.7-24.4-1-35.5c1.8-2,4.1-3.6,6.7-2.3
						c5.8,2.8,4.9,30.7,13.8,37.2C2923.1,1566,2906.6,1566.1,2897.7,1565.3z"/>
					<path class="st31" d="M2931.6,1481.8c-3.3,1.2-10.5,3.5-16.9,4.4c0.1-0.1,0.2-0.2,0.4-0.4c-8.8-4.7-15.4-13.2-17.5-23.7
						c-0.7-3.6-0.8-7.1-0.5-10.5h-0.1c0.4-0.1,0.8,0.1,1.4,0.9c2.2,3.2,14.2,28.7,33.2,25.7
						C2931.6,1478.3,2936.6,1480,2931.6,1481.8z"/>
					<path class="st31" d="M2940.6,1423c0,0,4.5-8.3,11.1-6.1c6.6,2.2,7.5,11.7,3.2,14.3C2954.9,1431.1,2948.5,1425.2,2940.6,1423z"
						/>
					<path class="st31" d="M2909.6,1427.8c0,0-9.5-4.4-13.8,0.7s4.3,11.5,4.3,11.5S2904.2,1431.4,2909.6,1427.8z"/>
				</g>
			</g>
			<g>
				<g>
					<g>
						<path class="st10" d="M2833.1,1581.3c-6.7-6-1.2-20.3-3.8-23.1c-0.4-0.5-1.4-1.2-2.6-2.1c-1.7,7-4.8,14.1-9.3,20.9
							c-15.3,23-41.1,32.7-57.6,21.6c-16.1-10.7-17.5-37.1-3.5-59.6c0.4-0.6,0.8-1.3,1.2-1.9c4.5-6.7,9.8-12.3,15.6-16.5l0,0
							c-0.7-0.4-1.3-0.7-1.7-0.9c-3.6-1.3-14.6,9.3-22.8,5.5c-8.2-3.9-0.7-19.5,15.5-21.3c9.9-1.1,20.3,4,26.9,8.1
							c2.9-0.7,5.9-1.1,8.7-1c0.1,0,0.2,0,0.3,0c-1.8-6.1-1-12.9,2.8-18.6c1.3-1.9,2.8-3.6,4.5-5l0,0c-1.9-3.5-1.8-8,0.5-11.6
							c3.4-5.2,10.4-6.6,15.6-3.1c3.7,2.5,5.5,6.8,4.9,11c1.8,0.6,3.5,1.4,5.2,2.5c1.5,1,2.8,2.1,3.9,3.3c3.6-2.1,8.2-2.1,11.9,0.4
							c5.2,3.4,6.6,10.4,3.1,15.6c-2.3,3.4-6,5.2-9.8,5c-0.6,2.2-1.6,4.4-2.9,6.5c-3.6,5.4-9.1,8.7-15,9.6c1.5,3,2.5,6.4,3.1,9.9
							c6.4,4.4,16.1,12.3,19.1,22.5C2851.3,1574.4,2839.8,1587.3,2833.1,1581.3z"/>
						<path class="st28" d="M2756.3,1538.9c0.4-0.6,0.8-1.3,1.2-1.9c4.5-6.7,9.8-12.3,15.6-16.5c1.7-0.1,3.5,0.2,4.1,2
							c1.4,3.9-11.6,16.1-10.5,23.1C2767.4,1550.7,2759.9,1543.3,2756.3,1538.9z"/>
						<path class="st28" d="M2809.3,1516.5c-2.1-1-6.3-3.2-9.6-5.6c0.1,0,0.2,0,0.3,0c-1.8-6.1-1-12.9,2.8-18.6
							c1.3-1.9,2.8-3.6,4.5-5l0,0c0.2,0.1,0.3,0.4,0.2,1c-0.4,2.4-6.5,19.4,3.4,26.6C2810.9,1514.9,2812.4,1517.9,2809.3,1516.5z"/>
						<path class="st28" d="M2839.9,1494c0,0,5.8-1.7,7.8,2.2c2,4-1.9,8.7-5,7.9C2842.7,1504.1,2842.5,1498.5,2839.9,1494z"/>
						<path class="st28" d="M2823.7,1482.1c0,0-2.3-6.3-6.6-5.9c-4.2,0.4-3.3,7.2-3.3,7.2S2819.6,1481.3,2823.7,1482.1z"/>
					</g>
					<g>
						<g>
							<path class="st31" d="M2690.7,1577.8c0,0-14.4-18.6-14.5-33.8c-0.1-15.2,0.3-20.2,2.9-19.5c2.5,0.7,13.9,9.2,18,17.6
								s11.3,30.5,11.4,33.5C2708.7,1578.6,2690.7,1577.8,2690.7,1577.8z"/>
							<path class="st33" d="M2691.5,1571.9c0,0-9.2-12.9-9.6-23.1c-0.3-10.3-0.2-13.7,1.4-13.2c1.6,0.5,8.7,6.5,11.4,12.2
								c2.7,5.8,7.5,20.8,7.7,22.9C2702.6,1572.7,2691.5,1571.9,2691.5,1571.9z"/>
						</g>
						<g>
							<path class="st31" d="M2714,1570c0,0-6.9-25.2-4.2-32.1s16.9-2.3,18.5,2.6c1.6,4.8,0.6,25.3,0.6,25.3L2714,1570z"/>
							<path class="st33" d="M2715.9,1541.1c0,0-1,20,2.5,27.7l6.7-1.9c0,0,1-22.3,0.1-23.8
								C2724.3,1541.6,2715.9,1541.1,2715.9,1541.1z"/>
							<path class="st31" d="M2709.4,1539.4c0,0,23.3,15.4,25.2,13.8s-5.2-17.3-7.9-18.7C2723.9,1533.1,2709.3,1530.2,2709.4,1539.4
								z"/>
						</g>
					</g>
					<g>
						<rect x="2666.7" y="1559.4" class="st39" width="317.3" height="261.6"/>
						<rect x="2825.3" y="1559.3" class="st10" width="317.3" height="261.6"/>
						<polygon class="st37" points="3142.6,1559.3 3142.6,1642.4 2825.3,1661.4 2825.3,1559.3 						"/>
						<polygon class="st10" points="2825.3,1559.3 2888.1,1628.2 3201.2,1628.2 3142.6,1559.3 						"/>
						<polygon class="st40" points="2666.8,1754.6 2717.1,1754.6 2712.7,1740.5 2717.1,1730.3 2666.8,1730.3 						"/>
						<polygon class="st28" points="3142.6,1799.5 3092.4,1799.5 3096.8,1785.3 3092.4,1775.2 3142.6,1775.2 						"/>
						<polygon class="st37" points="2825.3,1588.9 2758.4,1655.8 2666.8,1655.8 2666.8,1559.3 2825.3,1559.3 						"/>
						<polygon class="st39" points="2666.6,1559.3 2595.3,1628.2 2754,1628.2 2825.3,1559.3 						"/>
					</g>
				</g>
				<g>
					<g>
						<path class="st10" d="M2588.3,1752l-5.8,1.1c-6.9,1.3-13.6-3.2-14.9-10l-8.5-43.7c-1.2-6.3,2.4-12.4,8.3-14.4
							c0-0.1-0.1-0.3-0.1-0.5l-0.5-2.6c-0.3-1.8,0.8-3.5,2.6-3.9l2.6-0.5c1.8-0.3,3.5,0.8,3.9,2.6l0.5,2.6c0,0.1,0,0.2,0.1,0.4
							c0,0,0,0,0,0.1c6.3-0.5,12.2,3.9,13.5,10.2l8.5,43.8C2599.7,1744,2595.1,1750.7,2588.3,1752z"/>
						
							<rect x="2562.3" y="1698.7" transform="matrix(0.9817 -0.1906 0.1906 0.9817 -279.4289 522.7527)" class="st8" width="31.3" height="30.6"/>
						<path class="st41" d="M2576.4,1683.1l-9,1.9c0-0.1-0.1-0.3-0.1-0.5l-0.5-2.6c-0.3-1.8,0.8-3.5,2.6-3.9l2.6-0.5
							c1.8-0.3,3.5,0.8,3.9,2.6l0.5,2.6C2576.4,1682.9,2576.4,1683,2576.4,1683.1z"/>
					</g>
					<g>
						<path class="st42" d="M2744,1672.1c0,0-3.8,5.4-7.3,5.4c-3.5,0.1-8.8-2.5-8.8-2.5s-3.2-7.1-1-9.9c0,0,2.2-1,4.5,0.7
							c0.4,0.3,0.8,0.7,1.2,1.1c0.6,0.7,1.2,1,1.8,1.2c2.5,0.8,5.4-1,6.5,0.7c0.6,1,1.3,1.8,1.9,2.3
							C2743.5,1671.8,2744,1672.1,2744,1672.1z"/>
						<path class="st42" d="M2694.4,1710.7c0,0,13.4-32.6,37.6-33.2c0,0,22.3,2.5,23.6,33.2H2694.4z"/>
						<path class="st10" d="M2725.4,1678.5c0,0,9.7,2.2,12.7,0.9c0,0,0.5-4.1-3.6-3.5c-2.8,0.4-4.6-1-5.7-1.5
							C2727.3,1673.6,2725,1676.8,2725.4,1678.5z"/>
						<path class="st28" d="M2733.8,1672.4c-0.6,0.5-2.5-6.6-2.5-6.6c0.4,0.3,0.8,0.7,1.2,1.1c0.6,0.7,1.2,1,1.8,1.2
							C2734.3,1668.4,2734.4,1671.9,2733.8,1672.4z"/>
						<path class="st28" d="M2742.8,1671.2c-0.1,0.1-4.6,2.8-5.2,2.8c-0.6,0,3.3-5,3.3-5C2741.5,1669.9,2742.2,1670.6,2742.8,1671.2
							z"/>
						<path class="st37" d="M2707.5,1701.6c-0.2-0.2,9.5-14.4,12.2-14.5s8.7,3.1,13.1,3.5c4.4,0.4,8.6-0.8,9.4,1.8
							c0.8,2.6,3.1,11.8,1.7,13.2C2742.6,1707.1,2712.9,1706.2,2707.5,1701.6z"/>
					</g>
					<g>
						<path class="st33" d="M2594.2,1723.6c-0.4,0.7-0.9,1.3-1.5,1.7c-0.4,0.2-0.7,0.4-1.1,0.6c-1.1,0.4-2.4,0.3-3.5-0.3l-60.3-30.6
							c-2.3-1.2-3.2-3.9-2-6.2c0.6-1.1,1.6-1.9,2.7-2.3c1.1-0.4,2.4-0.3,3.5,0.3l60.3,30.6
							C2594.4,1718.6,2595.3,1721.4,2594.2,1723.6z"/>
						<polygon class="st43" points="2547.7,1705.2 2543.9,1692.9 2534.2,1687.9 2540,1701.3 						"/>
						<polygon class="st43" points="2562.4,1712.6 2554.8,1708.8 2548.9,1695.4 2558.6,1700.4 						"/>
						<polygon class="st43" points="2577.1,1720.1 2569.5,1716.2 2563.6,1702.9 2573.3,1707.8 						"/>
						<path class="st43" d="M2592.7,1725.4c-0.4,0.2-0.7,0.4-1.1,0.6c-1.1,0.4-2.4,0.3-3.5-0.3l-3.5-1.8l-5.9-13.3l9.7,4.9
							L2592.7,1725.4z"/>
						<path class="st43" d="M2525.7,1688.8c0,0-1.2-6.6-6.5-8.5c0,0,0.6,0.8-1.9,1.6c-2.6,0.8-1.8,2.6-2.7,3.4
							C2514.5,1685.3,2518.2,1690.2,2525.7,1688.8z"/>
						<path class="st41" d="M2524.6,1689.7l-0.1-0.1c-0.4-0.2-0.6-0.7-0.4-1.1l0.8-1.5c0.2-0.4,0.7-0.6,1.1-0.4l0.1,0.1
							c0.4,0.2,0.6,0.7,0.4,1.1l-0.8,1.5C2525.6,1689.7,2525,1689.9,2524.6,1689.7z"/>
						<path class="st43" d="M2593.9,1723.5c0,0,6-2.9,10.7,0.3c0,0-1-0.1-0.1,2.5c0.9,2.5-1,3-1.1,4.2
							C2603.4,1730.4,2597.3,1730.4,2593.9,1723.5z"/>
						<path class="st34" d="M2593.8,1724.8l0.2,0.1c0.4,0.2,0.9,0,1.1-0.3l0.8-1.6c0.2-0.4,0-0.9-0.3-1.1l-0.2-0.1
							c-0.4-0.2-0.9,0-1.1,0.3l-0.8,1.6C2593.3,1724.1,2593.4,1724.6,2593.8,1724.8z"/>
					</g>
					<g>
						<path class="st40" d="M2672.2,1724.1c-0.7,0.4-1.5,0.6-2.2,0.6c-0.4,0-0.9,0-1.3-0.2c-1.1-0.3-2.2-1-2.8-2.1l-33.9-58.5
							c-1.3-2.2-0.5-5,1.7-6.3c1.1-0.6,2.4-0.8,3.5-0.5s2.2,1,2.8,2.1l33.9,58.5C2675.2,1720,2674.4,1722.8,2672.2,1724.1z"/>
						<polygon class="st30" points="2643.3,1683.3 2646.8,1670.9 2641.4,1661.5 2639,1675.8 						"/>
						<polygon class="st30" points="2651.6,1697.6 2647.3,1690.1 2649.6,1675.8 2655.1,1685.2 						"/>
						<polygon class="st30" points="2659.8,1711.9 2655.5,1704.4 2657.9,1690.1 2663.3,1699.5 						"/>
						<path class="st44" d="M2670,1724.7c-0.4,0-0.9,0-1.3-0.2c-1.1-0.3-2.2-1-2.8-2.1l-2-3.4l2.4-14.4l5.5,9.4L2670,1724.7z"/>
						<path class="st40" d="M2633.8,1657.6c0,0,2.6-6.2-0.9-10.7c0,0,0.1,1-2.5,0.3s-2.9,1.2-4.1,1.4
							C2626.3,1648.5,2626.7,1654.6,2633.8,1657.6z"/>
						<path class="st45" d="M2632.4,1657.7l-0.1-0.1c-0.2-0.4-0.1-0.9,0.3-1.1l1.4-0.8c0.4-0.2,0.9-0.1,1.1,0.3l0.1,0.1
							c0.2,0.4,0.1,0.9-0.3,1.1l-1.4,0.8C2633.2,1658.3,2632.6,1658.1,2632.4,1657.7z"/>
						<path class="st40" d="M2672.1,1723.8c0,0,6.6,0.9,8.8,6.1c0,0-0.8-0.6-1.5,2s-2.5,2-3.2,2.9
							C2676.3,1734.8,2671.2,1731.4,2672.1,1723.8z"/>
						<path class="st45" d="M2671.3,1724.9l0.1,0.1c0.2,0.4,0.7,0.5,1.1,0.3l1.4-0.8c0.4-0.2,0.5-0.7,0.3-1.1l-0.1-0.1
							c-0.2-0.4-0.7-0.5-1.1-0.3l-1.4,0.8C2671.2,1724,2671.1,1724.5,2671.3,1724.9z"/>
					</g>
					<g>
						<path class="st30" d="M2562.6,1740.5c-0.7-0.4-1.3-0.9-1.7-1.6c-0.2-0.4-0.4-0.7-0.5-1.2c-0.3-1.1-0.3-2.4,0.3-3.5l31.6-59.8
							c1.2-2.2,4-3.1,6.2-1.9c1.1,0.6,1.9,1.6,2.3,2.7c0.3,1.1,0.3,2.4-0.3,3.5l-31.6,59.8
							C2567.7,1740.8,2564.9,1741.7,2562.6,1740.5z"/>
						<polygon class="st28" points="2581.8,1694.3 2594.2,1690.7 2599.3,1681.1 2585.8,1686.7 						"/>
						<polygon class="st28" points="2574.1,1708.9 2578.1,1701.3 2591.6,1695.7 2586.5,1705.3 						"/>
						<polygon class="st46" points="2566.4,1723.5 2570.4,1715.9 2583.8,1710.3 2578.8,1719.9 						"/>
						<path class="st46" d="M2560.9,1738.9c-0.2-0.4-0.4-0.7-0.5-1.2c-0.3-1.1-0.3-2.4,0.3-3.5l1.9-3.5l13.4-5.6l-5.1,9.6
							L2560.9,1738.9z"/>
						<path class="st28" d="M2598.6,1672.6c0,0,6.6-1.1,8.6-6.4c0,0-0.8,0.6-1.5-2c-0.8-2.6-2.6-1.9-3.3-2.8
							C2602.3,1661.4,2597.3,1665,2598.6,1672.6z"/>
						<path class="st33" d="M2597.7,1671.5l0.1-0.1c0.2-0.4,0.7-0.6,1.1-0.3l1.5,0.8c0.4,0.2,0.6,0.7,0.3,1.1l-0.1,0.1
							c-0.2,0.4-0.7,0.6-1.1,0.3l-1.5-0.8C2597.6,1672.4,2597.5,1671.9,2597.7,1671.5z"/>
						<path class="st34" d="M2562.8,1740.3c0,0,2.8,6.1-0.4,10.7c0,0,0.1-1-2.5-0.2s-3-1.1-4.2-1.2
							C2555.7,1749.6,2555.8,1743.5,2562.8,1740.3z"/>
						<path class="st34" d="M2561.4,1740.2l-0.1,0.1c-0.2,0.4-0.1,0.9,0.3,1.1l1.5,0.8c0.4,0.2,0.9,0.1,1.1-0.3l0.1-0.1
							c0.2-0.4,0.1-0.9-0.3-1.1l-1.5-0.8C2562.1,1739.6,2561.6,1739.7,2561.4,1740.2z"/>
					</g>
					<g>
						<path class="st43" d="M2625.8,1686.2c0,0,2.8,3.9,5.3,3.9c2.5,0.1,6.4-1.8,6.4-1.8s2.3-5.2,0.7-7.2c0,0-1.6-0.7-3.2,0.5
							c-0.3,0.2-0.6,0.5-0.9,0.8c-0.4,0.5-0.9,0.8-1.3,0.9c-1.8,0.5-4-0.7-4.8,0.5c-0.5,0.7-1,1.3-1.4,1.7
							C2626.1,1685.9,2625.8,1686.2,2625.8,1686.2z"/>
						<path class="st43" d="M2661.8,1714.2c0,0-9.8-23.6-27.3-24.1c0,0-16.2,1.8-17.1,24.1H2661.8z"/>
						<path class="st37" d="M2639.2,1690.8c0,0-7,1.6-9.2,0.6c0,0-0.3-2.9,2.6-2.5c2,0.3,3.4-0.7,4.1-1.1
							C2637.9,1687.3,2639.5,1689.6,2639.2,1690.8z"/>
						<path class="st37" d="M2633.1,1686.4c0.5,0.3,1.8-4.8,1.8-4.8c-0.3,0.2-0.6,0.5-0.9,0.8c-0.4,0.5-0.9,0.8-1.3,0.9
							C2632.8,1683.5,2632.7,1686.1,2633.1,1686.4z"/>
						<path class="st37" d="M2626.6,1685.5c0.1,0.1,3.4,2,3.8,2c0.4,0-2.4-3.7-2.4-3.7C2627.6,1684.6,2627,1685.1,2626.6,1685.5z"/>
						<path class="st34" d="M2652.2,1707.6c0.2-0.2-6.9-10.4-8.9-10.5s-6.3,2.3-9.5,2.6c-3.2,0.3-6.3-0.6-6.9,1.3
							c-0.6,1.9-2.3,8.5-1.2,9.6C2626.8,1711.6,2648.3,1710.9,2652.2,1707.6z"/>
					</g>
					<g>
						<path class="st34" d="M2695.7,1687.4L2695.7,1687.4c-2.9,0-4.4-4.4-4.4-4.4l-28.3,8.6c1.3,3.1-0.8,5.5-0.8,5.5
							s-4.9,3.3-3.4,8.3l6.3,20.7c1.1,3.7,5,5.8,8.7,4.6l29.9-9c3.7-1.1,5.8-5,4.6-8.7l-6.3-20.7
							C2701.2,1689.5,2698.6,1687.6,2695.7,1687.4z"/>
						<g>
							<path class="st37" d="M2660.2,1690.7l1.7,5.6c0.6,2,8.4,1.5,17.3-1.2c8.9-2.7,15.7-6.5,15.1-8.6l-1.7-5.6L2660.2,1690.7z"/>
							<path class="st43" d="M2692.6,1680.9c0.6,2-6.1,5.9-15.1,8.6c-8.9,2.7-16.7,3.3-17.3,1.2c-0.6-2,6.1-5.9,15.1-8.6
								S2692,1678.9,2692.6,1680.9z"/>
						</g>
					</g>
					<g>
						<path class="st28" d="M2619.8,1698.7L2619.8,1698.7c-2-1-1.5-4.5-1.5-4.5l-22.6-3.9c-0.2,2.6-2.4,3.5-2.4,3.5
							s-4.5,0.6-5.2,4.6l-2.8,16.5c-0.5,2.9,1.5,5.7,4.4,6.2l23.9,4.1c2.9,0.5,5.7-1.5,6.2-4.4l2.8-16.5
							C2622.9,1702,2621.7,1699.7,2619.8,1698.7z"/>
						<g>
							<path class="st37" d="M2594,1688.6l-0.8,4.5c-0.3,1.6,5.3,3.9,12.4,5.2c7.2,1.2,13.2,0.9,13.5-0.7l0.8-4.5L2594,1688.6z"/>
							<path class="st28" d="M2619.9,1693.1c-0.3,1.6-6.3,1.9-13.5,0.7c-7.2-1.2-12.7-3.5-12.4-5.2c0.3-1.6,6.3-1.9,13.5-0.7
								C2614.6,1689.1,2620.2,1691.4,2619.9,1693.1z"/>
						</g>
					</g>
					<g>
						<rect x="2547.7" y="1705.3" class="st39" width="140.2" height="115.6"/>
						<rect x="2617.8" y="1705.3" class="st10" width="140.2" height="115.6"/>
						<polygon class="st37" points="2617.8,1705.4 2758.3,1705.4 2758.3,1745.6 2617.8,1763.2 						"/>
						<polygon class="st10" points="2617.8,1705.4 2645.5,1735.8 2783.8,1735.8 2758,1705.4 						"/>
						<polygon class="st28" points="2547.8,1791.6 2570,1791.6 2568,1785.4 2570,1780.9 2547.8,1780.9 						"/>
						<polygon class="st37" points="2617.8,1718.4 2588.2,1748 2547.8,1748 2547.8,1705.4 2617.8,1705.4 						"/>
						<polygon class="st39" points="2547.7,1705.4 2516.2,1735.8 2586.3,1735.8 2617.8,1705.4 						"/>
					</g>
				</g>
			</g>
		</g>
		<path class="st30" d="M2375.7,1177.1c-141.4-26.2-224.7,141.1-239,161.8c-14.3-20.7-97.5-187.9-239-161.8
			c-156,28.8-223,176-164.1,319.6c48,117,358.2,304.4,400.9,326.7v2.3c0,0,0.8-0.4,2.2-1.1c1.4,0.8,2.2,1.1,2.2,1.1v-2.3
			c42.6-22.3,347.9-211.8,400.9-326.7C2598.9,1368.4,2531.7,1205.9,2375.7,1177.1z"/>
		<g>
			<g>
				<path class="st24" d="M1940.4,1509.3c-2.5,6.2-19.4,4.5-32.4-4.3c-12.9-8.8-31.4-16.9-42-24.2c-7.9-5.4-16.1-25.7-22.3-38.2
					c-1.6-3.2-3.1-5.9-4.3-7.7c-7.6-2.3-7.2-10.2-14.2-12.7c-8.4-2.9-5.8-7.6-5.8-7.6s6-2.5,13.4-1.8c2.6,0.4,7.9,8,11,12.8
					c2.9,2.2,6.4,5.1,10.2,8.5c10.2,9,21.7,20.7,26.3,26.5c5.4,6.7,40.1,14,49.5,21.8C1946.4,1495.9,1940.4,1509.3,1940.4,1509.3z"
					/>
				<path class="st24" d="M1880.2,1604.9l36.4,202.2l12.6,0.8c0,0,9.9-88.1,1.4-118.5s14.7-68.8,8.2-95.2
					C1932.4,1567.9,1880.2,1604.9,1880.2,1604.9z"/>
				<path class="st24" d="M1922.2,1493.2l-31.8-5.2c-1.5-5.2-1.9-12.3-2-18.5c0-7.8,0.6-14.3,0.6-14.3l25.7-2.5l11.4-1.1
					C1919.8,1463.5,1922.2,1493.2,1922.2,1493.2z"/>
				<path class="st24" d="M1923.1,1457.9c0,0-17,14.5-34.7,11.6c0-7.8,0.6-14.3,0.6-14.3l25.7-2.5L1923.1,1457.9z"/>
				<path class="st24" d="M1904.5,1654.8c-6.4,17.9-12.2,36.2-9.3,51.1c0.9,4.4,1.4,9,1.6,13.7c0.2,4.3,0.2,8.6,0.1,13
					c-1.4,35.3-14.8,71.2-16.9,76.6c-0.2,0.5-0.3,0.7-0.3,0.7l-11.2-1.2l-4.8-212.2c0,0,51-20.6,53.8,6.4
					C1919,1616.8,1911.4,1635.6,1904.5,1654.8z"/>
				<path class="st47" d="M1935,1666.8c0,0-3.3,0.5-8.1,1c-9.1,1-23.7,2.2-32.8,0.8c-4.3-0.7-6.7-7.8-7.9-17.4
					c-2.5-21.2,1.2-54.4,4.7-55.9c5-2.1,49-0.3,49-0.3S1949.6,1618.8,1935,1666.8z"/>
				<path class="st48" d="M1927.6,1667.8c-9.1,1-23.7,2.2-32.8,0.8c-4.3-0.7-6.7-7.8-7.9-17.4l24.1-39.5l18.1-7.1
					C1929.2,1604.6,1936.5,1634.9,1927.6,1667.8z"/>
				<path class="st47" d="M1863.5,1595.7c0,0-9.5,41.9-8.1,75.1c0,0,21.6,4.3,43.6,0c0,0,36.5-53.1,33.4-70.1
					C1929.4,1583.6,1872.8,1590.3,1863.5,1595.7z"/>
				<path class="st24" d="M1880.9,1450.1c0,0,29.7,23.5,44,4.8c14.4-18.7,27.9-28.2,9.5-44c-18.3-15.8-27.5-11.5-33.8-6.5
					C1894.3,1409.5,1873.5,1443.5,1880.9,1450.1z"/>
				<path class="st48" d="M1955.5,1417.9c0,0-1.6-0.5-3.5,0l0,0c2.4-4.4,0.6-11.3,0.6-11.3c0.6,3.8-2.8,8.2-2.8,8.2
					c-0.2-13.9-34.7-22.6-37.9-23.5c-3.2-0.9-2.8-6.2-2.8-6.2c-6.6,1.3-13.6,9.7-13.4,17.9c0.2,8.2,7,23.9,11.4,24.1
					s2.4,3.8-0.6,8.6c-3,4.9,0.9,18.1,6.3,22.7c4.3,3.7,6.6,0.6,9.2-0.8c0.6-0.3,1.3-0.6,2-0.8c10.1-2.2,20.5-12.2,25.7-24.9
					c2.1-5,2.4-10.1,2.4-12.6C1952.8,1419,1954.5,1418.1,1955.5,1417.9z"/>
				<g>
					<path class="st29" d="M1931,1821.9h-7c-2.4-0.3-4.1-0.9-6.5-1.2c-3.7-0.4-5.4,0.9-5.7,1.2l-0.1,0.1h-29.9
						c-0.8-0.9,0-3.2,0.7-4.8c0.5-1.1,1.5-1.9,2.8-2.3c3.2-0.8,9.4-1.5,15.2-6.1c3.2-2.6,15.6-9.5,15.6-9.5h0.1
						c0.3,0,1.6,0.4,7.2,4.5c2.9,2.2,7.8-3.1,7.8-3.1s0.9,0.7,1.6,1.9c0.6,1,1,2.4,0.6,4.1c-0.4,2.4,1,6.8,2.1,9.8
						c0.7,1.8,1.3,3.1,1.3,3.1S1937.1,1821.3,1931,1821.9z"/>
					<path class="st47" d="M1932.7,1802.8c-1.7,1-5.2,3.1-7.6,3.4c-3.2,0.4-9.1-6.8-9.1-6.8h0.1c0.3,0,1.6,0.4,7.2,4.5
						c2.9,2.2,7.8-3.1,7.8-3.1S1932,1801.5,1932.7,1802.8z"/>
					<path class="st47" d="M1931,1821.9h-7c-2.4-0.3-4.1-0.9-6.5-1.2c-3.7-0.4-5.4,0.9-5.7,1.2l-0.1,0.1h-29.9
						c-0.8-0.9,0-3.2,0.7-4.8c0.9-0.7,1.2,3.1,1.7,3.7s24.4,0.2,25.8-0.7c1.4-0.9,5.5-2.4,11.3-1.2c5,1.1,12.4-1.7,14.3-2.4
						c0.7,1.8,1.3,3.1,1.3,3.1S1937.1,1821.3,1931,1821.9z"/>
				</g>
				<g>
					<path class="st29" d="M1882.9,1821.9h-7c-2.4-0.3-4.1-0.9-6.5-1.2c-3.7-0.4-5.4,0.9-5.7,1.2l-0.1,0.1h-29.9
						c-0.8-0.9,0-3.2,0.7-4.8c0.5-1.1,1.5-1.9,2.8-2.3c3.2-0.8,9.4-1.5,15.2-6.1c3.2-2.6,15.6-9.5,15.6-9.5h0.1
						c0.3,0,1.6,0.4,7.2,4.5c2.9,2.2,7.8-3.1,7.8-3.1s0.9,0.7,1.6,1.9c0.6,1,1,2.4,0.6,4.1c-0.4,2.4,1,6.8,2.1,9.8
						c0.7,1.8,1.3,3.1,1.3,3.1S1888.9,1821.3,1882.9,1821.9z"/>
					<path class="st47" d="M1884.5,1802.8c-1.7,1-5.2,3.1-7.6,3.4c-3.2,0.4-9.1-6.8-9.1-6.8h0.1c0.3,0,1.6,0.4,7.2,4.5
						c2.9,2.2,7.8-3.1,7.8-3.1S1883.8,1801.5,1884.5,1802.8z"/>
					<path class="st47" d="M1882.9,1821.9h-7c-2.4-0.3-4.1-0.9-6.5-1.2c-3.7-0.4-5.4,0.9-5.7,1.2l-0.1,0.1h-29.9
						c-0.8-0.9,0-3.2,0.7-4.8c0.9-0.7,1.2,3.1,1.7,3.7s24.4,0.2,25.8-0.7c1.4-0.9,5.5-2.4,11.3-1.2c5,1.1,12.4-1.7,14.3-2.4
						c0.7,1.8,1.3,3.1,1.3,3.1S1888.9,1821.3,1882.9,1821.9z"/>
				</g>
				<path class="st49" d="M1946.1,1604.6c0,0-28.5,8.3-63.2,2.4c-6.3-1.1-17.5-4.2-25.3-8.7l10.5-83.1l2.2-38.6c0,0,12-3.7,17.8-4
					c0,0,24.3,2.9,33.7,0.4c0,0,13.5,2.8,17.4,15.5C1947.1,1514.8,1949.8,1547.6,1946.1,1604.6z"/>
				<path class="st24" d="M1889.8,1509.3c-2.6,6.2-19.5,4.5-32.4-4.3c-1.1-0.8-2.3-1.5-3.5-2.3c-12.6-7.9-29-15.3-38.6-21.9
					c-9-6.2-18.5-32.1-24.9-43.2c-0.6-1-1.1-2-1.7-2.7c-7.5-2.4-7.1-10.2-14.1-12.7c-8.4-2.9-5.9-7.6-5.9-7.6s6.1-2.5,13.4-1.8
					c2.7,0.4,8,8,11,12.8c2.1,1.6,4.6,3.6,7.2,5.7c10.7,9.3,24.2,22.9,29.2,29.2c3.9,4.8,22.9,10,36.8,15.3
					c5.5,2.2,10.2,4.3,12.8,6.5C1895.9,1495.9,1889.8,1509.3,1889.8,1509.3z"/>
				<path class="st49" d="M1889.8,1509.3c-2.8,12.9-35.7-2.8-37-3.5c1.8-19.4,1.6-30,7-33.4c10.7-1.7,26.8-0.9,30,0.3
					C1916.2,1482.2,1889.8,1509.3,1889.8,1509.3z"/>
				<path class="st24" d="M1853.9,1434c-1.1,3.1-4,6.7-10.2,8.6c-1.6-3.2-3.1-5.9-4.3-7.7c-7.6-2.3-7.2-10.2-14.2-12.7
					c-8.4-2.9-5.8-7.6-5.8-7.6s6-2.5,13.4-1.8c2.6,0.4,7.9,8,11,12.8C1846.6,1427.7,1850.1,1430.6,1853.9,1434z"/>
				<g>
					<path class="st8" d="M1836.4,1426.2c-2.8,2.2-10.5,9.9-10.5,9.9l-17.5-22.7c0,0,9-5.7,12-8c2.7-2.1,10.7-9.6,10.7-9.6
						l17.5,22.7C1848.6,1418.6,1839.3,1424,1836.4,1426.2z"/>
					<path class="st47" d="M1836.4,1426.2c-2.8,2.2-10.5,9.9-10.5,9.9l-12.4-16c0,0,9-5.7,12-8c2.7-2.1,10.7-9.6,10.7-9.6l12.4,16
						C1848.6,1418.6,1839.3,1424,1836.4,1426.2z"/>
					
						<rect x="1839.5" y="1392.2" transform="matrix(0.791 -0.6118 0.6118 0.791 -475.8281 1420.0612)" class="st8" width="2.3" height="28.7"/>
					
						<rect x="1815" y="1411.1" transform="matrix(0.791 -0.6118 0.6118 0.791 -492.5147 1409.0515)" class="st8" width="2.3" height="28.7"/>
				</g>
				<g>
					<path class="st42" d="M1802.8,1416.4l-23.4,28.7c-2.8,3.4-7.8,3.9-11.2,1.1l-11.8-9.6c-3.6-2.9-4.1-8.3-1.2-11.9l23.1-28.3
						c3.9-4.8,10.3-6.6,15.9-5.1c0.7,0.2,1.6-0.1,2-0.7c0.1-0.2,0.2-0.4,0.4-0.6l1.2-1.5l8.7,7.1l-1.2,1.5c-0.2,0.2-0.3,0.4-0.5,0.5
						c-0.5,0.5-0.7,1.2-0.4,1.8C1807.2,1404.9,1806.7,1411.6,1802.8,1416.4z"/>
					<path class="st50" d="M1802.8,1416.4l-23.4,28.7c-2.8,3.4-7.8,3.9-11.2,1.1l-7.4-6c-3.6-2.9-4.1-8.3-1.2-11.9l23.1-28.3
						c3.9-4.8,10.3-6.6,15.9-5.1c0.3,0.1,0.6,0.1,0.8,0c0.5-0.1,0.9-0.4,1.1-0.8c0.1-0.2,0.2-0.4,0.4-0.6l1.2-1.5l4.4,3.6l-1.2,1.5
						c-0.2,0.2-0.3,0.4-0.5,0.5c-0.5,0.5-0.7,1.2-0.4,1.8C1807.2,1404.9,1806.7,1411.6,1802.8,1416.4z"/>
					<path class="st42" d="M1797.9,1412.5l-23.4,28.7c-2.8,3.4-7.8,3.9-11.2,1.1l-2.5-2.1c-3.6-2.9-4.1-8.3-1.2-11.9l23.1-28.3
						c3.9-4.8,10.3-6.6,15.9-5.1c0.3,0.1,0.6,0.1,0.8,0c0,0.2,0.1,0.5,0.2,0.7C1802.3,1401,1801.9,1407.6,1797.9,1412.5z"/>
					
						<rect x="1770.9" y="1401.7" transform="matrix(0.6323 -0.7748 0.7748 0.6323 -443.0155 1901.6566)" class="st8" width="21.7" height="31.6"/>
					
						<rect x="1801.7" y="1384.7" transform="matrix(0.6308 -0.776 0.776 0.6308 -413.5745 1912.7706)" class="st8" width="3" height="12.5"/>
				</g>
				<path class="st24" d="M1800.3,1431.3c-1.7,2.5-4.7,4.8-9.9,6.3c-0.6-1-1.1-2-1.7-2.7c-7.5-2.4-7.1-10.2-14.1-12.7
					c-8.4-2.9-5.9-7.6-5.9-7.6s6.1-2.5,13.4-1.8c2.7,0.4,8,8,11,12.8C1795.1,1427.1,1797.7,1429.1,1800.3,1431.3z"/>
			</g>
			<g>
				<path class="st24" d="M1677.5,1390.9l-1.7,11.4c0,0-0.8,0-2.1-0.1c-4.1-0.3-14.2-0.8-25.6-2.1c-17.1-1.7-37.5-4.7-45.6-9.7
					c-12.3-7.5-32.6-30.6-45.8-53.7c-0.4-0.6-0.7-1.1-0.9-1.7c-6.9-12.2-11.7-24.4-12.1-34.1c-0.3-5.9,0.4-11,1.6-15.4
					c1.6-5.8,4.2-10.5,7-13.9c0.4-0.6,0.8-1.1,1.3-1.6c4.5-5.4,8.9-7.6,8.9-7.6c2.3-0.9,4.7,0.2,7.2,2.9v0.1
					c2.1,2.2,4.3,5.5,6.5,9.6c0.1,0.1,0.2,0.2,0.2,0.3c0.5,0.8,0.9,1.8,1.5,2.8c0.2,0.2,0.3,0.5,0.4,0.7c1,2.2,2.1,4.4,3.1,6.8
					c11.6,25.2,23.9,63.5,34.2,74.8c4.4,4.9,24.7,14.5,40.8,21.7C1668.1,1387.1,1677.5,1390.9,1677.5,1390.9z"/>
				<path class="st41" d="M1524.4,1139.7c0,0-3.5-18.2-23.1-19.2s-42.8,14.7-40.8,35.1s-20.2,28.8-24.1,46.1
					c-3.9,17.2,14.6,17.3,18.6,30.5s-7.1,25.2,16.9,26.3c23.9,1.1,51.5-3,57-16.5c5.6-13.4,8.7-67.8,8.7-67.8L1524.4,1139.7z"/>
				<path class="st24" d="M1558.4,1325.6c-1.1,6.3-3,11.7-5.3,16.8c-1.9,4.3-4,8.4-6.2,12.6c-6.5,12.5-20.8,18.2-22.2,42.6
					c-0.5,8.4,0.6,19,4,32.9c17,68.4-117.4,10.1-109.8-7.6c15.1-35.2,35.5-55.1,36.2-84.5c0-0.1,0-0.1,0-0.2
					c-0.1-1.4-0.1-5.3-0.1-10.3c-0.1-12.4,0-32.1,0.1-42c0-0.2,0-0.5,0-0.7c0.1-4.3,0-7.4-0.1-8.2c11-40.1,32.9-39.5,40.4-39.1
					c2.8,0.1,5.7,0.4,8,0.7c4.8-2.5,13.4-14.6,18.4-34.9l1.7,0.8l28.2,13.3c0,0-3,9.2-5.2,18c-1.7,6.9-3,13.5-1.9,15.4
					c2.2,0.9,3.6,1.5,3.6,1.5l0,0C1548.5,1253.7,1564.2,1293.5,1558.4,1325.6z"/>
				<path class="st25" d="M1554.2,1802.9l-10.3,5.4c0,0-56.1-77.5-62.8-143.4c-1.2-11.8-0.8-23.2,1.8-33.7c0,0-1.1-6.5-3-17.3
					c-0.4-2.1-0.8-4.4-1.2-6.9c-1.6-9.1-3.6-20.3-5.7-32.6c-2.1-12.2-4.5-25.5-6.9-39.1c-4.8-26.7-9.8-54.6-14.1-77.1l3.4-1.1
					l15.4-5l20.9-6.7l7.5-23.8l4.9-1.3l22.1-5.8c0,0,1,1.9,2.5,7.7c2,7.7,4.9,22.3,7.8,48.4c0.4,3.6,0.8,7.4,1.2,11.4
					c4.1,29.6,6.4,71.5,0,121.8c-1.2,9.7-2.8,19.7-4.7,30c-1.4,7.5-1.6,17.8-1,29.6C1534.4,1717.4,1554.2,1802.9,1554.2,1802.9z"/>
				<path class="st25" d="M1536.3,1470.7c-14.4,34.4-45.7,108.1-57.7,136.3c-1.6-9.1-3.6-20.3-5.7-32.6c-2.1-12.2-4.5-25.5-6.9-39.1
					l-5.5-57.2l10.1-25.9l12.9-33c0,0,9.6,0.5,20.4,1.1c9,0.6,18.7,1.2,24.6,1.9C1530.5,1430,1533.4,1444.5,1536.3,1470.7z"/>
				<path class="st24" d="M1700.6,1421.4c-4.9,4.3-25.6-17.3-27.4-19.2c-4.1-0.3-14.2-0.8-25.6-2.1c3.6-5.8,6.9-14.2,8.4-18.1
					c11.6,5.1,21,8.8,21,8.8s17.7,2.9,20.4,5.9C1704.8,1404.9,1705.9,1416.8,1700.6,1421.4z"/>
				<path class="st39" d="M1695.1,1405.4c-3.5,0-73-3.5-73-3.5l48.3,51.5l105.9,22.6L1695.1,1405.4z"/>
				<path class="st51" d="M1743.1,1471.3c-2.3,7-6.4,28.9-6.4,28.9l-56-18.3c0,0,8.7-20,11.2-27.4c2.2-6.7,7.2-28.7,7.2-28.7
					l56,18.3C1755.1,1444.2,1745.4,1464.3,1743.1,1471.3z"/>
				<path class="st52" d="M1743.1,1471.3c-2.3,7-6.4,28.9-6.4,28.9l-39.5-12.9c0,0,8.7-20,11.2-27.4c2.2-6.7,7.2-28.7,7.2-28.7
					l39.5,12.9C1755.1,1444.2,1745.4,1464.3,1743.1,1471.3z"/>
				
					<rect x="1725.5" y="1403.3" transform="matrix(0.311 -0.9504 0.9504 0.311 -171.1468 2629.3416)" class="st52" width="4.7" height="58.9"/>
				
					<rect x="1705.8" y="1463.8" transform="matrix(0.311 -0.9504 0.9504 0.311 -242.2848 2652.2114)" class="st53" width="4.7" height="58.9"/>
				<g>
					<g>
						<path class="st54" d="M1753.7,1455.6l20.2,31c2.4,3.7,1.4,8.6-2.3,11l-12.7,8.3c-3.9,2.5-9.1,1.4-11.7-2.5l-20-30.6
							c-3.4-5.2-3.2-11.8,0-16.7c0.4-0.6,0.4-1.5-0.1-2.1c-0.1-0.2-0.3-0.3-0.4-0.5l-1.1-1.6l9.4-6.2l1.1,1.6
							c0.1,0.2,0.3,0.4,0.4,0.7c0.3,0.6,1,1,1.6,0.9C1744.1,1447.9,1750.3,1450.3,1753.7,1455.6z"/>
						<path class="st27" d="M1753.7,1455.6l20.2,31c2.4,3.7,1.4,8.6-2.3,11l-8,5.2c-3.9,2.5-9.1,1.4-11.7-2.5l-20-30.6
							c-3.4-5.2-3.2-11.8,0-16.7c0.2-0.2,0.2-0.5,0.3-0.8c0.1-0.5-0.1-0.9-0.4-1.3c-0.1-0.2-0.3-0.4-0.4-0.5l-1.1-1.6l4.7-3.1
							l1.1,1.6c0.1,0.2,0.3,0.4,0.4,0.7c0.3,0.6,1,1,1.6,0.9C1744.1,1447.9,1750.3,1450.3,1753.7,1455.6z"/>
						<path class="st55" d="M1748.5,1459l20.2,31c2.4,3.7,1.3,8.6-2.3,11l-2.8,1.8c-3.9,2.5-9.1,1.4-11.7-2.5l-20-30.6
							c-3.4-5.2-3.2-11.8,0-16.7c0.2-0.2,0.2-0.5,0.3-0.8c0.2,0.1,0.5,0.1,0.7,0C1738.9,1451.3,1745.1,1453.7,1748.5,1459z"/>
						
							<rect x="1732.4" y="1465" transform="matrix(0.8375 -0.5464 0.5464 0.8375 -522.3582 1195.0138)" class="st56" width="31.6" height="21.7"/>
					</g>
					
						<rect x="1723.2" y="1445.9" transform="matrix(0.8365 -0.548 0.548 0.8365 -510.3998 1184.493)" class="st56" width="12.5" height="3"/>
				</g>
				<g>
					<path class="st54" d="M1684,1442.4l7.5,36.2c0.9,4.3-1.9,8.5-6.2,9.4l-14.9,3.1c-4.5,0.9-9-2-10-6.5l-7.4-35.8
						c-1.3-6.1,1.3-12.1,6.1-15.5c0.6-0.4,0.9-1.3,0.7-2c-0.1-0.2-0.1-0.4-0.2-0.7l-0.4-1.9l11-2.3l0.4,1.9c0.1,0.3,0.1,0.5,0.1,0.8
						c0,0.7,0.5,1.3,1.2,1.4C1677.9,1431.7,1682.8,1436.3,1684,1442.4z"/>
					<path class="st27" d="M1684,1442.4l7.5,36.2c0.9,4.3-1.9,8.5-6.2,9.4l-9.3,1.9c-4.5,0.9-9-2-10-6.5l-7.4-35.8
						c-1.3-6.1,1.3-12.1,6.1-15.5c0.2-0.2,0.4-0.4,0.5-0.6c0.2-0.4,0.3-0.9,0.1-1.4c-0.1-0.2-0.1-0.4-0.2-0.7l-0.4-1.9l5.5-1.1
						l0.4,1.9c0.1,0.3,0.1,0.5,0.1,0.8c0,0.7,0.5,1.3,1.2,1.4C1677.9,1431.7,1682.8,1436.3,1684,1442.4z"/>
					<path class="st55" d="M1677.9,1443.7l7.5,36.2c0.9,4.3-1.9,8.5-6.2,9.4l-3.2,0.7c-4.5,0.9-9-2-10-6.5l-7.4-35.8
						c-1.3-6.1,1.3-12.1,6.1-15.5c0.2-0.2,0.4-0.4,0.5-0.6c0.2,0.1,0.4,0.3,0.6,0.3C1671.8,1433,1676.6,1437.6,1677.9,1443.7z"/>
					
						<rect x="1655.6" y="1448.4" transform="matrix(0.9792 -0.2028 0.2028 0.9792 -261.2125 369.2898)" class="st52" width="31.6" height="21.7"/>
					
						<rect x="1658.2" y="1424.4" transform="matrix(0.9788 -0.2047 0.2047 0.9788 -256.6524 370.9124)" class="st52" width="12.5" height="3"/>
				</g>
				<g>
					<path class="st37" d="M1812.6,1681.6l-12,76.1l-3.5,21.9l-6.9,44h-93c0,0-12.2-7.5-28.2-17.4c-27.1-17-64.6-40.8-68.4-45
						c-2.4-2.7-6.7-23.3-10.8-46.4c-5.8-33-11.5-71.6-11.5-71.6l34.1-63.6l-29.4-70.3l38.8-107.2l48.2,51.5l106,22.5L1812.6,1681.6z
						"/>
					<polygon class="st37" points="1674.4,1667.6 1663.8,1727.6 1743.2,1672.3 					"/>
					<path class="st39" d="M1800.5,1757.7l-10.4,65.9h-93c0,0-12.2-7.5-28.2-17.4l-7.7-22.7l89.4-40.6l10.7-0.6L1800.5,1757.7z"/>
					<path class="st39" d="M1812.6,1681.6l-12,76.1l-3.5,21.9c-6-3-48-24.7-46.3-36.7C1752.7,1730,1812.6,1681.6,1812.6,1681.6z"/>
					<path class="st37" d="M1600.8,1761.2c0,0,56.5,17.1,60.6,22.4s15.9,27.7,15.9,27.7L1600.8,1761.2z"/>
					<path class="st10" d="M1674.4,1667.6c0,0,44.7-12.9,48.8-18.8c4.1-5.9,33-41.8,33-41.8s-7.6,58.3-12.9,65.3
						C1737.9,1679.4,1674.4,1667.6,1674.4,1667.6z"/>
					<path class="st39" d="M1637.7,1625.4l-47.7,89.3c-5.8-33-11.5-71.6-11.5-71.6l27-31.8L1637.7,1625.4z"/>
					<path class="st39" d="M1637.7,1625.4c0,0-25.9-10.2-59.2,17.7l34.1-63.6L1637.7,1625.4z"/>
					<polygon class="st10" points="1583.2,1509.1 1662,1529.7 1695,1579.9 					"/>
					<polygon class="st8" points="1663.8,1727.6 1661.4,1783.5 1750.9,1742.9 1812.6,1681.6 1756.2,1607 1729.1,1678.8 					"/>
				</g>
				<path class="st41" d="M1577.1,1159.9c0,0-7.6-27.2-29.5-29.9c-21.9-2.6-35.7,10.5-38.6,23.3c-3,12.8-0.8,46.3,12.7,50.4
					C1535.3,1207.8,1577.1,1159.9,1577.1,1159.9z"/>
				<path class="st25" d="M1514.3,1429.5l-1.4-11.6c-22.7,6-83.5-16.9-83.5-16.9s-22,19.4-19.1,65.8c1.4,22.7,2.3,61.1,2.3,61.1l0,0
					c-0.1,33,2.4,65.6,4.4,86.3c1,10.3,1.8,17.7,2.2,20.6l0,0c0.1,0.9-0.2,1.7-0.7,2.5c-4,6.7-7.7,13.6-9.9,20.9
					c-15.5,51.3-3.3,130.2-3.3,130.2l15.3,23.9c0,0,17.4-96.6,31.5-139.2c2.4-7.2,4.7-12.9,6.8-16.3c6.1-9.9,11.8-26.1,17-45.3
					C1485.5,1575.4,1514.3,1429.5,1514.3,1429.5z"/>
				<path class="st24" d="M1551.6,1217.7c0,0-3,9.2-5.2,18c-16.5-4.6-21.5-21.9-23-31.2L1551.6,1217.7z"/>
				<path class="st24" d="M1555.1,1227.4c0,0-39.5-9.1-33.4-33.6s5.1-42.2,30.5-37.4c25.5,4.8,28,15.3,28,24
					S1565.5,1229.2,1555.1,1227.4z"/>
				<path class="st41" d="M1582.4,1166.6c-4.2-8.9-9.2-8.4-12.4-6.8c-18.5-17.2-36.7-3.1-36.7-3.1c-7,16.9-22.2,23.8-22.2,23.8
					s6.1,6.2,23.6,6.1c5.4,0,10.8-2.5,15.7-5.9c-9.5,9.5-20.6,15.3-20.6,15.3c22-4.2,36.7-29.7,38.3-32.4c1.9,2.8,5.4,8.6,5.7,13.6
					c0.4,6.7-1.9,19.8,1.9,20.3C1575.8,1197.4,1588.8,1179.9,1582.4,1166.6z"/>
				<path class="st31" d="M1570.8,1264.6c0,0,9.5,16.6,10.9,20.8c0,0-12.3-0.5-17.3,9C1564.4,1294.5,1564.8,1267,1570.8,1264.6z"/>
				<path class="st30" d="M1567.5,1314c-0.3,0.8-0.6,1.5-1,2.3c-9.9,21.3-18.9,39.1-18.9,39.1c-0.2-0.1-1.4,79-13.4,82.1
					c-6.8,1.8-26.1,4.3-39.9,5.2c-6.7,0.4-25.1,1.5-41.9,0c-21.2-1.9-33.3-6.7-41.4-14c-9.6-12.8,34.9-55,41-85.4
					c-0.1-1.6,0.2-6.7,0.6-13.3c0.8-12.1,2-29.4,2.4-40c0.1-1.6,0.1-3,0.1-4.3c0-0.2,0-0.5,0-0.7c2.1-1.6,4.2-3.1,6.2-4.5
					c6.2-4.5,10.8-8.4,11.1-13.3c0.1-1.9,0-3.9-0.2-6c-0.1-0.9-0.2-1.9-0.4-2.8c-1.5-9.9-5.7-18.9-5.7-18.9
					c10.5-4.3,29.2-1.7,29.2-1.7s0,1,0,2.7c-0.1,6.8,0,24.3,2.2,27.6c2.7,4.1,52.7,22.2,55.4,16.6c2.6-5.5-4.5-31.3-4.8-32.3l0,0
					c16.7,6.6,22.7,12.1,22.7,12.1C1560.7,1271.2,1575.3,1293.3,1567.5,1314z"/>
				<path class="st33" d="M1498.3,1390.8c-13.1-6.1-33-37.9-45.7-60.7c0.8-12.1,2-29.4,2.4-40L1498.3,1390.8z"/>
				<path class="st24" d="M1596.4,1409.4l-3.3,12.1c0,0-4.1-0.8-10.7-2c-2-0.4-3.1-0.7-3.1-0.7c-5.3-1-11.6-2.4-18.5-4h-0.1
					c-11.8-2.8-25-6.2-36.1-10c-7.8-2.7-14.6-5.6-19.2-8.6c-0.5-0.3-0.8-0.6-1.3-0.9c-11-8-24.1-31.5-34.3-56.8
					c-1.4-3.5-2.7-7-4-10.4c-4.7-12.6-8.5-25-10.7-35.8c-1.4-6.4-2.4-12.2-2.5-17c-0.1-1.7-0.2-3.3-0.1-4.8
					c0.2-27.3,13.7-31.1,13.7-31.1c0.3-0.1,0.6-0.2,0.9-0.3c2.4-0.4,4.8,1.2,7.3,4.3c3.2,3.9,6.6,10.2,10.1,17.8
					c5.4,12.1,11,27.9,16.3,43.5c2.9,8.6,5.7,17.1,8.6,25c1.6,4.8,3.2,9.3,4.7,13.5c2.9,7.9,5.6,14.3,7.9,18.4
					c1.5,2.6,5.8,6.3,11.6,10.5c10,7.2,24.6,16,37.3,23.2c5.3,3,10.3,5.7,14.4,8C1592,1407,1596.4,1409.4,1596.4,1409.4z"/>
				<path class="st31" d="M1484.5,1261.4c-18.1-5-32.1,9.2-32.1,9.2c0.2-27.3,13.8-31,13.8-31
					C1471.6,1237.3,1478,1246.8,1484.5,1261.4z"/>
				<path class="st24" d="M1635.9,1421.4c-6,2.5-14.5,11.4-28.1,6c-9.7-3.8-20-6.4-25-7.6c-2-0.4-3.1-0.7-3.1-0.7
					c-5.3-1-11.6-2.4-18.5-4c5.6-7,8.9-15.8,10.1-19.5c5.3,3,10.3,5.7,14.4,8c13.6,5.2,21.2,4.5,29.5,2.6c9.3-2.2,25,9,25,9
					S1642,1418.9,1635.9,1421.4z"/>
				<path class="st29" d="M1462.2,1818.9h-60.9c0,0-2.3-9.7,1.7-16.3c3.5-5.8,2-12.6,1.3-20.6c2.8,1.1,6.3,4,10.2,4.7
					c4.3,0.7,8.5-0.5,11.3-2.1c2.6,3,9.9,18.4,13.5,21C1443.2,1808.4,1460.9,1807.3,1462.2,1818.9z"/>
				<path class="st29" d="M1585,1818.9h-60.9c0,0-2.3-9.7,1.7-16.3c3.5-5.8,2-12.6,1.3-20.6c2.8,1.1,6.3,4,10.1,4.7
					c4.3,0.7,9.8-2.1,12.6-3.7c1.4,11.8,8.7,20,12.2,22.5C1566,1808.4,1583.8,1807.3,1585,1818.9z"/>
			</g>
		</g>
	</g>
</g>
</svg>
